<svg xmlns="http://www.w3.org/2000/svg" xmlns:xlink="http://www.w3.org/1999/xlink" zoomAndPan="magnify" viewBox="0 0 230 230" preserveAspectRatio="xMidYMid meet" version="1.0"><rect x="-144" width="1728" fill="#ffffff" y="-80.999999" height="971.999992" fill-opacity="1"/><rect x="-144" width="1728" fill="#ffffff" y="-80.999999" height="971.999992" fill-opacity="1"/><path fill="#51459e" d="M 76.570312 87.867188 C 76.386719 87.566406 76.167969 87.292969 75.917969 87.046875 C 75.664062 86.804688 75.386719 86.59375 75.078125 86.421875 C 74.773438 86.25 74.449219 86.121094 74.109375 86.03125 C 73.769531 85.941406 73.425781 85.898438 73.074219 85.898438 C 72.722656 85.898438 72.378906 85.941406 72.039062 86.03125 C 71.699219 86.121094 71.375 86.25 71.070312 86.421875 C 70.765625 86.59375 70.484375 86.804688 70.230469 87.046875 C 69.980469 87.292969 69.761719 87.566406 69.582031 87.867188 L 41.351562 134.617188 C 40.972656 135.25 40.777344 135.933594 40.765625 136.671875 C 40.753906 137.410156 40.929688 138.097656 41.292969 138.742188 C 41.65625 139.382812 42.15625 139.890625 42.789062 140.261719 C 43.425781 140.636719 44.113281 140.820312 44.851562 140.820312 C 45.410156 140.820312 45.949219 140.707031 46.464844 140.488281 L 73.070312 128.976562 L 99.683594 140.488281 C 100.199219 140.707031 100.738281 140.820312 101.296875 140.820312 C 102.035156 140.824219 102.722656 140.636719 103.363281 140.265625 C 104 139.894531 104.5 139.386719 104.863281 138.746094 C 105.222656 138.101562 105.398438 137.410156 105.386719 136.671875 C 105.375 135.933594 105.179688 135.25 104.796875 134.617188 Z M 74.691406 120.773438 C 74.175781 120.550781 73.636719 120.4375 73.074219 120.4375 C 72.511719 120.4375 71.972656 120.550781 71.457031 120.773438 L 54.941406 127.917969 L 73.070312 97.878906 L 91.207031 127.917969 Z M 74.691406 120.773438 " fill-opacity="1" fill-rule="nonzero"/><path fill="#51459e" d="M 169.125 0.238281 L 50.382812 0.238281 C 48.84375 0.238281 47.308594 0.3125 45.777344 0.457031 C 44.246094 0.601562 42.722656 0.820312 41.210938 1.109375 C 39.699219 1.398438 38.203125 1.757812 36.726562 2.1875 C 35.25 2.617188 33.792969 3.117188 32.363281 3.683594 C 30.933594 4.253906 29.53125 4.886719 28.160156 5.585938 C 26.789062 6.285156 25.453125 7.050781 24.15625 7.875 C 22.855469 8.703125 21.601562 9.589844 20.382812 10.535156 C 19.167969 11.480469 18 12.480469 16.878906 13.535156 C 15.757812 14.589844 14.6875 15.695312 13.671875 16.851562 C 12.65625 18.011719 11.695312 19.210938 10.792969 20.460938 C 9.886719 21.707031 9.046875 22.992188 8.261719 24.320312 C 7.480469 25.648438 6.761719 27.007812 6.109375 28.402344 C 5.457031 29.800781 4.867188 31.222656 4.347656 32.671875 C 3.828125 34.121094 3.378906 35.59375 2.996094 37.085938 C 2.617188 38.578125 2.308594 40.085938 2.070312 41.609375 C 1.828125 43.132812 1.664062 44.660156 1.570312 46.199219 C 1.472656 47.738281 1.453125 49.277344 1.503906 50.816406 C 1.554688 52.355469 1.675781 53.890625 1.871094 55.417969 C 2.066406 56.949219 2.335938 58.464844 2.671875 59.964844 C 3.011719 61.46875 3.417969 62.953125 3.898438 64.417969 C 4.375 65.882812 4.921875 67.320312 5.535156 68.734375 C 6.148438 70.148438 6.828125 71.527344 7.574219 72.875 C 8.316406 74.226562 9.125 75.535156 9.992188 76.808594 C 10.859375 78.082031 11.785156 79.308594 12.769531 80.496094 C 13.75 81.679688 14.789062 82.816406 15.878906 83.902344 C 16.96875 84.992188 18.109375 86.023438 19.296875 87.003906 C 20.484375 87.984375 21.71875 88.90625 22.992188 89.765625 C 24.269531 90.628906 25.582031 91.429688 26.929688 92.171875 C 28.28125 92.910156 29.664062 93.582031 31.078125 94.191406 C 32.492188 94.800781 33.933594 95.339844 35.398438 95.8125 C 36.863281 96.285156 38.347656 96.6875 39.847656 97.019531 C 41.351562 97.351562 42.867188 97.609375 44.394531 97.800781 C 44.566406 97.820312 44.738281 97.832031 44.910156 97.832031 C 45.429688 97.828125 45.925781 97.726562 46.40625 97.53125 C 46.882812 97.335938 47.308594 97.058594 47.683594 96.699219 C 48.058594 96.34375 48.351562 95.929688 48.570312 95.457031 C 48.789062 94.988281 48.910156 94.496094 48.941406 93.976562 C 48.96875 93.460938 48.902344 92.957031 48.742188 92.464844 C 48.582031 91.972656 48.335938 91.527344 48.003906 91.128906 C 47.675781 90.730469 47.28125 90.40625 46.828125 90.15625 C 46.375 89.90625 45.894531 89.75 45.378906 89.683594 C 44.105469 89.527344 42.84375 89.3125 41.589844 89.035156 C 40.335938 88.761719 39.097656 88.425781 37.875 88.035156 C 36.65625 87.640625 35.453125 87.191406 34.273438 86.6875 C 33.09375 86.179688 31.941406 85.621094 30.816406 85.003906 C 29.6875 84.390625 28.59375 83.722656 27.53125 83.003906 C 26.46875 82.285156 25.441406 81.515625 24.449219 80.699219 C 23.457031 79.886719 22.507812 79.023438 21.597656 78.117188 C 20.6875 77.210938 19.820312 76.265625 19 75.277344 C 18.179688 74.289062 17.410156 73.265625 16.683594 72.207031 C 15.960938 71.144531 15.289062 70.050781 14.667969 68.929688 C 14.046875 67.804688 13.480469 66.652344 12.96875 65.472656 C 12.457031 64.296875 12 63.097656 11.601562 61.875 C 11.203125 60.65625 10.863281 59.417969 10.582031 58.164062 C 10.296875 56.910156 10.074219 55.648438 9.914062 54.375 C 9.75 53.097656 9.648438 51.820312 9.605469 50.535156 C 9.5625 49.253906 9.582031 47.96875 9.660156 46.6875 C 9.738281 45.40625 9.878906 44.128906 10.078125 42.859375 C 10.277344 41.589844 10.535156 40.335938 10.855469 39.089844 C 11.171875 37.84375 11.546875 36.617188 11.980469 35.410156 C 12.414062 34.199219 12.90625 33.015625 13.449219 31.851562 C 13.996094 30.6875 14.597656 29.554688 15.25 28.449219 C 15.902344 27.34375 16.605469 26.269531 17.359375 25.230469 C 18.113281 24.191406 18.914062 23.1875 19.761719 22.226562 C 20.609375 21.261719 21.503906 20.339844 22.4375 19.460938 C 23.375 18.582031 24.347656 17.75 25.363281 16.960938 C 26.378906 16.175781 27.425781 15.4375 28.511719 14.75 C 29.59375 14.0625 30.707031 13.425781 31.851562 12.84375 C 32.996094 12.261719 34.164062 11.734375 35.355469 11.261719 C 36.550781 10.789062 37.761719 10.375 38.996094 10.015625 C 40.226562 9.660156 41.476562 9.363281 42.734375 9.121094 C 43.996094 8.882812 45.265625 8.703125 46.542969 8.585938 C 47.820312 8.464844 49.101562 8.40625 50.382812 8.410156 L 169.125 8.410156 C 170.449219 8.425781 171.765625 8.507812 173.082031 8.652344 C 174.398438 8.796875 175.703125 9.007812 177 9.28125 C 178.292969 9.554688 179.574219 9.890625 180.835938 10.289062 C 182.097656 10.683594 183.339844 11.144531 184.558594 11.664062 C 185.773438 12.179688 186.964844 12.757812 188.125 13.394531 C 189.289062 14.027344 190.417969 14.71875 191.511719 15.464844 C 192.605469 16.207031 193.660156 17.003906 194.679688 17.851562 C 195.695312 18.699219 196.667969 19.597656 197.601562 20.539062 C 198.53125 21.480469 199.410156 22.46875 200.246094 23.496094 C 201.078125 24.527344 201.863281 25.59375 202.59375 26.699219 C 203.320312 27.804688 203.996094 28.941406 204.617188 30.113281 C 205.234375 31.285156 205.796875 32.484375 206.300781 33.710938 C 206.800781 34.933594 207.242188 36.183594 207.625 37.453125 C 208.007812 38.722656 208.324219 40.003906 208.582031 41.304688 C 208.835938 42.605469 209.03125 43.914062 209.15625 45.234375 C 209.285156 46.554688 209.351562 47.875 209.351562 49.199219 C 209.351562 50.527344 209.285156 51.847656 209.15625 53.167969 C 209.027344 54.484375 208.835938 55.792969 208.582031 57.09375 C 208.324219 58.394531 208.007812 59.679688 207.625 60.949219 C 207.242188 62.21875 206.800781 63.464844 206.300781 64.691406 C 205.796875 65.917969 205.234375 67.117188 204.617188 68.285156 C 203.996094 69.457031 203.320312 70.597656 202.59375 71.703125 C 201.863281 72.808594 201.078125 73.875 200.246094 74.902344 C 199.410156 75.933594 198.53125 76.917969 197.601562 77.859375 C 196.667969 78.804688 195.695312 79.699219 194.679688 80.546875 C 193.660156 81.394531 192.605469 82.191406 191.511719 82.9375 C 190.417969 83.683594 189.289062 84.371094 188.125 85.007812 C 186.964844 85.640625 185.773438 86.21875 184.558594 86.738281 C 183.339844 87.257812 182.097656 87.714844 180.835938 88.113281 C 179.574219 88.511719 178.292969 88.847656 177 89.121094 C 175.703125 89.394531 174.398438 89.601562 173.082031 89.746094 C 171.765625 89.894531 170.449219 89.976562 169.125 89.992188 L 99.382812 89.992188 C 99.113281 89.992188 98.847656 90.015625 98.585938 90.070312 C 98.324219 90.121094 98.066406 90.199219 97.820312 90.300781 C 97.570312 90.402344 97.335938 90.53125 97.113281 90.679688 C 96.890625 90.828125 96.683594 90.996094 96.492188 91.1875 C 96.304688 91.375 96.132812 91.582031 95.984375 91.804688 C 95.835938 92.027344 95.710938 92.265625 95.609375 92.511719 C 95.503906 92.761719 95.425781 93.015625 95.375 93.28125 C 95.324219 93.542969 95.296875 93.808594 95.296875 94.078125 C 95.296875 94.34375 95.324219 94.609375 95.375 94.875 C 95.425781 95.136719 95.503906 95.394531 95.609375 95.640625 C 95.710938 95.890625 95.835938 96.125 95.984375 96.347656 C 96.132812 96.570312 96.304688 96.777344 96.492188 96.96875 C 96.683594 97.15625 96.890625 97.328125 97.113281 97.476562 C 97.335938 97.625 97.570312 97.75 97.820312 97.851562 C 98.066406 97.953125 98.324219 98.03125 98.585938 98.085938 C 98.847656 98.136719 99.113281 98.164062 99.382812 98.160156 L 169.125 98.160156 C 170.726562 98.160156 172.324219 98.082031 173.917969 97.925781 C 175.511719 97.769531 177.09375 97.535156 178.664062 97.222656 C 180.238281 96.90625 181.789062 96.519531 183.320312 96.054688 C 184.855469 95.589844 186.359375 95.046875 187.839844 94.433594 C 189.320312 93.820312 190.765625 93.136719 192.179688 92.378906 C 193.59375 91.625 194.964844 90.800781 196.296875 89.910156 C 197.628906 89.019531 198.914062 88.066406 200.152344 87.046875 C 201.390625 86.03125 202.574219 84.953125 203.707031 83.820312 C 204.839844 82.6875 205.914062 81.5 206.933594 80.261719 C 207.949219 79.019531 208.902344 77.734375 209.792969 76.398438 C 210.679688 75.066406 211.503906 73.691406 212.257812 72.277344 C 213.015625 70.863281 213.699219 69.417969 214.3125 67.933594 C 214.925781 66.453125 215.464844 64.945312 215.929688 63.410156 C 216.394531 61.875 216.78125 60.324219 217.09375 58.75 C 217.40625 57.175781 217.640625 55.59375 217.796875 53.996094 C 217.957031 52.398438 218.035156 50.800781 218.035156 49.195312 C 218.035156 47.59375 217.957031 45.992188 217.796875 44.398438 C 217.640625 42.800781 217.40625 41.21875 217.09375 39.644531 C 216.78125 38.070312 216.394531 36.519531 215.929688 34.984375 C 215.464844 33.449219 214.925781 31.941406 214.3125 30.457031 C 213.699219 28.976562 213.015625 27.53125 212.257812 26.113281 C 211.503906 24.699219 210.679688 23.328125 209.792969 21.992188 C 208.902344 20.660156 207.949219 19.375 206.933594 18.132812 C 205.914062 16.894531 204.839844 15.707031 203.707031 14.574219 C 202.574219 13.441406 201.390625 12.363281 200.152344 11.347656 C 198.914062 10.328125 197.628906 9.375 196.296875 8.484375 C 194.964844 7.59375 193.59375 6.769531 192.179688 6.015625 C 190.765625 5.257812 189.320312 4.574219 187.839844 3.960938 C 186.359375 3.34375 184.855469 2.804688 183.320312 2.339844 C 181.789062 1.875 180.238281 1.484375 178.664062 1.171875 C 177.09375 0.859375 175.511719 0.625 173.917969 0.46875 C 172.324219 0.3125 170.726562 0.230469 169.125 0.230469 Z M 169.125 0.238281 " fill-opacity="1" fill-rule="nonzero"/><path fill="#51459e" d="M 169.644531 33.144531 C 170.171875 33.125 170.675781 33.003906 171.160156 32.789062 C 171.640625 32.570312 172.0625 32.273438 172.429688 31.890625 C 172.792969 31.511719 173.074219 31.074219 173.273438 30.585938 C 173.46875 30.09375 173.566406 29.585938 173.566406 29.058594 C 173.566406 28.53125 173.46875 28.019531 173.273438 27.53125 C 173.074219 27.039062 172.792969 26.605469 172.429688 26.222656 C 172.0625 25.84375 171.640625 25.542969 171.160156 25.328125 C 170.675781 25.109375 170.171875 24.992188 169.644531 24.96875 L 49.882812 24.96875 C 49.355469 24.992188 48.851562 25.109375 48.371094 25.328125 C 47.886719 25.542969 47.464844 25.84375 47.101562 26.222656 C 46.734375 26.605469 46.453125 27.039062 46.257812 27.53125 C 46.058594 28.019531 45.960938 28.53125 45.960938 29.058594 C 45.960938 29.585938 46.058594 30.09375 46.257812 30.585938 C 46.453125 31.074219 46.734375 31.511719 47.101562 31.890625 C 47.464844 32.273438 47.886719 32.570312 48.371094 32.789062 C 48.851562 33.003906 49.355469 33.125 49.882812 33.144531 Z M 169.644531 33.144531 " fill-opacity="1" fill-rule="nonzero"/><path fill="#51459e" d="M 25.910156 56.757812 C 25.910156 57.023438 25.933594 57.289062 25.988281 57.554688 C 26.039062 57.816406 26.117188 58.070312 26.21875 58.320312 C 26.324219 58.566406 26.449219 58.800781 26.597656 59.027344 C 26.746094 59.25 26.914062 59.457031 27.105469 59.644531 C 27.292969 59.835938 27.5 60.003906 27.722656 60.152344 C 27.945312 60.300781 28.179688 60.425781 28.429688 60.53125 C 28.675781 60.632812 28.929688 60.710938 29.195312 60.761719 C 29.457031 60.816406 29.722656 60.839844 29.988281 60.839844 L 189.519531 60.839844 C 189.785156 60.839844 190.050781 60.816406 190.316406 60.761719 C 190.578125 60.710938 190.832031 60.632812 191.082031 60.53125 C 191.328125 60.425781 191.5625 60.300781 191.785156 60.152344 C 192.007812 60.003906 192.214844 59.835938 192.402344 59.644531 C 192.59375 59.457031 192.761719 59.25 192.910156 59.027344 C 193.058594 58.800781 193.1875 58.566406 193.289062 58.320312 C 193.390625 58.070312 193.46875 57.816406 193.519531 57.554688 C 193.574219 57.289062 193.597656 57.023438 193.597656 56.757812 C 193.597656 56.488281 193.574219 56.222656 193.519531 55.960938 C 193.46875 55.695312 193.390625 55.441406 193.289062 55.191406 C 193.1875 54.945312 193.058594 54.710938 192.910156 54.488281 C 192.761719 54.265625 192.59375 54.058594 192.402344 53.867188 C 192.214844 53.679688 192.007812 53.507812 191.785156 53.359375 C 191.5625 53.210938 191.328125 53.085938 191.082031 52.980469 C 190.832031 52.878906 190.578125 52.800781 190.316406 52.75 C 190.050781 52.699219 189.785156 52.671875 189.519531 52.671875 L 29.988281 52.671875 C 29.722656 52.671875 29.457031 52.699219 29.195312 52.75 C 28.929688 52.800781 28.675781 52.878906 28.429688 52.980469 C 28.179688 53.085938 27.945312 53.210938 27.722656 53.359375 C 27.5 53.507812 27.292969 53.679688 27.105469 53.867188 C 26.914062 54.058594 26.746094 54.265625 26.597656 54.488281 C 26.449219 54.710938 26.324219 54.945312 26.21875 55.191406 C 26.117188 55.441406 26.039062 55.695312 25.988281 55.960938 C 25.933594 56.222656 25.910156 56.488281 25.910156 56.757812 Z M 25.910156 56.757812 " fill-opacity="1" fill-rule="nonzero"/></svg>