<svg xmlns="http://www.w3.org/2000/svg" xmlns:xlink="http://www.w3.org/1999/xlink" width="35" zoomAndPan="magnify" viewBox="0 0 230 200" height="35" preserveAspectRatio="xMidYMid meet" version="1.0"><defs><clipPath id="032eeb963b"><path d="M 0 0 L 219.75 0 L 219.75 213.75 L 0 213.75 Z M 0 0 " clip-rule="nonzero"/></clipPath></defs><g clip-path="url(#032eeb963b)"><path fill="#3c3b6e" d="M 198.089844 0 L 103.496094 0 C 90.40625 3.457031 82.417969 11.386719 81.523438 25.789062 C 81.613281 28.558594 81.703125 31.332031 81.792969 34.074219 C 81.792969 39.144531 81.761719 43.851562 81.792969 48.59375 C 81.792969 55.898438 81.730469 63.230469 81.761719 70.535156 L 21.601562 70.535156 C 20.316406 70.804688 19.0625 71.160156 17.828125 71.601562 C 16.597656 72.042969 15.398438 72.570312 14.242188 73.179688 C 13.082031 73.785156 11.96875 74.472656 10.90625 75.234375 C 9.839844 76 8.835938 76.832031 7.886719 77.734375 C 6.9375 78.636719 6.054688 79.601562 5.242188 80.625 C 4.425781 81.652344 3.6875 82.726562 3.019531 83.855469 C 2.355469 84.984375 1.769531 86.152344 1.265625 87.359375 C 0.765625 88.570312 0.347656 89.808594 0.015625 91.074219 L 0.015625 152.726562 C 0.367188 155.933594 1.433594 158.882812 3.207031 161.578125 C 4.472656 163.335938 5.964844 164.878906 7.679688 166.203125 C 9.394531 167.527344 11.261719 168.578125 13.28125 169.359375 C 17.238281 171.257812 21.414062 172.222656 25.804688 172.253906 L 32.691406 172.253906 L 32.691406 191.867188 C 32.867188 199.140625 33.078125 206.445312 33.257812 213.75 C 36.773438 210.410156 39.785156 207.488281 42.140625 205.195312 C 49.535156 197.949219 53.140625 194.253906 57.613281 189.484375 C 61.398438 185.488281 61.578125 185.25 63.367188 183.402344 C 71.535156 174.875 73.683594 173.863281 74.785156 173.414062 C 77.015625 172.464844 79.339844 172.035156 81.761719 172.132812 C 91.839844 172.519531 101.945312 172.3125 112.050781 172.253906 C 112.910156 172.289062 113.765625 172.28125 114.621094 172.230469 C 115.476562 172.175781 116.328125 172.078125 117.175781 171.9375 C 118.019531 171.796875 118.855469 171.613281 119.683594 171.386719 C 120.511719 171.160156 121.324219 170.890625 122.125 170.578125 C 122.921875 170.265625 123.703125 169.914062 124.464844 169.519531 C 125.226562 169.128906 125.96875 168.695312 126.6875 168.226562 C 127.402344 167.757812 128.09375 167.25 128.761719 166.707031 C 129.425781 166.167969 130.058594 165.59375 130.664062 164.984375 C 131.273438 164.378906 131.84375 163.738281 132.382812 163.074219 C 132.921875 162.40625 133.425781 161.714844 133.894531 160.992188 C 134.359375 160.273438 134.789062 159.53125 135.179688 158.769531 C 135.570312 158.003906 135.921875 157.222656 136.230469 156.421875 C 136.539062 155.625 136.804688 154.808594 137.03125 153.980469 C 137.253906 153.152344 137.4375 152.316406 137.574219 151.46875 C 137.710938 150.625 137.804688 149.773438 137.855469 148.914062 C 137.902344 148.058594 137.910156 147.203125 137.867188 146.347656 C 137.957031 137.28125 137.898438 128.191406 137.898438 119.128906 L 137.898438 104.640625 L 137.988281 101.597656 C 140.390625 101.503906 142.695312 101.929688 144.90625 102.878906 C 145.976562 103.328125 148.125 104.3125 156.292969 112.867188 C 158.082031 114.714844 158.289062 114.953125 162.046875 118.949219 C 166.546875 123.71875 170.15625 127.414062 177.550781 134.660156 C 179.875 136.953125 182.886719 139.875 186.433594 143.214844 C 186.613281 135.910156 186.792969 128.617188 186.96875 121.332031 L 186.96875 101.71875 L 193.886719 101.71875 C 198.265625 101.683594 202.429688 100.722656 206.378906 98.824219 C 208.398438 98.042969 210.265625 96.988281 211.980469 95.664062 C 213.695312 94.339844 215.1875 92.800781 216.453125 91.046875 C 218.242188 88.34375 219.3125 85.378906 219.675781 82.160156 L 219.675781 20.539062 C 219.34375 19.273438 218.925781 18.035156 218.421875 16.828125 C 217.914062 15.621094 217.332031 14.453125 216.664062 13.324219 C 216 12.199219 215.257812 11.121094 214.445312 10.097656 C 213.628906 9.070312 212.746094 8.109375 211.800781 7.207031 C 210.851562 6.304688 209.84375 5.46875 208.78125 4.707031 C 207.714844 3.945312 206.605469 3.257812 205.445312 2.648438 C 204.289062 2.039062 203.09375 1.511719 201.859375 1.070312 C 200.628906 0.625 199.371094 0.269531 198.089844 0 Z M 129.640625 146.347656 C 129.683594 146.933594 129.691406 147.523438 129.671875 148.113281 C 129.648438 148.703125 129.597656 149.289062 129.511719 149.875 C 129.429688 150.460938 129.3125 151.035156 129.167969 151.609375 C 129.019531 152.179688 128.84375 152.742188 128.636719 153.296875 C 128.433594 153.847656 128.195312 154.390625 127.933594 154.917969 C 127.667969 155.445312 127.375 155.957031 127.058594 156.453125 C 126.738281 156.949219 126.394531 157.429688 126.023438 157.890625 C 125.65625 158.347656 125.261719 158.789062 124.84375 159.207031 C 124.425781 159.625 123.988281 160.015625 123.53125 160.386719 C 123.070312 160.757812 122.59375 161.105469 122.097656 161.425781 C 121.601562 161.742188 121.089844 162.035156 120.5625 162.300781 C 120.035156 162.566406 119.492188 162.800781 118.941406 163.011719 C 118.386719 163.21875 117.824219 163.394531 117.253906 163.542969 C 116.683594 163.6875 116.105469 163.804688 115.519531 163.890625 C 114.9375 163.976562 114.347656 164.027344 113.757812 164.050781 C 113.167969 164.074219 112.582031 164.066406 111.992188 164.023438 C 100.335938 164.113281 88.707031 164.171875 77.050781 163.964844 C 76.207031 163.917969 75.371094 163.96875 74.539062 164.113281 C 73.707031 164.257812 72.902344 164.492188 72.121094 164.816406 C 71.34375 165.140625 70.609375 165.546875 69.921875 166.039062 C 69.234375 166.527344 68.609375 167.089844 68.046875 167.722656 C 63.753906 172.132812 58.984375 176.097656 55.050781 180.835938 C 50.605469 186.179688 45.714844 191.078125 40.382812 195.535156 C 40.472656 193.210938 40.800781 182.238281 40.949219 170.253906 C 41.046875 169.347656 40.960938 168.460938 40.691406 167.589844 C 40.421875 166.71875 39.992188 165.9375 39.398438 165.246094 C 38.753906 164.746094 38.039062 164.390625 37.253906 164.179688 C 36.46875 163.96875 35.671875 163.917969 34.867188 164.023438 C 31.796875 164.144531 28.695312 164.082031 25.625 164.023438 C 25.046875 164.046875 24.46875 164.042969 23.890625 164.003906 C 23.3125 163.96875 22.734375 163.902344 22.164062 163.804688 C 21.59375 163.707031 21.027344 163.582031 20.472656 163.425781 C 19.914062 163.273438 19.363281 163.089844 18.824219 162.875 C 18.285156 162.664062 17.757812 162.421875 17.246094 162.15625 C 16.730469 161.890625 16.234375 161.597656 15.75 161.277344 C 15.265625 160.957031 14.800781 160.613281 14.351562 160.246094 C 13.90625 159.878906 13.476562 159.488281 13.070312 159.078125 C 12.664062 158.664062 12.277344 158.234375 11.914062 157.78125 C 11.554688 157.328125 11.214844 156.859375 10.902344 156.371094 C 10.589844 155.882812 10.300781 155.382812 10.042969 154.867188 C 9.78125 154.347656 9.546875 153.820312 9.339844 153.277344 C 9.136719 152.734375 8.957031 152.183594 8.808594 151.625 C 8.660156 151.066406 8.542969 150.5 8.453125 149.925781 C 8.363281 149.355469 8.300781 148.777344 8.273438 148.199219 C 8.242188 147.621094 8.242188 147.042969 8.273438 146.464844 C 8.183594 129.890625 8.183594 113.292969 8.273438 96.679688 C 8.238281 96.101562 8.234375 95.519531 8.261719 94.941406 C 8.285156 94.359375 8.34375 93.785156 8.429688 93.210938 C 8.515625 92.636719 8.628906 92.070312 8.777344 91.507812 C 8.921875 90.945312 9.09375 90.390625 9.296875 89.847656 C 9.5 89.304688 9.730469 88.773438 9.988281 88.253906 C 10.246094 87.734375 10.53125 87.226562 10.839844 86.738281 C 11.152344 86.246094 11.488281 85.773438 11.847656 85.320312 C 12.207031 84.863281 12.589844 84.429688 12.992188 84.011719 C 13.398438 83.597656 13.824219 83.203125 14.269531 82.832031 C 14.714844 82.460938 15.179688 82.113281 15.664062 81.792969 C 16.144531 81.46875 16.640625 81.171875 17.15625 80.902344 C 17.667969 80.628906 18.195312 80.386719 18.730469 80.167969 C 19.269531 79.953125 19.820312 79.765625 20.375 79.605469 C 20.933594 79.445312 21.5 79.316406 22.070312 79.214844 C 22.644531 79.113281 23.21875 79.042969 23.796875 79.003906 C 24.375 78.960938 24.957031 78.953125 25.535156 78.972656 C 44.347656 78.882812 63.160156 78.851562 81.96875 78.882812 C 82.117188 80.964844 82.523438 82.996094 83.191406 84.976562 C 83.859375 86.953125 84.765625 88.816406 85.910156 90.5625 C 87.058594 92.308594 88.40625 93.882812 89.953125 95.28125 C 91.503906 96.679688 93.207031 97.863281 95.058594 98.824219 C 99.011719 100.78125 103.195312 101.746094 107.609375 101.71875 C 110.949219 101.746094 114.289062 101.777344 117.625 101.777344 C 121.621094 101.835938 125.644531 101.835938 129.640625 101.777344 C 129.730469 116.625 129.730469 131.480469 129.640625 146.347656 Z M 211.417969 75.929688 C 211.445312 76.507812 211.445312 77.089844 211.414062 77.667969 C 211.386719 78.246094 211.324219 78.820312 211.234375 79.394531 C 211.144531 79.96875 211.023438 80.535156 210.875 81.09375 C 210.726562 81.652344 210.546875 82.203125 210.339844 82.746094 C 210.132812 83.289062 209.898438 83.816406 209.636719 84.335938 C 209.375 84.851562 209.089844 85.355469 208.773438 85.84375 C 208.460938 86.328125 208.121094 86.800781 207.757812 87.25 C 207.394531 87.703125 207.011719 88.136719 206.601562 88.546875 C 206.195312 88.960938 205.765625 89.347656 205.320312 89.714844 C 204.871094 90.082031 204.402344 90.425781 203.921875 90.746094 C 203.4375 91.066406 202.9375 91.359375 202.421875 91.625 C 201.90625 91.890625 201.378906 92.132812 200.839844 92.34375 C 200.300781 92.554688 199.753906 92.738281 199.195312 92.894531 C 198.636719 93.050781 198.070312 93.175781 197.5 93.273438 C 196.925781 93.367188 196.351562 93.433594 195.773438 93.46875 C 195.195312 93.507812 194.617188 93.511719 194.035156 93.488281 C 190.964844 93.550781 187.863281 93.609375 184.792969 93.488281 C 183.992188 93.375 183.199219 93.421875 182.417969 93.632812 C 181.632812 93.847656 180.925781 94.207031 180.292969 94.710938 C 179.695312 95.402344 179.261719 96.183594 178.988281 97.054688 C 178.710938 97.921875 178.621094 98.8125 178.710938 99.71875 C 178.863281 111.703125 179.21875 122.644531 179.277344 125 C 173.953125 120.535156 169.0625 115.636719 164.609375 110.304688 C 160.707031 105.5625 155.90625 101.597656 151.640625 97.1875 C 151.078125 96.554688 150.453125 95.992188 149.761719 95.5 C 149.074219 95.011719 148.335938 94.601562 147.554688 94.277344 C 146.773438 93.953125 145.964844 93.71875 145.128906 93.574219 C 144.296875 93.433594 143.453125 93.382812 142.609375 93.429688 C 141.027344 93.460938 139.449219 93.488281 137.867188 93.488281 C 135.035156 93.519531 132.234375 93.550781 129.402344 93.550781 C 122.15625 93.578125 114.914062 93.519531 107.667969 93.488281 C 97.949219 93.398438 91.449219 87.914062 90.257812 78.882812 C 90.101562 77.863281 90.023438 76.839844 90.019531 75.8125 L 90.019531 70.535156 C 89.960938 55.6875 89.929688 40.84375 90.019531 25.996094 C 89.984375 25.417969 89.976562 24.835938 90 24.257812 C 90.027344 23.675781 90.082031 23.101562 90.167969 22.527344 C 90.25 21.953125 90.367188 21.382812 90.511719 20.820312 C 90.65625 20.261719 90.832031 19.707031 91.035156 19.164062 C 91.238281 18.621094 91.46875 18.089844 91.730469 17.570312 C 91.988281 17.050781 92.273438 16.546875 92.585938 16.054688 C 92.898438 15.566406 93.234375 15.09375 93.597656 14.640625 C 93.960938 14.1875 94.34375 13.753906 94.75 13.339844 C 95.160156 12.929688 95.585938 12.539062 96.035156 12.167969 C 96.484375 11.800781 96.953125 11.457031 97.4375 11.136719 C 97.921875 10.820312 98.421875 10.527344 98.9375 10.261719 C 99.453125 9.996094 99.980469 9.753906 100.523438 9.546875 C 101.0625 9.335938 101.613281 9.152344 102.175781 9 C 102.734375 8.847656 103.300781 8.722656 103.875 8.632812 C 104.445312 8.539062 105.023438 8.476562 105.601562 8.441406 C 106.179688 8.410156 106.761719 8.40625 107.339844 8.4375 C 136.257812 8.289062 165.195312 8.289062 194.15625 8.4375 C 194.734375 8.417969 195.316406 8.429688 195.894531 8.46875 C 196.472656 8.507812 197.046875 8.578125 197.617188 8.679688 C 198.191406 8.78125 198.753906 8.910156 199.3125 9.070312 C 199.871094 9.230469 200.417969 9.417969 200.957031 9.632812 C 201.496094 9.851562 202.023438 10.09375 202.535156 10.367188 C 203.046875 10.636719 203.546875 10.933594 204.027344 11.257812 C 204.511719 11.582031 204.972656 11.925781 205.421875 12.296875 C 205.867188 12.667969 206.292969 13.0625 206.695312 13.480469 C 207.101562 13.894531 207.484375 14.328125 207.84375 14.785156 C 208.203125 15.242188 208.539062 15.714844 208.847656 16.203125 C 209.160156 16.695312 209.445312 17.199219 209.703125 17.71875 C 209.960938 18.238281 210.191406 18.769531 210.394531 19.3125 C 210.597656 19.859375 210.769531 20.410156 210.914062 20.972656 C 211.058594 21.535156 211.175781 22.101562 211.261719 22.675781 C 211.347656 23.25 211.402344 23.828125 211.429688 24.40625 C 211.457031 24.984375 211.449219 25.566406 211.417969 26.144531 C 211.507812 42.75 211.507812 59.34375 211.417969 75.929688 Z M 193.585938 40.21875 L 109.101562 40.21875 C 108.808594 40.21875 108.519531 40.191406 108.230469 40.132812 C 107.941406 40.074219 107.664062 39.992188 107.390625 39.878906 C 107.121094 39.765625 106.863281 39.628906 106.617188 39.464844 C 106.375 39.300781 106.148438 39.117188 105.941406 38.910156 C 105.734375 38.703125 105.546875 38.476562 105.382812 38.230469 C 105.222656 37.988281 105.082031 37.730469 104.972656 37.457031 C 104.859375 37.1875 104.773438 36.90625 104.71875 36.621094 C 104.660156 36.332031 104.632812 36.039062 104.632812 35.746094 C 104.632812 35.453125 104.660156 35.164062 104.71875 34.875 C 104.773438 34.585938 104.859375 34.308594 104.972656 34.035156 C 105.082031 33.765625 105.222656 33.507812 105.382812 33.261719 C 105.546875 33.019531 105.734375 32.792969 105.941406 32.585938 C 106.148438 32.378906 106.375 32.191406 106.617188 32.027344 C 106.863281 31.867188 107.121094 31.726562 107.390625 31.617188 C 107.664062 31.503906 107.941406 31.417969 108.230469 31.363281 C 108.519531 31.304688 108.808594 31.277344 109.101562 31.277344 L 193.585938 31.277344 C 193.878906 31.277344 194.171875 31.304688 194.457031 31.363281 C 194.746094 31.417969 195.027344 31.503906 195.296875 31.617188 C 195.570312 31.726562 195.824219 31.867188 196.070312 32.027344 C 196.3125 32.191406 196.539062 32.378906 196.746094 32.585938 C 196.957031 32.792969 197.140625 33.019531 197.304688 33.261719 C 197.46875 33.507812 197.605469 33.765625 197.71875 34.035156 C 197.828125 34.308594 197.914062 34.585938 197.972656 34.875 C 198.027344 35.164062 198.058594 35.453125 198.058594 35.746094 C 198.058594 36.039062 198.027344 36.332031 197.972656 36.621094 C 197.914062 36.90625 197.828125 37.1875 197.71875 37.457031 C 197.605469 37.730469 197.46875 37.988281 197.304688 38.230469 C 197.140625 38.476562 196.957031 38.703125 196.746094 38.910156 C 196.539062 39.117188 196.3125 39.300781 196.070312 39.464844 C 195.824219 39.628906 195.570312 39.765625 195.296875 39.878906 C 195.027344 39.992188 194.746094 40.074219 194.457031 40.132812 C 194.171875 40.191406 193.878906 40.21875 193.585938 40.21875 Z M 163.414062 63.925781 L 111.691406 63.925781 C 111.398438 63.925781 111.105469 63.898438 110.816406 63.839844 C 110.53125 63.78125 110.25 63.695312 109.980469 63.585938 C 109.707031 63.472656 109.449219 63.335938 109.207031 63.171875 C 108.960938 63.007812 108.734375 62.824219 108.527344 62.617188 C 108.320312 62.40625 108.136719 62.183594 107.972656 61.9375 C 107.808594 61.695312 107.671875 61.4375 107.558594 61.164062 C 107.445312 60.894531 107.363281 60.613281 107.304688 60.324219 C 107.246094 60.039062 107.21875 59.746094 107.21875 59.453125 C 107.21875 59.160156 107.246094 58.867188 107.304688 58.582031 C 107.363281 58.292969 107.445312 58.011719 107.558594 57.742188 C 107.671875 57.472656 107.808594 57.214844 107.972656 56.96875 C 108.136719 56.726562 108.320312 56.5 108.527344 56.292969 C 108.734375 56.082031 108.960938 55.898438 109.207031 55.734375 C 109.449219 55.570312 109.707031 55.433594 109.980469 55.320312 C 110.25 55.210938 110.53125 55.125 110.816406 55.066406 C 111.105469 55.011719 111.398438 54.980469 111.691406 54.980469 L 163.414062 54.980469 C 163.707031 54.980469 163.996094 55.011719 164.285156 55.066406 C 164.574219 55.125 164.851562 55.210938 165.125 55.320312 C 165.394531 55.433594 165.652344 55.570312 165.898438 55.734375 C 166.140625 55.898438 166.367188 56.082031 166.574219 56.292969 C 166.78125 56.5 166.96875 56.726562 167.128906 56.96875 C 167.292969 57.214844 167.429688 57.472656 167.542969 57.742188 C 167.65625 58.011719 167.742188 58.292969 167.796875 58.582031 C 167.855469 58.867188 167.882812 59.160156 167.882812 59.453125 C 167.882812 59.746094 167.855469 60.039062 167.796875 60.324219 C 167.742188 60.613281 167.65625 60.894531 167.542969 61.164062 C 167.429688 61.4375 167.292969 61.695312 167.128906 61.9375 C 166.96875 62.183594 166.78125 62.40625 166.574219 62.617188 C 166.367188 62.824219 166.140625 63.007812 165.898438 63.171875 C 165.652344 63.335938 165.394531 63.472656 165.125 63.585938 C 164.851562 63.695312 164.574219 63.78125 164.285156 63.839844 C 163.996094 63.898438 163.707031 63.925781 163.414062 63.925781 Z M 110.570312 137.585938 L 26.085938 137.585938 C 25.792969 137.585938 25.503906 137.558594 25.214844 137.5 C 24.925781 137.445312 24.648438 137.359375 24.375 137.246094 C 24.105469 137.132812 23.847656 136.996094 23.601562 136.832031 C 23.359375 136.671875 23.132812 136.484375 22.925781 136.277344 C 22.71875 136.070312 22.53125 135.84375 22.367188 135.601562 C 22.207031 135.355469 22.066406 135.097656 21.957031 134.828125 C 21.84375 134.554688 21.757812 134.277344 21.699219 133.988281 C 21.644531 133.699219 21.613281 133.410156 21.613281 133.117188 C 21.613281 132.820312 21.644531 132.53125 21.699219 132.242188 C 21.757812 131.953125 21.84375 131.675781 21.957031 131.402344 C 22.066406 131.132812 22.207031 130.875 22.367188 130.632812 C 22.53125 130.386719 22.71875 130.160156 22.925781 129.953125 C 23.132812 129.746094 23.359375 129.558594 23.601562 129.398438 C 23.847656 129.234375 24.105469 129.097656 24.375 128.984375 C 24.648438 128.871094 24.925781 128.785156 25.214844 128.730469 C 25.503906 128.671875 25.792969 128.644531 26.085938 128.644531 L 110.570312 128.644531 C 110.863281 128.644531 111.152344 128.671875 111.441406 128.730469 C 111.730469 128.785156 112.007812 128.871094 112.28125 128.984375 C 112.550781 129.097656 112.808594 129.234375 113.054688 129.398438 C 113.296875 129.558594 113.523438 129.746094 113.730469 129.953125 C 113.9375 130.160156 114.125 130.386719 114.289062 130.632812 C 114.449219 130.875 114.589844 131.132812 114.699219 131.402344 C 114.8125 131.675781 114.898438 131.953125 114.957031 132.242188 C 115.011719 132.53125 115.042969 132.820312 115.042969 133.117188 C 115.042969 133.410156 115.011719 133.699219 114.957031 133.988281 C 114.898438 134.277344 114.8125 134.554688 114.699219 134.828125 C 114.589844 135.097656 114.449219 135.355469 114.289062 135.601562 C 114.125 135.84375 113.9375 136.070312 113.730469 136.277344 C 113.523438 136.484375 113.296875 136.671875 113.054688 136.832031 C 112.808594 136.996094 112.550781 137.132812 112.28125 137.246094 C 112.007812 137.359375 111.730469 137.445312 111.441406 137.5 C 111.152344 137.558594 110.863281 137.585938 110.570312 137.585938 Z M 26.449219 104.640625 L 78.167969 104.640625 C 78.464844 104.640625 78.753906 104.667969 79.042969 104.726562 C 79.328125 104.78125 79.609375 104.867188 79.878906 104.980469 C 80.152344 105.09375 80.410156 105.230469 80.652344 105.394531 C 80.898438 105.554688 81.125 105.742188 81.332031 105.949219 C 81.539062 106.15625 81.722656 106.382812 81.886719 106.625 C 82.050781 106.871094 82.1875 107.128906 82.300781 107.398438 C 82.414062 107.671875 82.496094 107.949219 82.554688 108.238281 C 82.613281 108.527344 82.640625 108.816406 82.640625 109.109375 C 82.640625 109.40625 82.613281 109.695312 82.554688 109.984375 C 82.496094 110.269531 82.414062 110.550781 82.300781 110.820312 C 82.1875 111.09375 82.050781 111.351562 81.886719 111.59375 C 81.722656 111.839844 81.539062 112.066406 81.332031 112.273438 C 81.125 112.480469 80.898438 112.664062 80.652344 112.828125 C 80.410156 112.992188 80.152344 113.128906 79.878906 113.242188 C 79.609375 113.355469 79.328125 113.4375 79.042969 113.496094 C 78.753906 113.554688 78.464844 113.582031 78.167969 113.582031 L 26.449219 113.582031 C 26.152344 113.582031 25.863281 113.554688 25.574219 113.496094 C 25.285156 113.4375 25.007812 113.355469 24.734375 113.242188 C 24.464844 113.128906 24.207031 112.992188 23.964844 112.828125 C 23.71875 112.664062 23.492188 112.480469 23.285156 112.273438 C 23.078125 112.066406 22.890625 111.839844 22.730469 111.59375 C 22.566406 111.351562 22.429688 111.09375 22.316406 110.820312 C 22.203125 110.550781 22.117188 110.269531 22.0625 109.984375 C 22.003906 109.695312 21.976562 109.40625 21.976562 109.109375 C 21.976562 108.816406 22.003906 108.527344 22.0625 108.238281 C 22.117188 107.949219 22.203125 107.671875 22.316406 107.398438 C 22.429688 107.128906 22.566406 106.871094 22.730469 106.625 C 22.890625 106.382812 23.078125 106.15625 23.285156 105.949219 C 23.492188 105.742188 23.71875 105.554688 23.964844 105.394531 C 24.207031 105.230469 24.464844 105.09375 24.734375 104.980469 C 25.007812 104.867188 25.285156 104.78125 25.574219 104.726562 C 25.863281 104.667969 26.152344 104.640625 26.449219 104.640625 Z M 26.449219 104.640625 " fill-opacity="1" fill-rule="nonzero"/></g></svg>