<svg xmlns="http://www.w3.org/2000/svg" xmlns:xlink="http://www.w3.org/1999/xlink" width="35" zoomAndPan="magnify" viewBox="0 0 220 130" height="35" preserveAspectRatio="xMidYMid meet" version="1.0"><defs><clipPath id="3b6d80a6d3"><path d="M 0 0 L 219.75 0 L 219.75 125.25 L 0 125.25 Z M 0 0 " clip-rule="nonzero"/></clipPath></defs><g clip-path="url(#3b6d80a6d3)"><path fill="#51459e" d="M 62.722656 120.007812 C 62.722656 122.84375 60.421875 125.148438 57.570312 125.148438 C 54.730469 125.148438 52.429688 122.851562 52.429688 120.007812 C 52.429688 106.097656 57.40625 93.332031 65.675781 83.402344 C 63.167969 80.15625 60.039062 77.414062 56.449219 75.378906 C 51.960938 72.832031 46.75 71.375 41.183594 71.375 C 32.652344 71.375 24.929688 74.820312 19.34375 80.394531 C 13.753906 85.96875 10.304688 93.675781 10.304688 102.1875 C 10.304688 105.019531 8.003906 107.328125 5.152344 107.328125 C 2.3125 107.328125 0 105.03125 0 102.1875 C 0 90.839844 4.613281 80.570312 12.066406 73.132812 C 15.433594 69.773438 19.394531 66.988281 23.769531 64.941406 C 23.25 64.496094 22.742188 64.03125 22.253906 63.546875 C 17.414062 58.714844 14.417969 52.035156 14.417969 44.660156 C 14.417969 37.285156 17.414062 30.601562 22.253906 25.773438 C 27.09375 20.941406 33.792969 17.953125 41.183594 17.953125 C 48.574219 17.953125 55.257812 20.941406 60.109375 25.773438 C 64.949219 30.601562 67.945312 37.285156 67.945312 44.660156 C 67.945312 52.035156 64.949219 58.703125 60.109375 63.546875 C 59.621094 64.03125 59.113281 64.496094 58.597656 64.941406 C 59.589844 65.40625 60.578125 65.914062 61.53125 66.460938 C 65.914062 68.953125 69.800781 72.222656 72.984375 76.082031 C 77.761719 72.078125 83.214844 68.839844 89.144531 66.546875 C 87.320312 65.28125 85.609375 63.867188 84.054688 62.304688 C 77.453125 55.714844 73.367188 46.605469 73.367188 36.550781 C 73.367188 26.496094 77.453125 17.382812 84.054688 10.796875 C 90.65625 4.207031 99.789062 0.132812 109.863281 0.132812 C 119.941406 0.132812 129.070312 4.207031 135.675781 10.796875 C 142.277344 17.382812 146.363281 26.496094 146.363281 36.550781 C 146.363281 46.605469 142.277344 55.714844 135.675781 62.304688 C 134.109375 63.867188 132.410156 65.28125 130.585938 66.546875 C 136.503906 68.832031 141.957031 72.078125 146.746094 76.082031 C 149.925781 72.222656 153.816406 68.953125 158.199219 66.460938 C 159.152344 65.914062 160.136719 65.40625 161.132812 64.941406 C 160.613281 64.496094 160.105469 64.03125 159.621094 63.546875 C 154.777344 58.714844 151.78125 52.035156 151.78125 44.660156 C 151.78125 37.285156 154.777344 30.601562 159.621094 25.773438 C 164.460938 20.941406 171.15625 17.953125 178.546875 17.953125 C 185.9375 17.953125 192.632812 20.941406 197.472656 25.773438 C 202.316406 30.601562 205.3125 37.285156 205.3125 44.660156 C 205.3125 52.035156 202.316406 58.703125 197.472656 63.546875 C 196.988281 64.03125 196.488281 64.496094 195.960938 64.941406 C 200.335938 66.980469 204.292969 69.773438 207.664062 73.132812 C 215.117188 80.570312 219.730469 90.839844 219.730469 102.1875 C 219.730469 105.019531 217.429688 107.328125 214.578125 107.328125 C 211.738281 107.328125 209.425781 105.03125 209.425781 102.1875 C 209.425781 93.675781 205.972656 85.96875 200.386719 80.394531 C 194.800781 74.820312 187.078125 71.375 178.546875 71.375 C 172.980469 71.375 167.765625 72.832031 163.277344 75.378906 C 159.691406 77.414062 156.5625 80.15625 154.054688 83.402344 C 162.324219 93.332031 167.300781 106.085938 167.300781 120.007812 C 167.300781 122.84375 165 125.148438 162.160156 125.148438 C 159.320312 125.148438 157.007812 122.851562 157.007812 120.007812 C 157.007812 107.027344 151.730469 95.269531 143.210938 86.765625 C 134.691406 78.265625 122.90625 73 109.894531 73 C 96.886719 73 85.101562 78.265625 76.582031 86.765625 C 68.058594 95.269531 62.785156 107.027344 62.785156 120.007812 Z M 29.53125 56.285156 C 32.507812 59.253906 36.621094 61.09375 41.171875 61.09375 C 45.722656 61.09375 49.835938 59.253906 52.8125 56.285156 C 55.789062 53.316406 57.632812 49.199219 57.632812 44.667969 C 57.632812 40.128906 55.789062 36.023438 52.8125 33.054688 C 49.835938 30.085938 45.710938 28.246094 41.171875 28.246094 C 36.621094 28.246094 32.507812 30.085938 29.53125 33.054688 C 26.554688 36.023438 24.710938 40.128906 24.710938 44.667969 C 24.710938 49.210938 26.554688 53.316406 29.53125 56.285156 Z M 178.515625 61.09375 C 183.066406 61.09375 187.179688 59.253906 190.15625 56.285156 C 193.132812 53.316406 194.976562 49.199219 194.976562 44.667969 C 194.976562 40.128906 193.132812 36.023438 190.15625 33.054688 C 187.179688 30.085938 183.066406 28.246094 178.515625 28.246094 C 173.964844 28.246094 169.851562 30.085938 166.875 33.054688 C 163.898438 36.023438 162.054688 40.128906 162.054688 44.667969 C 162.054688 49.210938 163.898438 53.316406 166.875 56.285156 C 169.851562 59.253906 173.976562 61.09375 178.515625 61.09375 Z M 109.84375 62.71875 C 117.078125 62.71875 123.628906 59.792969 128.378906 55.054688 C 133.113281 50.328125 136.058594 43.789062 136.058594 36.5625 C 136.058594 29.339844 133.125 22.804688 128.378906 18.066406 C 123.640625 13.339844 117.078125 10.414062 109.84375 10.414062 C 102.609375 10.414062 96.058594 13.339844 91.308594 18.066406 C 86.574219 22.792969 83.628906 29.339844 83.628906 36.5625 C 83.628906 43.78125 86.5625 50.316406 91.308594 55.054688 C 96.046875 59.78125 102.609375 62.71875 109.84375 62.71875 Z M 109.84375 62.71875 " fill-opacity="1" fill-rule="nonzero"/></g></svg>