<svg xmlns="http://www.w3.org/2000/svg" xmlns:xlink="http://www.w3.org/1999/xlink" zoomAndPan="magnify" viewBox="50 0 270 350" preserveAspectRatio="xMidYMid meet" version="1.0"><defs><clipPath id="ed62111bf9"><path d="M 81 81 L 311 81 L 311 310.5 L 81 310.5 Z M 81 81 " clip-rule="nonzero"/></clipPath></defs><path fill="#3c3b6e" d="M 181.113281 203.214844 C 204.75 203.214844 223.867188 184.117188 223.867188 160.507812 C 223.867188 136.898438 204.75 117.804688 181.113281 117.804688 C 157.480469 117.804688 138.363281 136.898438 138.363281 160.507812 C 138.363281 184.117188 157.480469 203.214844 181.113281 203.214844 Z M 181.113281 124.746094 C 200.925781 124.746094 216.914062 140.71875 216.914062 160.507812 C 216.914062 180.300781 200.925781 196.269531 181.113281 196.269531 C 161.300781 196.269531 145.3125 180.300781 145.3125 160.507812 C 145.3125 140.71875 161.300781 124.746094 181.113281 124.746094 Z M 181.113281 124.746094 " fill-opacity="1" fill-rule="nonzero"/><g clip-path="url(#ed62111bf9)"><path fill="#3c3b6e" d="M 297.554688 127.179688 C 287.824219 122.316406 275.65625 125.09375 269.054688 133.773438 C 251.675781 101.484375 217.957031 81 181.113281 81 C 126.195312 81 81.359375 125.789062 81.359375 180.648438 C 81.359375 235.15625 125.5 280.292969 181.113281 280.292969 C 190.847656 280.292969 200.578125 278.90625 209.617188 276.128906 L 205.097656 306.332031 C 204.75 307.722656 205.792969 309.109375 206.835938 309.804688 C 208.226562 310.5 209.964844 310.152344 211.007812 309.109375 L 255.84375 263.28125 C 256.191406 262.933594 256.191406 262.585938 256.539062 262.585938 C 298.945312 176.828125 304.507812 165.71875 308.332031 158.425781 C 313.890625 146.96875 310.066406 133.082031 297.554688 127.179688 Z M 252.023438 255.988281 L 240.550781 250.433594 L 281.21875 167.800781 L 292.6875 173.355469 Z M 234.296875 247.308594 L 222.824219 241.753906 L 263.839844 159.46875 L 275.308594 165.023438 Z M 181.113281 87.945312 C 216.914062 87.945312 249.589844 108.777344 264.882812 141.066406 C 262.101562 146.273438 234.296875 202.867188 227.34375 216.410156 C 217.957031 210.851562 207.183594 208.074219 196.0625 208.074219 L 166.167969 208.074219 C 142.878906 208.074219 121.679688 220.921875 111.25 241.40625 C 96.304688 224.742188 88.308594 203.214844 88.308594 180.648438 C 88.308594 129.609375 130.019531 87.945312 181.113281 87.945312 Z M 116.464844 246.960938 C 125.152344 227.519531 144.617188 215.019531 166.167969 215.019531 L 196.0625 215.019531 C 206.140625 215.019531 215.875 217.796875 224.214844 222.65625 L 214.832031 241.40625 C 214.832031 241.40625 214.484375 242.449219 214.484375 242.449219 L 210.660156 268.140625 C 178.683594 279.25 142.183594 271.960938 116.464844 246.960938 Z M 220.738281 248.351562 L 247.851562 261.542969 L 213.789062 296.613281 Z M 302.074219 154.953125 L 295.816406 167.453125 L 266.621094 152.871094 L 272.875 140.371094 C 276.699219 132.734375 286.085938 128.914062 294.773438 133.082031 C 302.769531 137.246094 306.246094 146.96875 302.074219 154.953125 Z M 302.074219 154.953125 " fill-opacity="1" fill-rule="nonzero"/></g></svg>