<svg xmlns="http://www.w3.org/2000/svg" xmlns:xlink="http://www.w3.org/1999/xlink" zoomAndPan="magnify" viewBox="0 0 230 230" preserveAspectRatio="xMidYMid meet" version="1.0"><defs><clipPath id="38a184ab61"><path d="M 0 0 L 218.25 0 L 218.25 218.25 L 0 218.25 Z M 0 0 " clip-rule="nonzero"/></clipPath></defs><rect x="-144" width="1728" fill="#ffffff" y="-80.999999" height="971.999992" fill-opacity="1"/><rect x="-144" width="1728" fill="#ffffff" y="-80.999999" height="971.999992" fill-opacity="1"/><g clip-path="url(#38a184ab61)"><path fill="#51459e" d="M 109.125 218.25 C 48.886719 218.25 0 169.363281 0 109.125 C 0 48.886719 48.886719 0 109.125 0 C 169.363281 0 218.25 48.886719 218.25 109.125 C 218.25 169.363281 169.363281 218.25 109.125 218.25 Z M 109.125 4.363281 C 51.507812 4.363281 4.363281 51.507812 4.363281 109.125 C 4.363281 166.742188 51.289062 213.886719 109.125 213.886719 C 166.960938 213.886719 213.886719 166.960938 213.886719 109.125 C 213.886719 51.289062 166.742188 4.363281 109.125 4.363281 Z M 109.125 4.363281 " fill-opacity="1" fill-rule="nonzero"/></g><path fill="#51459e" d="M 109.125 106.941406 C 108.90625 106.941406 108.90625 106.941406 108.6875 106.941406 L 36.011719 92.320312 C 34.921875 92.101562 34.265625 91.226562 34.265625 90.136719 C 34.265625 89.046875 34.921875 88.171875 36.011719 87.953125 L 108.6875 70.929688 C 109.125 70.929688 109.34375 70.929688 109.78125 70.929688 L 182.457031 87.953125 C 183.546875 88.171875 184.203125 89.046875 184.203125 90.136719 C 184.203125 91.226562 183.328125 92.101562 182.457031 92.320312 L 109.78125 106.941406 C 109.34375 106.941406 109.34375 106.941406 109.125 106.941406 Z M 46.921875 89.699219 L 109.125 102.359375 L 171.328125 89.699219 L 109.125 75.078125 Z M 46.921875 89.699219 " fill-opacity="1" fill-rule="nonzero"/><path fill="#51459e" d="M 111.308594 147.753906 C 110.433594 147.753906 109.78125 147.753906 108.90625 147.753906 C 91.445312 148.628906 63.730469 139.679688 61.984375 138.152344 L 61.328125 137.496094 L 61.328125 101.703125 L 109.125 111.308594 L 152.339844 101.703125 L 152.339844 137.496094 L 151.683594 138.152344 C 150.15625 139.242188 127.894531 147.753906 111.308594 147.753906 Z M 65.910156 134.878906 C 71.367188 137.0625 93.410156 143.828125 108.90625 143.171875 C 122.65625 143.828125 142.734375 137.0625 147.753906 134.878906 L 147.753906 107.378906 L 109.125 115.890625 L 65.910156 107.160156 Z M 65.910156 134.878906 " fill-opacity="1" fill-rule="nonzero"/><path fill="#51459e" d="M 163.6875 93.191406 C 163.6875 93.191406 108.90625 88.609375 108.90625 88.609375 C 107.597656 88.609375 106.722656 87.300781 106.722656 86.207031 C 106.722656 84.898438 108.035156 84.027344 109.125 84.027344 L 163.6875 88.609375 C 165.214844 88.828125 164.777344 93.191406 163.6875 93.191406 Z M 163.6875 93.191406 " fill-opacity="1" fill-rule="nonzero"/><path fill="#51459e" d="M 163.6875 125.058594 C 162.378906 125.058594 161.503906 123.964844 161.503906 122.875 L 161.503906 91.011719 C 161.503906 89.699219 162.597656 88.828125 163.6875 88.828125 C 164.777344 88.828125 165.871094 89.917969 165.871094 91.011719 L 165.871094 122.875 C 165.871094 123.964844 164.996094 125.058594 163.6875 125.058594 Z M 163.6875 125.058594 " fill-opacity="1" fill-rule="nonzero"/><path fill="#51459e" d="M 161.503906 127.238281 L 166.089844 127.238281 L 166.089844 136.40625 L 161.503906 136.40625 Z M 161.503906 127.238281 " fill-opacity="1" fill-rule="nonzero"/></svg>