<svg xmlns="http://www.w3.org/2000/svg" xmlns:xlink="http://www.w3.org/1999/xlink" width="35" zoomAndPan="magnify" viewBox="0 0 215 130" height="35" preserveAspectRatio="xMidYMid meet" version="1.0"><defs><clipPath id="caae82f2cb"><path d="M 1 0 L 217.5 0 L 217.5 141 L 1 141 Z M 1 0 " clip-rule="nonzero"/></clipPath></defs><g clip-path="url(#caae82f2cb)"><path fill="#51459e" d="M 134.125 0.320312 L 132.6875 0.320312 C 131.945312 0.324219 131.210938 0.394531 130.484375 0.53125 C 129.757812 0.671875 129.050781 0.875 128.359375 1.148438 C 127.671875 1.417969 127.015625 1.75 126.386719 2.144531 C 125.761719 2.539062 125.175781 2.988281 124.632812 3.492188 C 124.09375 3.996094 123.601562 4.546875 123.164062 5.144531 C 122.722656 5.738281 122.34375 6.371094 122.023438 7.035156 C 121.703125 7.703125 121.449219 8.394531 121.257812 9.109375 C 121.066406 9.824219 120.945312 10.550781 120.890625 11.289062 C 106.789062 17.542969 92.191406 22.265625 77.09375 25.453125 C 61.996094 28.640625 46.734375 30.226562 31.304688 30.207031 L 28.699219 30.207031 C 27.890625 30.207031 27.085938 30.242188 26.28125 30.3125 C 25.480469 30.386719 24.679688 30.492188 23.886719 30.636719 C 23.09375 30.777344 22.308594 30.957031 21.53125 31.171875 C 20.753906 31.382812 19.984375 31.632812 19.230469 31.914062 C 18.472656 32.195312 17.734375 32.511719 17.003906 32.859375 C 16.277344 33.207031 15.566406 33.585938 14.875 33.996094 C 14.179688 34.410156 13.507812 34.851562 12.855469 35.324219 C 12.199219 35.792969 11.570312 36.296875 10.960938 36.824219 C 10.351562 37.351562 9.765625 37.90625 9.207031 38.488281 C 8.648438 39.066406 8.117188 39.671875 7.613281 40.300781 C 7.105469 40.925781 6.628906 41.578125 6.183594 42.246094 C 5.738281 42.917969 5.320312 43.609375 4.9375 44.316406 C 4.550781 45.023438 4.199219 45.746094 3.878906 46.488281 C 3.558594 47.226562 3.273438 47.976562 3.019531 48.742188 C 2.765625 49.507812 2.546875 50.28125 2.363281 51.066406 C 2.179688 51.851562 2.035156 52.644531 1.921875 53.441406 C 1.808594 54.238281 1.730469 55.039062 1.691406 55.84375 C 1.652344 56.648438 1.648438 57.453125 1.679688 58.257812 C 1.710938 59.0625 1.777344 59.867188 1.878906 60.664062 C 1.984375 61.464844 2.121094 62.253906 2.296875 63.042969 C 2.472656 63.828125 2.679688 64.605469 2.925781 65.375 C 3.167969 66.140625 3.449219 66.898438 3.757812 67.640625 C 4.070312 68.382812 4.414062 69.109375 4.792969 69.824219 C 5.167969 70.535156 5.578125 71.226562 6.015625 71.902344 C 6.457031 72.578125 6.925781 73.234375 7.421875 73.867188 C 7.921875 74.503906 8.445312 75.113281 9 75.699219 C 9.550781 76.285156 10.128906 76.847656 10.730469 77.382812 C 11.335938 77.917969 11.960938 78.425781 12.609375 78.902344 C 13.257812 79.382812 13.925781 79.832031 14.613281 80.25 C 15.304688 80.671875 16.007812 81.058594 16.734375 81.414062 C 17.457031 81.769531 18.195312 82.09375 18.945312 82.382812 C 19.699219 82.675781 20.460938 82.929688 21.238281 83.152344 L 42.664062 134.058594 C 42.917969 134.660156 43.230469 135.230469 43.59375 135.769531 C 43.960938 136.308594 44.375 136.808594 44.839844 137.265625 C 45.304688 137.722656 45.808594 138.132812 46.351562 138.492188 C 46.894531 138.847656 47.46875 139.152344 48.074219 139.398438 C 48.679688 139.644531 49.300781 139.828125 49.941406 139.953125 C 50.582031 140.074219 51.226562 140.136719 51.878906 140.132812 C 52.53125 140.128906 53.179688 140.0625 53.816406 139.929688 C 54.457031 139.800781 55.078125 139.609375 55.679688 139.355469 C 56.28125 139.101562 56.851562 138.792969 57.390625 138.429688 C 57.929688 138.066406 58.429688 137.652344 58.890625 137.1875 C 59.347656 136.726562 59.757812 136.222656 60.117188 135.679688 C 60.476562 135.136719 60.78125 134.5625 61.027344 133.957031 C 61.273438 133.355469 61.460938 132.734375 61.585938 132.09375 C 61.707031 131.457031 61.769531 130.808594 61.765625 130.160156 C 61.761719 129.507812 61.695312 128.863281 61.566406 128.222656 C 61.4375 127.585938 61.246094 126.964844 60.992188 126.363281 L 50.402344 101.199219 C 51.273438 101.101562 52.128906 100.917969 52.964844 100.652344 C 53.800781 100.382812 54.601562 100.035156 55.371094 99.605469 C 56.136719 99.175781 56.855469 98.675781 57.519531 98.105469 C 58.1875 97.535156 58.789062 96.902344 59.332031 96.210938 C 59.871094 95.519531 60.335938 94.78125 60.730469 93.996094 C 61.121094 93.210938 61.433594 92.394531 61.664062 91.546875 C 61.890625 90.699219 62.035156 89.839844 62.089844 88.960938 C 62.148438 88.085938 62.117188 87.214844 62 86.34375 C 82.417969 89.1875 102.046875 94.789062 120.890625 103.140625 C 120.945312 103.878906 121.066406 104.605469 121.257812 105.320312 C 121.449219 106.035156 121.703125 106.726562 122.023438 107.390625 C 122.34375 108.058594 122.722656 108.691406 123.164062 109.285156 C 123.601562 109.882812 124.09375 110.433594 124.632812 110.9375 C 125.175781 111.441406 125.761719 111.890625 126.386719 112.285156 C 127.015625 112.679688 127.671875 113.011719 128.359375 113.28125 C 129.050781 113.554688 129.757812 113.757812 130.484375 113.898438 C 131.210938 114.035156 131.945312 114.105469 132.6875 114.105469 L 134.125 114.105469 C 134.902344 114.105469 135.671875 114.027344 136.433594 113.878906 C 137.195312 113.726562 137.9375 113.5 138.652344 113.203125 C 139.371094 112.90625 140.054688 112.542969 140.699219 112.109375 C 141.347656 111.679688 141.945312 111.1875 142.492188 110.640625 C 143.042969 110.089844 143.535156 109.496094 143.964844 108.847656 C 144.398438 108.203125 144.761719 107.523438 145.058594 106.804688 C 145.359375 106.089844 145.582031 105.351562 145.734375 104.589844 C 145.886719 103.828125 145.964844 103.058594 145.964844 102.285156 L 145.964844 12.148438 C 145.964844 11.371094 145.886719 10.601562 145.734375 9.839844 C 145.582031 9.078125 145.359375 8.339844 145.058594 7.625 C 144.761719 6.90625 144.398438 6.226562 143.964844 5.582031 C 143.535156 4.933594 143.042969 4.339844 142.492188 3.789062 C 141.945312 3.242188 141.347656 2.75 140.699219 2.320312 C 140.054688 1.886719 139.371094 1.523438 138.65625 1.226562 C 137.9375 0.929688 137.195312 0.703125 136.433594 0.550781 C 135.671875 0.398438 134.902344 0.324219 134.125 0.320312 Z M 82.925781 29.816406 C 95.933594 26.777344 108.574219 22.617188 120.847656 17.34375 L 120.847656 97.085938 C 108.574219 91.8125 95.933594 87.652344 82.925781 84.613281 Z M 77.402344 83.398438 C 74.769531 82.851562 72.125 82.367188 69.476562 81.917969 L 69.476562 32.511719 C 72.125 32.0625 74.769531 31.578125 77.402344 31.03125 Z M 7.183594 57.214844 C 7.183594 56.511719 7.21875 55.808594 7.289062 55.109375 C 7.359375 54.410156 7.460938 53.714844 7.601562 53.023438 C 7.738281 52.332031 7.910156 51.652344 8.113281 50.980469 C 8.320312 50.304688 8.558594 49.644531 8.828125 48.996094 C 9.097656 48.34375 9.398438 47.710938 9.730469 47.089844 C 10.0625 46.46875 10.425781 45.867188 10.816406 45.28125 C 11.207031 44.695312 11.625 44.132812 12.074219 43.589844 C 12.519531 43.042969 12.992188 42.523438 13.492188 42.027344 C 13.988281 41.527344 14.511719 41.058594 15.054688 40.609375 C 15.601562 40.164062 16.164062 39.746094 16.75 39.355469 C 17.335938 38.964844 17.9375 38.601562 18.558594 38.269531 C 19.179688 37.9375 19.816406 37.636719 20.46875 37.367188 C 21.117188 37.097656 21.78125 36.859375 22.453125 36.65625 C 23.128906 36.453125 23.8125 36.28125 24.503906 36.140625 C 25.191406 36.003906 25.890625 35.902344 26.589844 35.832031 C 27.289062 35.761719 27.992188 35.726562 28.699219 35.726562 L 31.304688 35.726562 C 42.242188 35.726562 53.125 34.945312 63.949219 33.378906 L 63.949219 81.046875 C 53.125 79.484375 42.242188 78.703125 31.304688 78.703125 L 28.699219 78.703125 C 27.992188 78.703125 27.289062 78.667969 26.589844 78.597656 C 25.890625 78.527344 25.191406 78.425781 24.503906 78.285156 C 23.8125 78.148438 23.128906 77.976562 22.453125 77.773438 C 21.78125 77.566406 21.117188 77.332031 20.46875 77.0625 C 19.816406 76.792969 19.179688 76.492188 18.558594 76.160156 C 17.9375 75.828125 17.335938 75.464844 16.75 75.074219 C 16.164062 74.683594 15.601562 74.265625 15.054688 73.816406 C 14.511719 73.371094 13.988281 72.898438 13.492188 72.402344 C 12.992188 71.90625 12.519531 71.382812 12.074219 70.839844 C 11.625 70.296875 11.207031 69.730469 10.816406 69.148438 C 10.425781 68.5625 10.0625 67.960938 9.730469 67.339844 C 9.398438 66.71875 9.097656 66.085938 8.828125 65.433594 C 8.558594 64.785156 8.320312 64.121094 8.113281 63.449219 C 7.910156 62.777344 7.738281 62.09375 7.601562 61.40625 C 7.460938 60.714844 7.359375 60.019531 7.289062 59.320312 C 7.21875 58.621094 7.183594 57.917969 7.183594 57.214844 Z M 53.539062 134.277344 C 53.273438 134.390625 52.996094 134.472656 52.714844 134.53125 C 52.429688 134.589844 52.144531 134.617188 51.851562 134.617188 C 51.5625 134.621094 51.277344 134.59375 50.992188 134.539062 C 50.707031 134.484375 50.429688 134.402344 50.164062 134.292969 C 49.894531 134.183594 49.640625 134.046875 49.398438 133.890625 C 49.15625 133.730469 48.933594 133.546875 48.726562 133.34375 C 48.519531 133.140625 48.335938 132.921875 48.171875 132.679688 C 48.011719 132.441406 47.871094 132.1875 47.757812 131.921875 L 27.660156 84.167969 C 28.007812 84.183594 28.347656 84.222656 28.699219 84.222656 L 31.304688 84.222656 C 33.304688 84.222656 35.300781 84.25 37.296875 84.300781 L 55.898438 128.503906 C 56.011719 128.769531 56.097656 129.042969 56.15625 129.328125 C 56.210938 129.613281 56.242188 129.898438 56.242188 130.1875 C 56.246094 130.476562 56.21875 130.765625 56.164062 131.046875 C 56.109375 131.332031 56.023438 131.609375 55.914062 131.875 C 55.804688 132.144531 55.671875 132.398438 55.511719 132.640625 C 55.351562 132.882812 55.171875 133.105469 54.964844 133.3125 C 54.761719 133.519531 54.542969 133.703125 54.300781 133.863281 C 54.0625 134.027344 53.808594 134.164062 53.539062 134.277344 Z M 54.890625 92.921875 C 54.488281 93.421875 54.027344 93.867188 53.511719 94.25 C 52.996094 94.632812 52.441406 94.945312 51.84375 95.1875 C 51.25 95.429688 50.632812 95.59375 49.992188 95.675781 C 49.355469 95.761719 48.71875 95.761719 48.078125 95.683594 L 43.390625 84.546875 C 47.667969 84.777344 51.925781 85.132812 56.160156 85.613281 C 56.378906 86.222656 56.515625 86.855469 56.570312 87.5 C 56.628906 88.148438 56.601562 88.792969 56.488281 89.433594 C 56.378906 90.074219 56.1875 90.691406 55.917969 91.28125 C 55.644531 91.871094 55.304688 92.417969 54.890625 92.921875 Z M 140.441406 102.285156 C 140.441406 102.699219 140.398438 103.105469 140.316406 103.511719 C 140.234375 103.917969 140.117188 104.3125 139.957031 104.695312 C 139.796875 105.078125 139.605469 105.441406 139.375 105.785156 C 139.144531 106.128906 138.882812 106.445312 138.589844 106.738281 C 138.296875 107.03125 137.976562 107.292969 137.632812 107.523438 C 137.289062 107.753906 136.921875 107.949219 136.539062 108.105469 C 136.15625 108.265625 135.761719 108.386719 135.355469 108.464844 C 134.949219 108.546875 134.539062 108.585938 134.125 108.589844 L 132.6875 108.589844 C 132.273438 108.589844 131.863281 108.546875 131.457031 108.464844 C 131.050781 108.386719 130.65625 108.265625 130.273438 108.105469 C 129.890625 107.949219 129.527344 107.753906 129.179688 107.523438 C 128.835938 107.292969 128.515625 107.03125 128.222656 106.738281 C 127.929688 106.445312 127.667969 106.128906 127.4375 105.785156 C 127.207031 105.441406 127.015625 105.078125 126.855469 104.695312 C 126.695312 104.3125 126.578125 103.917969 126.496094 103.511719 C 126.414062 103.105469 126.371094 102.695312 126.371094 102.285156 L 126.371094 12.148438 C 126.371094 11.734375 126.414062 11.324219 126.496094 10.917969 C 126.574219 10.511719 126.695312 10.117188 126.855469 9.734375 C 127.015625 9.351562 127.207031 8.988281 127.4375 8.644531 C 127.667969 8.300781 127.929688 7.980469 128.222656 7.691406 C 128.515625 7.398438 128.835938 7.136719 129.179688 6.90625 C 129.523438 6.675781 129.890625 6.480469 130.273438 6.324219 C 130.65625 6.164062 131.050781 6.042969 131.457031 5.960938 C 131.863281 5.882812 132.273438 5.839844 132.6875 5.839844 L 134.125 5.839844 C 134.539062 5.839844 134.949219 5.882812 135.355469 5.960938 C 135.761719 6.042969 136.160156 6.164062 136.542969 6.324219 C 136.925781 6.480469 137.289062 6.675781 137.632812 6.90625 C 137.976562 7.136719 138.296875 7.398438 138.589844 7.691406 C 138.882812 7.980469 139.144531 8.300781 139.375 8.644531 C 139.605469 8.988281 139.796875 9.351562 139.957031 9.734375 C 140.117188 10.117188 140.238281 10.511719 140.316406 10.917969 C 140.398438 11.324219 140.441406 11.734375 140.441406 12.148438 Z M 208.546875 48.640625 L 180.257812 48.640625 C 179.695312 48.640625 179.136719 48.695312 178.582031 48.804688 C 178.027344 48.914062 177.492188 49.074219 176.96875 49.289062 C 176.449219 49.503906 175.953125 49.769531 175.484375 50.082031 C 175.015625 50.394531 174.582031 50.75 174.183594 51.148438 C 173.78125 51.546875 173.425781 51.980469 173.113281 52.449219 C 172.796875 52.917969 172.535156 53.410156 172.316406 53.929688 C 172.101562 54.453125 171.9375 54.988281 171.828125 55.539062 C 171.71875 56.09375 171.664062 56.652344 171.664062 57.214844 C 171.664062 57.777344 171.71875 58.335938 171.828125 58.890625 C 171.9375 59.441406 172.101562 59.976562 172.316406 60.5 C 172.535156 61.019531 172.796875 61.511719 173.113281 61.980469 C 173.425781 62.449219 173.78125 62.882812 174.179688 63.28125 C 174.582031 63.679688 175.015625 64.035156 175.484375 64.347656 C 175.953125 64.660156 176.449219 64.925781 176.96875 65.140625 C 177.492188 65.355469 178.027344 65.515625 178.582031 65.625 C 179.136719 65.734375 179.695312 65.789062 180.257812 65.789062 L 208.546875 65.789062 C 209.113281 65.789062 209.671875 65.734375 210.222656 65.625 C 210.777344 65.515625 211.316406 65.355469 211.835938 65.140625 C 212.355469 64.921875 212.851562 64.660156 213.320312 64.347656 C 213.792969 64.035156 214.226562 63.679688 214.625 63.28125 C 215.023438 62.882812 215.378906 62.449219 215.695312 61.980469 C 216.007812 61.511719 216.273438 61.019531 216.488281 60.5 C 216.703125 59.976562 216.867188 59.441406 216.976562 58.890625 C 217.089844 58.335938 217.144531 57.777344 217.144531 57.214844 C 217.144531 56.652344 217.089844 56.09375 216.976562 55.539062 C 216.867188 54.988281 216.703125 54.453125 216.488281 53.929688 C 216.273438 53.410156 216.007812 52.917969 215.695312 52.449219 C 215.378906 51.980469 215.023438 51.546875 214.625 51.148438 C 214.226562 50.75 213.792969 50.394531 213.320312 50.082031 C 212.851562 49.769531 212.355469 49.503906 211.835938 49.289062 C 211.316406 49.074219 210.777344 48.914062 210.222656 48.804688 C 209.671875 48.695312 209.113281 48.640625 208.546875 48.640625 Z M 208.546875 60.269531 L 180.257812 60.269531 C 179.851562 60.269531 179.460938 60.195312 179.085938 60.039062 C 178.710938 59.886719 178.378906 59.664062 178.089844 59.378906 C 177.804688 59.089844 177.582031 58.761719 177.425781 58.386719 C 177.269531 58.011719 177.191406 57.621094 177.191406 57.214844 C 177.191406 56.808594 177.269531 56.417969 177.425781 56.042969 C 177.582031 55.667969 177.804688 55.339844 178.089844 55.050781 C 178.378906 54.765625 178.710938 54.542969 179.085938 54.390625 C 179.460938 54.234375 179.851562 54.160156 180.257812 54.160156 L 208.546875 54.160156 C 208.953125 54.160156 209.34375 54.234375 209.71875 54.390625 C 210.097656 54.542969 210.429688 54.765625 210.714844 55.050781 C 211.003906 55.339844 211.226562 55.667969 211.382812 56.042969 C 211.535156 56.417969 211.613281 56.808594 211.613281 57.214844 C 211.613281 57.621094 211.535156 58.011719 211.382812 58.386719 C 211.226562 58.761719 211.003906 59.089844 210.714844 59.378906 C 210.429688 59.664062 210.097656 59.886719 209.71875 60.039062 C 209.34375 60.195312 208.953125 60.269531 208.546875 60.269531 Z M 170.488281 33.226562 C 171.628906 33.230469 172.722656 33.011719 173.773438 32.578125 C 174.824219 32.144531 175.753906 31.523438 176.558594 30.722656 L 190.875 16.421875 C 191.273438 16.023438 191.628906 15.589844 191.941406 15.125 C 192.253906 14.65625 192.519531 14.160156 192.734375 13.640625 C 192.953125 13.121094 193.113281 12.585938 193.226562 12.03125 C 193.335938 11.480469 193.390625 10.921875 193.390625 10.359375 C 193.390625 9.796875 193.335938 9.238281 193.226562 8.6875 C 193.117188 8.132812 192.953125 7.597656 192.738281 7.078125 C 192.519531 6.558594 192.257812 6.0625 191.945312 5.59375 C 191.628906 5.125 191.273438 4.695312 190.875 4.296875 C 190.476562 3.898438 190.042969 3.542969 189.574219 3.230469 C 189.105469 2.917969 188.609375 2.652344 188.089844 2.4375 C 187.570312 2.222656 187.03125 2.058594 186.480469 1.949219 C 185.925781 1.839844 185.367188 1.785156 184.804688 1.785156 C 184.238281 1.785156 183.683594 1.839844 183.128906 1.949219 C 182.574219 2.058594 182.039062 2.222656 181.519531 2.4375 C 180.996094 2.65625 180.503906 2.917969 180.035156 3.230469 C 179.566406 3.546875 179.132812 3.902344 178.734375 4.300781 L 164.417969 18.597656 C 163.820312 19.195312 163.320312 19.871094 162.917969 20.617188 C 162.519531 21.363281 162.234375 22.152344 162.070312 22.984375 C 161.902344 23.816406 161.863281 24.65625 161.945312 25.5 C 162.027344 26.34375 162.230469 27.15625 162.558594 27.9375 C 162.882812 28.722656 163.3125 29.441406 163.851562 30.097656 C 164.390625 30.75 165.015625 31.316406 165.71875 31.785156 C 166.425781 32.257812 167.183594 32.613281 167.996094 32.859375 C 168.808594 33.105469 169.640625 33.226562 170.488281 33.226562 Z M 168.324219 22.5 L 182.640625 8.199219 C 182.925781 7.914062 183.257812 7.695312 183.632812 7.539062 C 184.007812 7.386719 184.398438 7.308594 184.800781 7.308594 C 185.207031 7.308594 185.597656 7.386719 185.972656 7.542969 C 186.347656 7.695312 186.675781 7.917969 186.964844 8.203125 C 187.25 8.488281 187.472656 8.820312 187.625 9.191406 C 187.78125 9.566406 187.859375 9.957031 187.859375 10.359375 C 187.859375 10.765625 187.78125 11.15625 187.628906 11.53125 C 187.472656 11.902344 187.253906 12.234375 186.96875 12.519531 L 172.652344 26.820312 C 172.363281 27.105469 172.035156 27.328125 171.660156 27.480469 C 171.285156 27.636719 170.894531 27.714844 170.488281 27.714844 C 170.082031 27.714844 169.691406 27.636719 169.316406 27.480469 C 168.941406 27.324219 168.613281 27.105469 168.324219 26.820312 C 168.039062 26.53125 167.816406 26.203125 167.664062 25.828125 C 167.507812 25.453125 167.429688 25.0625 167.429688 24.660156 C 167.429688 24.253906 167.507812 23.863281 167.664062 23.488281 C 167.816406 23.113281 168.039062 22.785156 168.324219 22.5 Z M 176.558594 83.710938 C 176.160156 83.3125 175.726562 82.957031 175.257812 82.644531 C 174.789062 82.332031 174.292969 82.066406 173.773438 81.851562 C 173.253906 81.636719 172.714844 81.472656 172.164062 81.363281 C 171.609375 81.253906 171.050781 81.199219 170.488281 81.199219 C 169.925781 81.199219 169.367188 81.253906 168.8125 81.363281 C 168.261719 81.472656 167.726562 81.636719 167.203125 81.851562 C 166.683594 82.066406 166.1875 82.332031 165.71875 82.644531 C 165.25 82.957031 164.816406 83.3125 164.417969 83.710938 C 164.019531 84.109375 163.664062 84.539062 163.351562 85.007812 C 163.039062 85.476562 162.773438 85.972656 162.558594 86.492188 C 162.34375 87.011719 162.179688 87.546875 162.070312 88.097656 C 161.960938 88.652344 161.90625 89.207031 161.90625 89.769531 C 161.90625 90.335938 161.960938 90.890625 162.070312 91.445312 C 162.179688 91.996094 162.34375 92.53125 162.558594 93.050781 C 162.773438 93.570312 163.039062 94.066406 163.351562 94.535156 C 163.664062 95 164.019531 95.433594 164.417969 95.832031 L 178.734375 110.132812 C 179.132812 110.53125 179.566406 110.886719 180.035156 111.199219 C 180.503906 111.511719 180.996094 111.773438 181.519531 111.988281 C 182.039062 112.207031 182.574219 112.367188 183.128906 112.476562 C 183.683594 112.585938 184.238281 112.640625 184.804688 112.640625 C 185.367188 112.640625 185.925781 112.585938 186.476562 112.476562 C 187.03125 112.367188 187.566406 112.207031 188.089844 111.988281 C 188.609375 111.773438 189.105469 111.511719 189.574219 111.199219 C 190.042969 110.886719 190.476562 110.53125 190.875 110.132812 C 191.273438 109.734375 191.628906 109.300781 191.941406 108.832031 C 192.253906 108.363281 192.519531 107.871094 192.734375 107.351562 C 192.949219 106.828125 193.113281 106.292969 193.222656 105.742188 C 193.332031 105.1875 193.386719 104.632812 193.386719 104.070312 C 193.386719 103.507812 193.332031 102.949219 193.222656 102.394531 C 193.113281 101.84375 192.949219 101.308594 192.734375 100.789062 C 192.519531 100.269531 192.253906 99.773438 191.941406 99.304688 C 191.628906 98.835938 191.273438 98.40625 190.875 98.007812 Z M 186.96875 106.230469 C 186.679688 106.515625 186.347656 106.738281 185.972656 106.890625 C 185.601562 107.046875 185.210938 107.125 184.804688 107.125 C 184.398438 107.125 184.007812 107.046875 183.632812 106.890625 C 183.257812 106.738281 182.925781 106.515625 182.640625 106.230469 L 168.324219 91.929688 C 168.039062 91.644531 167.820312 91.3125 167.664062 90.941406 C 167.511719 90.566406 167.433594 90.175781 167.433594 89.773438 C 167.433594 89.367188 167.511719 88.980469 167.667969 88.605469 C 167.824219 88.230469 168.042969 87.902344 168.328125 87.613281 C 168.617188 87.328125 168.945312 87.109375 169.320312 86.953125 C 169.695312 86.796875 170.085938 86.722656 170.488281 86.71875 C 170.894531 86.71875 171.285156 86.796875 171.660156 86.953125 C 172.035156 87.105469 172.363281 87.324219 172.652344 87.609375 L 186.96875 101.90625 C 187.253906 102.195312 187.472656 102.527344 187.628906 102.898438 C 187.785156 103.273438 187.863281 103.664062 187.863281 104.070312 C 187.863281 104.472656 187.785156 104.863281 187.628906 105.238281 C 187.472656 105.613281 187.253906 105.941406 186.96875 106.230469 Z M 186.96875 106.230469 " fill-opacity="1" fill-rule="nonzero"/></g></svg>