<svg xmlns="http://www.w3.org/2000/svg" xmlns:xlink="http://www.w3.org/1999/xlink" zoomAndPan="magnify" viewBox="0 0 230 230" preserveAspectRatio="xMidYMid meet" version="1.0"><rect x="-144" width="1728" fill="#ffffff" y="-80.999999" height="971.999992" fill-opacity="1"/><rect x="-144" width="1728" fill="#ffffff" y="-80.999999" height="971.999992" fill-opacity="1"/><path fill="#51459e" d="M 130.824219 88.800781 C 131.621094 88.429688 132.40625 88.039062 133.179688 87.625 C 133.957031 87.210938 134.71875 86.773438 135.46875 86.316406 C 136.21875 85.859375 136.953125 85.382812 137.679688 84.882812 C 138.402344 84.382812 139.109375 83.867188 139.804688 83.328125 C 140.496094 82.789062 141.175781 82.230469 141.835938 81.65625 C 142.5 81.078125 143.144531 80.484375 143.773438 79.871094 C 144.402344 79.257812 145.011719 78.628906 145.605469 77.980469 C 146.199219 77.335938 146.773438 76.671875 147.328125 75.992188 C 147.886719 75.3125 148.421875 74.617188 148.9375 73.910156 C 149.453125 73.199219 149.949219 72.476562 150.425781 71.738281 C 150.898438 71 151.355469 70.25 151.785156 69.488281 C 152.21875 68.726562 152.628906 67.949219 153.019531 67.164062 C 153.410156 66.378906 153.777344 65.582031 154.121094 64.777344 C 154.464844 63.96875 154.785156 63.152344 155.082031 62.328125 C 155.378906 61.503906 155.65625 60.671875 155.90625 59.832031 C 156.15625 58.992188 156.382812 58.144531 156.585938 57.292969 C 156.789062 56.441406 156.96875 55.582031 157.121094 54.71875 C 157.277344 53.855469 157.40625 52.988281 157.511719 52.121094 C 157.617188 51.25 157.699219 50.378906 157.753906 49.503906 C 157.8125 48.628906 157.84375 47.753906 157.847656 46.875 C 157.855469 46 157.839844 45.125 157.796875 44.246094 C 157.753906 43.371094 157.683594 42.5 157.59375 41.625 C 157.5 40.753906 157.382812 39.886719 157.242188 39.023438 C 157.101562 38.15625 156.933594 37.296875 156.742188 36.441406 C 156.554688 35.585938 156.339844 34.734375 156.101562 33.890625 C 155.863281 33.046875 155.601562 32.210938 155.316406 31.382812 C 155.03125 30.554688 154.722656 29.734375 154.390625 28.921875 C 154.058594 28.109375 153.703125 27.308594 153.328125 26.515625 C 152.949219 25.722656 152.550781 24.945312 152.128906 24.175781 C 151.707031 23.40625 151.265625 22.648438 150.800781 21.902344 C 150.335938 21.160156 149.851562 20.429688 149.347656 19.710938 C 148.839844 18.996094 148.316406 18.292969 147.769531 17.605469 C 147.226562 16.917969 146.660156 16.246094 146.078125 15.589844 C 145.496094 14.933594 144.894531 14.292969 144.273438 13.671875 C 143.65625 13.050781 143.019531 12.445312 142.363281 11.859375 C 141.710938 11.273438 141.042969 10.707031 140.355469 10.15625 C 139.671875 9.609375 138.96875 9.078125 138.253906 8.570312 C 137.539062 8.058594 136.808594 7.570312 136.066406 7.101562 C 135.324219 6.636719 134.566406 6.1875 133.796875 5.761719 C 133.03125 5.335938 132.25 4.933594 131.460938 4.550781 C 130.667969 4.167969 129.867188 3.808594 129.054688 3.472656 C 128.242188 3.136719 127.421875 2.820312 126.59375 2.53125 C 125.765625 2.238281 124.925781 1.972656 124.082031 1.726562 C 123.238281 1.484375 122.386719 1.265625 121.53125 1.070312 C 120.671875 0.871094 119.8125 0.699219 118.945312 0.554688 C 118.078125 0.40625 117.207031 0.28125 116.335938 0.183594 C 115.460938 0.0859375 114.585938 0.0117188 113.707031 -0.0390625 C 112.828125 -0.0859375 111.953125 -0.113281 111.070312 -0.113281 C 110.191406 -0.113281 109.3125 -0.0859375 108.4375 -0.0390625 C 107.558594 0.0117188 106.683594 0.0859375 105.808594 0.183594 C 104.9375 0.28125 104.066406 0.40625 103.199219 0.554688 C 102.332031 0.699219 101.472656 0.871094 100.613281 1.070312 C 99.757812 1.265625 98.90625 1.484375 98.0625 1.726562 C 97.21875 1.972656 96.378906 2.238281 95.550781 2.53125 C 94.722656 2.820312 93.902344 3.136719 93.089844 3.472656 C 92.277344 3.808594 91.476562 4.167969 90.683594 4.550781 C 89.894531 4.933594 89.113281 5.335938 88.34375 5.761719 C 87.578125 6.1875 86.820312 6.636719 86.078125 7.101562 C 85.335938 7.570312 84.605469 8.058594 83.890625 8.570312 C 83.175781 9.078125 82.472656 9.609375 81.789062 10.15625 C 81.101562 10.707031 80.433594 11.273438 79.78125 11.859375 C 79.125 12.445312 78.488281 13.050781 77.871094 13.671875 C 77.25 14.292969 76.648438 14.933594 76.066406 15.589844 C 75.484375 16.246094 74.917969 16.917969 74.375 17.605469 C 73.828125 18.292969 73.304688 18.996094 72.796875 19.710938 C 72.292969 20.429688 71.808594 21.160156 71.34375 21.902344 C 70.878906 22.648438 70.4375 23.40625 70.015625 24.175781 C 69.59375 24.945312 69.195312 25.722656 68.816406 26.515625 C 68.441406 27.308594 68.085938 28.109375 67.753906 28.921875 C 67.421875 29.734375 67.113281 30.554688 66.828125 31.382812 C 66.542969 32.210938 66.28125 33.046875 66.042969 33.890625 C 65.804688 34.734375 65.589844 35.585938 65.398438 36.441406 C 65.210938 37.296875 65.042969 38.15625 64.902344 39.023438 C 64.761719 39.886719 64.644531 40.753906 64.550781 41.625 C 64.460938 42.5 64.390625 43.371094 64.347656 44.246094 C 64.304688 45.125 64.289062 46 64.292969 46.875 C 64.300781 47.753906 64.332031 48.628906 64.390625 49.503906 C 64.445312 50.378906 64.527344 51.25 64.632812 52.121094 C 64.738281 52.988281 64.867188 53.855469 65.019531 54.71875 C 65.175781 55.582031 65.355469 56.441406 65.558594 57.292969 C 65.761719 58.144531 65.988281 58.992188 66.238281 59.832031 C 66.488281 60.671875 66.761719 61.503906 67.0625 62.328125 C 67.359375 63.152344 67.679688 63.96875 68.023438 64.777344 C 68.367188 65.582031 68.734375 66.378906 69.125 67.164062 C 69.511719 67.949219 69.925781 68.726562 70.355469 69.488281 C 70.789062 70.25 71.246094 71 71.71875 71.738281 C 72.195312 72.476562 72.691406 73.199219 73.207031 73.910156 C 73.722656 74.617188 74.257812 75.3125 74.816406 75.992188 C 75.371094 76.671875 75.945312 77.335938 76.539062 77.980469 C 77.128906 78.628906 77.742188 79.257812 78.371094 79.871094 C 79 80.484375 79.644531 81.078125 80.304688 81.65625 C 80.96875 82.230469 81.648438 82.789062 82.339844 83.328125 C 83.035156 83.867188 83.742188 84.382812 84.464844 84.882812 C 85.1875 85.382812 85.925781 85.859375 86.675781 86.316406 C 87.425781 86.773438 88.1875 87.210938 88.964844 87.625 C 89.738281 88.039062 90.523438 88.429688 91.320312 88.800781 C 83.886719 91.082031 77.046875 94.535156 70.804688 99.164062 C 64.644531 96.320312 58.171875 94.902344 51.382812 94.910156 C 49.046875 94.90625 46.726562 95.078125 44.414062 95.425781 C 42.105469 95.769531 39.835938 96.285156 37.605469 96.96875 C 35.375 97.652344 33.207031 98.496094 31.101562 99.503906 C 28.996094 100.511719 26.976562 101.671875 25.046875 102.980469 C 23.117188 104.289062 21.292969 105.734375 19.582031 107.3125 C 17.867188 108.894531 16.28125 110.59375 14.824219 112.410156 C 13.363281 114.230469 12.050781 116.144531 10.878906 118.160156 C 9.707031 120.171875 8.695312 122.261719 7.835938 124.425781 C 6.980469 126.59375 6.289062 128.808594 5.765625 131.078125 C 5.242188 133.347656 4.890625 135.640625 4.710938 137.960938 C 4.53125 140.28125 4.527344 142.601562 4.695312 144.925781 C 4.863281 147.246094 5.207031 149.542969 5.71875 151.8125 C 6.234375 154.082031 6.914062 156.304688 7.761719 158.472656 C 8.609375 160.640625 9.613281 162.734375 10.777344 164.753906 C 11.9375 166.773438 13.242188 168.695312 14.695312 170.519531 C 16.144531 172.34375 17.722656 174.046875 19.429688 175.636719 L 19.429688 218.183594 C 19.433594 218.835938 19.601562 219.449219 19.933594 220.011719 C 20.265625 220.578125 20.71875 221.023438 21.289062 221.34375 C 21.851562 221.722656 22.472656 221.902344 23.148438 221.890625 C 23.796875 221.886719 24.398438 221.726562 24.957031 221.398438 L 51.382812 206.617188 L 77.808594 221.398438 C 78.363281 221.734375 78.964844 221.898438 79.613281 221.890625 C 80.289062 221.898438 80.910156 221.714844 81.472656 221.34375 C 82.039062 221.019531 82.484375 220.574219 82.804688 220.007812 C 83.128906 219.441406 83.285156 218.832031 83.277344 218.183594 L 83.277344 175.636719 C 83.914062 175.042969 84.535156 174.433594 85.140625 173.804688 C 85.742188 173.179688 86.328125 172.535156 86.894531 171.875 C 87.460938 171.214844 88.007812 170.539062 88.539062 169.847656 C 89.066406 169.160156 89.574219 168.453125 90.066406 167.734375 C 90.554688 167.015625 91.023438 166.285156 91.472656 165.539062 C 91.921875 164.792969 92.347656 164.035156 92.753906 163.265625 C 93.160156 162.5 93.542969 161.71875 93.90625 160.929688 C 94.265625 160.136719 94.605469 159.339844 94.925781 158.527344 C 95.242188 157.71875 95.535156 156.902344 95.808594 156.074219 C 96.078125 155.25 96.324219 154.417969 96.550781 153.578125 C 96.773438 152.738281 96.976562 151.894531 97.152344 151.042969 C 97.332031 150.191406 97.484375 149.335938 97.613281 148.476562 C 97.742188 147.617188 97.847656 146.753906 97.925781 145.890625 C 98.007812 145.023438 98.0625 144.160156 98.097656 143.289062 C 98.128906 142.421875 98.136719 141.554688 98.121094 140.683594 C 98.101562 139.816406 98.0625 138.949219 97.996094 138.082031 C 97.929688 137.214844 97.839844 136.351562 97.726562 135.488281 C 97.613281 134.628906 97.476562 133.769531 97.3125 132.917969 C 97.152344 132.0625 96.964844 131.214844 96.753906 130.371094 C 96.546875 129.527344 96.3125 128.691406 96.054688 127.859375 C 95.800781 127.03125 95.519531 126.207031 95.21875 125.390625 C 94.914062 124.578125 94.589844 123.773438 94.242188 122.976562 C 93.894531 122.179688 93.523438 121.390625 93.128906 120.617188 C 92.738281 119.839844 92.324219 119.074219 91.890625 118.324219 C 91.453125 117.570312 91 116.828125 90.523438 116.101562 C 90.046875 115.375 89.546875 114.660156 89.03125 113.960938 C 88.515625 113.261719 87.980469 112.578125 87.425781 111.90625 C 86.867188 111.238281 86.296875 110.582031 85.703125 109.945312 C 85.113281 109.308594 84.503906 108.6875 83.875 108.082031 C 83.25 107.480469 82.605469 106.894531 81.945312 106.324219 C 81.285156 105.757812 80.613281 105.207031 79.921875 104.675781 C 79.230469 104.148438 78.527344 103.636719 77.808594 103.144531 C 82.71875 99.898438 88 97.429688 93.648438 95.75 C 99.296875 94.066406 105.066406 93.242188 110.960938 93.273438 C 112.859375 93.269531 114.753906 93.355469 116.644531 93.53125 C 118.535156 93.707031 120.410156 93.96875 122.277344 94.320312 C 124.140625 94.675781 125.984375 95.113281 127.808594 95.640625 C 129.628906 96.164062 131.425781 96.777344 133.191406 97.472656 C 134.953125 98.167969 136.683594 98.945312 138.375 99.800781 C 140.066406 100.660156 141.710938 101.597656 143.316406 102.609375 C 144.917969 103.625 146.46875 104.710938 147.96875 105.871094 C 149.46875 107.03125 150.910156 108.257812 152.292969 109.554688 C 153.675781 110.851562 154.992188 112.210938 156.246094 113.628906 C 157.5 115.050781 158.683594 116.527344 159.796875 118.058594 C 160.910156 119.589844 161.949219 121.171875 162.914062 122.800781 C 163.878906 124.429688 164.761719 126.101562 165.570312 127.816406 C 166.375 129.527344 167.097656 131.277344 167.734375 133.058594 C 168.375 134.839844 168.929688 136.648438 169.398438 138.480469 C 169.863281 140.3125 170.246094 142.164062 170.535156 144.035156 C 170.828125 145.90625 171.03125 147.785156 171.144531 149.671875 L 117.308594 149.671875 C 116.816406 149.671875 116.339844 149.765625 115.886719 149.953125 C 115.429688 150.144531 115.027344 150.410156 114.679688 150.757812 C 114.328125 151.105469 114.0625 151.507812 113.871094 151.960938 C 113.683594 152.417969 113.589844 152.890625 113.589844 153.382812 C 113.589844 153.875 113.683594 154.347656 113.871094 154.800781 C 114.0625 155.253906 114.328125 155.65625 114.679688 156.003906 C 115.027344 156.351562 115.429688 156.621094 115.886719 156.808594 C 116.339844 156.996094 116.816406 157.089844 117.308594 157.089844 L 175.085938 157.089844 C 175.578125 157.082031 176.046875 156.984375 176.5 156.792969 C 176.953125 156.605469 177.351562 156.335938 177.699219 155.988281 C 178.046875 155.644531 178.316406 155.242188 178.507812 154.792969 C 178.699219 154.34375 178.796875 153.871094 178.804688 153.382812 C 178.804688 151.589844 178.730469 149.796875 178.582031 148.007812 C 178.4375 146.222656 178.222656 144.441406 177.933594 142.671875 C 177.648438 140.898438 177.289062 139.144531 176.863281 137.402344 C 176.433594 135.660156 175.9375 133.9375 175.375 132.234375 C 174.808594 130.53125 174.175781 128.851562 173.476562 127.199219 C 172.777344 125.546875 172.015625 123.921875 171.1875 122.332031 C 170.359375 120.738281 169.46875 119.183594 168.515625 117.660156 C 167.5625 116.136719 166.550781 114.65625 165.480469 113.214844 C 164.40625 111.773438 163.28125 110.378906 162.097656 109.023438 C 160.917969 107.671875 159.683594 106.371094 158.394531 105.117188 C 157.109375 103.863281 155.773438 102.660156 154.394531 101.511719 C 153.011719 100.363281 151.585938 99.273438 150.113281 98.238281 C 148.644531 97.203125 147.136719 96.226562 145.589844 95.3125 C 144.042969 94.394531 142.460938 93.542969 140.847656 92.753906 C 139.230469 91.960938 137.585938 91.238281 135.914062 90.578125 C 134.242188 89.917969 132.542969 89.324219 130.824219 88.800781 Z M 71.734375 46.636719 C 71.734375 45.351562 71.796875 44.070312 71.921875 42.792969 C 72.050781 41.515625 72.238281 40.246094 72.488281 38.984375 C 72.742188 37.726562 73.054688 36.480469 73.429688 35.25 C 73.800781 34.023438 74.234375 32.816406 74.730469 31.628906 C 75.222656 30.441406 75.773438 29.28125 76.378906 28.148438 C 76.988281 27.015625 77.648438 25.914062 78.363281 24.847656 C 79.078125 23.78125 79.847656 22.75 80.664062 21.757812 C 81.480469 20.765625 82.34375 19.8125 83.257812 18.90625 C 84.167969 17.996094 85.121094 17.136719 86.117188 16.320312 C 87.113281 15.503906 88.144531 14.742188 89.21875 14.027344 C 90.289062 13.3125 91.390625 12.65625 92.527344 12.050781 C 93.664062 11.445312 94.828125 10.894531 96.019531 10.402344 C 97.207031 9.910156 98.421875 9.480469 99.652344 9.105469 C 100.886719 8.734375 102.132812 8.421875 103.398438 8.171875 C 104.660156 7.921875 105.933594 7.734375 107.214844 7.605469 C 108.5 7.480469 109.785156 7.417969 111.070312 7.417969 C 112.359375 7.417969 113.644531 7.480469 114.929688 7.605469 C 116.210938 7.734375 117.484375 7.921875 118.746094 8.171875 C 120.011719 8.421875 121.257812 8.734375 122.492188 9.105469 C 123.722656 9.480469 124.9375 9.910156 126.125 10.402344 C 127.316406 10.894531 128.480469 11.445312 129.617188 12.050781 C 130.753906 12.65625 131.855469 13.3125 132.925781 14.027344 C 134 14.742188 135.03125 15.503906 136.027344 16.320312 C 137.023438 17.136719 137.976562 17.996094 138.886719 18.90625 C 139.800781 19.8125 140.664062 20.765625 141.480469 21.757812 C 142.296875 22.75 143.066406 23.78125 143.78125 24.847656 C 144.496094 25.914062 145.15625 27.015625 145.765625 28.148438 C 146.371094 29.28125 146.921875 30.441406 147.414062 31.628906 C 147.910156 32.816406 148.34375 34.023438 148.714844 35.25 C 149.089844 36.480469 149.402344 37.726562 149.652344 38.984375 C 149.90625 40.246094 150.09375 41.515625 150.21875 42.792969 C 150.347656 44.070312 150.410156 45.351562 150.410156 46.636719 C 150.410156 47.921875 150.347656 49.203125 150.21875 50.480469 C 150.09375 51.757812 149.90625 53.027344 149.652344 54.289062 C 149.402344 55.546875 149.089844 56.792969 148.714844 58.019531 C 148.34375 59.25 147.910156 60.457031 147.414062 61.644531 C 146.921875 62.832031 146.371094 63.992188 145.765625 65.125 C 145.15625 66.257812 144.496094 67.355469 143.78125 68.425781 C 143.066406 69.492188 142.296875 70.523438 141.480469 71.515625 C 140.664062 72.507812 139.800781 73.460938 138.886719 74.367188 C 137.976562 75.277344 137.023438 76.136719 136.027344 76.953125 C 135.03125 77.765625 134 78.53125 132.925781 79.246094 C 131.855469 79.957031 130.753906 80.617188 129.617188 81.222656 C 128.480469 81.828125 127.316406 82.378906 126.125 82.871094 C 124.9375 83.359375 123.722656 83.792969 122.492188 84.164062 C 121.257812 84.539062 120.011719 84.851562 118.746094 85.101562 C 117.484375 85.351562 116.210938 85.539062 114.929688 85.664062 C 113.644531 85.792969 112.359375 85.855469 111.070312 85.855469 C 109.785156 85.851562 108.5 85.789062 107.21875 85.660156 C 105.9375 85.535156 104.664062 85.34375 103.402344 85.09375 C 102.136719 84.839844 100.890625 84.527344 99.660156 84.152344 C 98.425781 83.78125 97.214844 83.347656 96.027344 82.855469 C 94.835938 82.363281 93.675781 81.8125 92.539062 81.207031 C 91.402344 80.601562 90.300781 79.941406 89.230469 79.226562 C 88.160156 78.515625 87.125 77.75 86.132812 76.9375 C 85.136719 76.121094 84.183594 75.261719 83.273438 74.351562 C 82.363281 73.445312 81.496094 72.492188 80.679688 71.5 C 79.863281 70.507812 79.097656 69.480469 78.378906 68.410156 C 77.664062 67.34375 77.003906 66.246094 76.394531 65.113281 C 75.789062 63.980469 75.238281 62.820312 74.742188 61.636719 C 74.25 60.449219 73.816406 59.242188 73.441406 58.015625 C 73.066406 56.785156 72.75 55.542969 72.5 54.285156 C 72.246094 53.023438 72.054688 51.757812 71.929688 50.480469 C 71.800781 49.199219 71.734375 47.921875 71.734375 46.636719 Z M 75.671875 211.746094 L 53.1875 199.089844 C 52.628906 198.765625 52.027344 198.601562 51.382812 198.601562 C 50.734375 198.59375 50.132812 198.757812 49.574219 199.089844 L 26.871094 211.746094 L 26.871094 181.308594 L 27.910156 181.910156 L 29.550781 182.835938 L 32.667969 184.363281 L 34.367188 185.019531 L 36.445312 185.78125 L 38.140625 186.328125 C 39.289062 186.65625 40.4375 186.980469 41.589844 187.199219 L 42.792969 187.199219 L 45.910156 187.691406 L 47.167969 187.691406 C 48.589844 187.691406 49.957031 187.691406 51.382812 187.691406 C 52.804688 187.691406 54.171875 187.691406 55.539062 187.691406 L 56.796875 187.691406 C 57.863281 187.585938 58.921875 187.421875 59.972656 187.199219 L 61.121094 187.199219 C 62.269531 187.199219 63.417969 186.65625 64.566406 186.328125 L 66.316406 185.78125 L 68.398438 185.019531 L 70.039062 184.363281 L 73.210938 182.835938 L 74.742188 181.964844 L 75.890625 181.308594 Z M 60.902344 180.980469 L 60.738281 180 Z M 73.867188 173.617188 L 71.84375 174.980469 L 70.804688 175.582031 L 68.726562 176.726562 L 67.574219 177.273438 L 65.441406 178.144531 L 64.183594 178.636719 C 63.472656 178.636719 62.761719 179.128906 62.050781 179.289062 L 60.519531 179.726562 L 58.765625 180 L 56.742188 180 C 56.195312 180.054688 55.648438 180.054688 55.101562 180 C 53.863281 180.082031 52.621094 180.082031 51.382812 180 C 50.121094 180.082031 48.863281 180.082031 47.605469 180 C 47.058594 180.054688 46.511719 180.054688 45.964844 180 L 43.996094 180 L 41.972656 179.507812 L 40.492188 179.128906 L 38.304688 178.472656 L 37.375 178.144531 L 35.1875 177.21875 L 34.148438 176.726562 L 31.902344 175.582031 L 30.972656 174.980469 L 28.839844 173.617188 L 28.019531 172.964844 C 27.308594 172.472656 26.652344 171.925781 25.996094 171.382812 C 24.976562 170.519531 24.007812 169.605469 23.082031 168.644531 C 22.160156 167.683594 21.285156 166.675781 20.464844 165.625 C 19.644531 164.574219 18.878906 163.488281 18.167969 162.359375 C 17.457031 161.230469 16.804688 160.070312 16.214844 158.875 C 15.621094 157.683594 15.089844 156.460938 14.625 155.214844 C 14.15625 153.96875 13.753906 152.699219 13.414062 151.410156 C 13.074219 150.121094 12.804688 148.820312 12.597656 147.503906 C 12.390625 146.1875 12.253906 144.867188 12.179688 143.535156 C 12.109375 142.207031 12.105469 140.875 12.171875 139.546875 C 12.234375 138.214844 12.367188 136.890625 12.566406 135.574219 C 12.765625 134.257812 13.03125 132.957031 13.363281 131.664062 C 13.695312 130.375 14.09375 129.105469 14.554688 127.855469 C 15.015625 126.605469 15.539062 125.382812 16.125 124.1875 C 16.710938 122.988281 17.359375 121.824219 18.0625 120.695312 C 18.765625 119.5625 19.527344 118.46875 20.34375 117.414062 C 21.160156 116.359375 22.027344 115.351562 22.945312 114.382812 C 23.867188 113.417969 24.832031 112.5 25.84375 111.632812 C 26.855469 110.761719 27.910156 109.949219 29.007812 109.1875 C 30.101562 108.425781 31.234375 107.71875 32.402344 107.070312 C 33.570312 106.425781 34.765625 105.839844 35.992188 105.3125 C 37.21875 104.785156 38.472656 104.324219 39.746094 103.925781 C 41.019531 103.523438 42.3125 103.191406 43.621094 102.921875 C 44.929688 102.652344 46.246094 102.453125 47.574219 102.316406 C 48.90625 102.183594 50.238281 102.113281 51.574219 102.113281 C 52.910156 102.113281 54.242188 102.183594 55.570312 102.316406 C 56.898438 102.453125 58.21875 102.652344 59.527344 102.921875 C 60.835938 103.191406 62.125 103.523438 63.398438 103.925781 C 64.675781 104.324219 65.925781 104.785156 67.152344 105.3125 C 68.378906 105.839844 69.578125 106.425781 70.746094 107.070312 C 71.914062 107.71875 73.042969 108.425781 74.140625 109.1875 C 75.234375 109.949219 76.289062 110.761719 77.300781 111.632812 C 78.3125 112.5 79.28125 113.417969 80.199219 114.382812 C 81.117188 115.351562 81.984375 116.359375 82.800781 117.414062 C 83.617188 118.46875 84.378906 119.5625 85.082031 120.695312 C 85.789062 121.824219 86.433594 122.988281 87.019531 124.1875 C 87.605469 125.382812 88.128906 126.605469 88.589844 127.855469 C 89.054688 129.105469 89.449219 130.375 89.78125 131.664062 C 90.113281 132.957031 90.378906 134.257812 90.578125 135.574219 C 90.777344 136.890625 90.910156 138.214844 90.972656 139.546875 C 91.039062 140.875 91.035156 142.207031 90.964844 143.535156 C 90.894531 144.867188 90.753906 146.1875 90.546875 147.503906 C 90.34375 148.820312 90.070312 150.121094 89.730469 151.410156 C 89.394531 152.699219 88.988281 153.96875 88.523438 155.214844 C 88.054688 156.460938 87.523438 157.683594 86.933594 158.875 C 86.339844 160.070312 85.6875 161.230469 84.976562 162.359375 C 84.269531 163.488281 83.5 164.574219 82.679688 165.625 C 81.859375 166.675781 80.984375 167.683594 80.0625 168.644531 C 79.136719 169.605469 78.167969 170.519531 77.152344 171.382812 L 75.234375 172.964844 Z M 73.867188 173.617188 " fill-opacity="1" fill-rule="nonzero"/><path fill="#51459e" d="M 51.382812 112.253906 C 50.417969 112.253906 49.457031 112.300781 48.5 112.394531 C 47.542969 112.488281 46.59375 112.628906 45.648438 112.816406 C 44.703125 113.003906 43.769531 113.234375 42.851562 113.515625 C 41.929688 113.792969 41.023438 114.113281 40.132812 114.480469 C 39.246094 114.847656 38.375 115.257812 37.527344 115.710938 C 36.675781 116.160156 35.851562 116.652344 35.050781 117.183594 C 34.25 117.71875 33.476562 118.289062 32.734375 118.894531 C 31.988281 119.503906 31.273438 120.148438 30.59375 120.824219 C 29.914062 121.503906 29.265625 122.210938 28.652344 122.953125 C 28.042969 123.691406 27.46875 124.460938 26.933594 125.257812 C 26.398438 126.054688 25.902344 126.878906 25.445312 127.722656 C 24.992188 128.570312 24.578125 129.433594 24.207031 130.320312 C 23.839844 131.207031 23.511719 132.109375 23.230469 133.027344 C 22.949219 133.941406 22.714844 134.871094 22.523438 135.8125 C 22.335938 136.753906 22.191406 137.703125 22.09375 138.65625 C 22 139.609375 21.949219 140.566406 21.949219 141.527344 C 21.945312 142.488281 21.988281 143.445312 22.082031 144.398438 C 22.171875 145.355469 22.3125 146.304688 22.496094 147.246094 C 22.683594 148.1875 22.914062 149.117188 23.191406 150.035156 C 23.464844 150.957031 23.789062 151.859375 24.152344 152.746094 C 24.519531 153.632812 24.925781 154.5 25.378906 155.347656 C 25.828125 156.195312 26.320312 157.019531 26.851562 157.820312 C 27.382812 158.621094 27.953125 159.390625 28.5625 160.136719 C 29.171875 160.878906 29.8125 161.59375 30.492188 162.273438 C 31.167969 162.953125 31.878906 163.601562 32.621094 164.210938 C 33.363281 164.824219 34.132812 165.398438 34.929688 165.933594 C 35.730469 166.46875 36.550781 166.964844 37.398438 167.421875 C 38.246094 167.878906 39.113281 168.292969 40 168.664062 C 40.886719 169.035156 41.792969 169.359375 42.710938 169.644531 C 43.632812 169.925781 44.5625 170.164062 45.507812 170.355469 C 46.449219 170.546875 47.398438 170.691406 48.355469 170.789062 C 49.3125 170.886719 50.273438 170.941406 51.238281 170.945312 C 52.199219 170.949219 53.160156 170.90625 54.117188 170.820312 C 55.074219 170.730469 56.027344 170.59375 56.972656 170.410156 C 57.917969 170.230469 58.851562 170 59.773438 169.726562 C 60.695312 169.453125 61.605469 169.136719 62.496094 168.773438 C 63.386719 168.410156 64.257812 168.007812 65.109375 167.558594 C 65.960938 167.113281 66.789062 166.625 67.589844 166.09375 C 68.394531 165.566406 69.171875 165 69.917969 164.394531 C 70.664062 163.792969 71.382812 163.152344 72.066406 162.476562 C 72.75 161.804688 73.402344 161.097656 74.015625 160.359375 C 74.632812 159.621094 75.210938 158.855469 75.75 158.0625 C 76.289062 157.265625 76.789062 156.449219 77.25 155.605469 C 77.707031 154.761719 78.125 153.898438 78.5 153.015625 C 78.875 152.128906 79.203125 151.230469 79.488281 150.3125 C 79.773438 149.398438 80.015625 148.46875 80.210938 147.53125 C 80.40625 146.589844 80.550781 145.644531 80.652344 144.6875 C 80.753906 143.734375 80.808594 142.777344 80.816406 141.816406 C 80.824219 140.851562 80.78125 139.890625 80.695312 138.925781 C 80.605469 137.964844 80.472656 137.011719 80.289062 136.0625 C 80.105469 135.113281 79.875 134.175781 79.601562 133.25 C 79.324219 132.324219 79.003906 131.414062 78.640625 130.519531 C 78.273438 129.625 77.863281 128.753906 77.410156 127.898438 C 76.960938 127.046875 76.464844 126.214844 75.933594 125.410156 C 75.398438 124.605469 74.824219 123.828125 74.214844 123.078125 C 73.601562 122.328125 72.957031 121.613281 72.273438 120.925781 C 71.589844 120.242188 70.875 119.589844 70.128906 118.976562 C 69.382812 118.359375 68.605469 117.785156 67.804688 117.246094 C 67 116.707031 66.171875 116.207031 65.316406 115.75 C 64.464844 115.292969 63.589844 114.878906 62.695312 114.507812 C 61.800781 114.136719 60.890625 113.8125 59.964844 113.53125 C 59.039062 113.25 58.101562 113.011719 57.152344 112.824219 C 56.199219 112.632812 55.242188 112.492188 54.28125 112.398438 C 53.316406 112.300781 52.351562 112.253906 51.382812 112.253906 Z M 29.332031 141.816406 C 29.332031 141.105469 29.367188 140.390625 29.4375 139.679688 C 29.507812 138.96875 29.613281 138.261719 29.753906 137.5625 C 29.894531 136.859375 30.066406 136.167969 30.273438 135.484375 C 30.484375 134.800781 30.722656 134.128906 31 133.46875 C 31.273438 132.808594 31.578125 132.164062 31.917969 131.53125 C 32.253906 130.902344 32.621094 130.289062 33.019531 129.695312 C 33.417969 129.101562 33.84375 128.527344 34.300781 127.976562 C 34.753906 127.425781 35.234375 126.894531 35.742188 126.390625 C 36.25 125.886719 36.78125 125.40625 37.332031 124.953125 C 37.886719 124.5 38.460938 124.074219 39.058594 123.675781 C 39.65625 123.28125 40.269531 122.914062 40.902344 122.578125 C 41.53125 122.238281 42.179688 121.933594 42.84375 121.660156 C 43.503906 121.386719 44.179688 121.148438 44.863281 120.941406 C 45.550781 120.730469 46.246094 120.558594 46.949219 120.417969 C 47.652344 120.28125 48.359375 120.175781 49.070312 120.105469 C 49.785156 120.035156 50.5 120 51.21875 120 C 51.933594 120 52.648438 120.035156 53.363281 120.105469 C 54.074219 120.175781 54.785156 120.28125 55.488281 120.417969 C 56.191406 120.558594 56.882812 120.730469 57.570312 120.941406 C 58.257812 121.148438 58.929688 121.386719 59.59375 121.660156 C 60.253906 121.933594 60.902344 122.238281 61.535156 122.578125 C 62.164062 122.914062 62.78125 123.28125 63.375 123.675781 C 63.972656 124.074219 64.546875 124.5 65.101562 124.953125 C 65.65625 125.40625 66.183594 125.886719 66.691406 126.390625 C 67.199219 126.894531 67.679688 127.425781 68.132812 127.976562 C 68.589844 128.527344 69.015625 129.101562 69.414062 129.695312 C 69.8125 130.289062 70.179688 130.902344 70.519531 131.53125 C 70.855469 132.164062 71.160156 132.808594 71.4375 133.46875 C 71.710938 134.128906 71.953125 134.800781 72.160156 135.484375 C 72.367188 136.167969 72.542969 136.859375 72.679688 137.5625 C 72.820312 138.261719 72.925781 138.96875 72.996094 139.679688 C 73.066406 140.390625 73.101562 141.105469 73.101562 141.816406 C 73.101562 142.53125 73.066406 143.246094 72.996094 143.957031 C 72.925781 144.667969 72.820312 145.375 72.679688 146.074219 C 72.542969 146.777344 72.367188 147.46875 72.160156 148.152344 C 71.953125 148.835938 71.710938 149.507812 71.4375 150.167969 C 71.160156 150.828125 70.855469 151.472656 70.519531 152.101562 C 70.179688 152.734375 69.8125 153.34375 69.414062 153.941406 C 69.015625 154.535156 68.589844 155.105469 68.132812 155.660156 C 67.679688 156.210938 67.199219 156.742188 66.691406 157.246094 C 66.183594 157.75 65.65625 158.230469 65.101562 158.683594 C 64.546875 159.136719 63.972656 159.5625 63.375 159.960938 C 62.78125 160.355469 62.164062 160.722656 61.535156 161.058594 C 60.902344 161.398438 60.253906 161.703125 59.59375 161.976562 C 58.929688 162.25 58.257812 162.488281 57.570312 162.695312 C 56.882812 162.90625 56.191406 163.078125 55.488281 163.21875 C 54.785156 163.355469 54.074219 163.460938 53.363281 163.53125 C 52.648438 163.601562 51.933594 163.636719 51.21875 163.636719 C 50.5 163.636719 49.785156 163.601562 49.070312 163.53125 C 48.359375 163.460938 47.652344 163.355469 46.949219 163.21875 C 46.246094 163.078125 45.550781 162.902344 44.863281 162.695312 C 44.179688 162.488281 43.503906 162.25 42.84375 161.976562 C 42.179688 161.703125 41.53125 161.398438 40.902344 161.058594 C 40.269531 160.722656 39.65625 160.355469 39.058594 159.960938 C 38.460938 159.5625 37.886719 159.136719 37.332031 158.683594 C 36.78125 158.230469 36.25 157.75 35.742188 157.246094 C 35.234375 156.742188 34.753906 156.210938 34.300781 155.660156 C 33.84375 155.105469 33.417969 154.535156 33.019531 153.941406 C 32.621094 153.34375 32.253906 152.734375 31.917969 152.101562 C 31.578125 151.472656 31.273438 150.828125 31 150.167969 C 30.722656 149.507812 30.484375 148.835938 30.273438 148.152344 C 30.066406 147.46875 29.894531 146.777344 29.753906 146.074219 C 29.613281 145.375 29.507812 144.667969 29.4375 143.957031 C 29.367188 143.246094 29.332031 142.53125 29.332031 141.816406 Z M 29.332031 141.816406 " fill-opacity="1" fill-rule="nonzero"/><path fill="#51459e" d="M 60.410156 129.871094 C 59.832031 129.546875 59.210938 129.382812 58.546875 129.382812 C 57.886719 129.398438 57.269531 129.570312 56.695312 129.898438 C 56.125 130.226562 55.664062 130.671875 55.320312 131.238281 L 51.164062 138.546875 C 50.816406 138.15625 50.40625 137.855469 49.925781 137.644531 C 49.449219 137.433594 48.949219 137.335938 48.425781 137.34375 C 48.109375 137.351562 47.796875 137.398438 47.492188 137.484375 C 47.1875 137.570312 46.898438 137.695312 46.625 137.855469 C 46.351562 138.019531 46.105469 138.210938 45.882812 138.4375 C 45.660156 138.664062 45.46875 138.914062 45.3125 139.191406 C 45.15625 139.464844 45.035156 139.753906 44.957031 140.0625 C 44.875 140.367188 44.832031 140.675781 44.832031 140.992188 C 44.832031 141.3125 44.871094 141.621094 44.953125 141.929688 C 45.035156 142.234375 45.152344 142.523438 45.308594 142.800781 L 48.261719 147.382812 C 48.605469 147.910156 49.054688 148.320312 49.605469 148.621094 C 50.160156 148.921875 50.75 149.074219 51.382812 149.074219 C 52.042969 149.085938 52.664062 148.929688 53.238281 148.609375 C 53.816406 148.285156 54.273438 147.839844 54.609375 147.273438 L 61.777344 134.78125 C 61.992188 134.363281 62.125 133.917969 62.171875 133.449219 C 62.21875 132.976562 62.179688 132.515625 62.050781 132.0625 C 61.925781 131.605469 61.722656 131.191406 61.4375 130.8125 C 61.152344 130.433594 60.8125 130.121094 60.410156 129.871094 Z M 60.410156 129.871094 " fill-opacity="1" fill-rule="nonzero"/></svg>