<svg xmlns="http://www.w3.org/2000/svg" xmlns:xlink="http://www.w3.org/1999/xlink" zoomAndPan="magnify" viewBox="0 0 130 230" preserveAspectRatio="xMidYMid meet" version="1.0"><path fill="#3c3b6e" d="M 72 204.699219 L 131.777344 92.824219 C 132.914062 89.558594 133.757812 86.195312 134.351562 82.78125 C 134.945312 79.316406 135.242188 75.753906 135.242188 72.09375 C 135.242188 54.625 128.164062 38.792969 116.734375 27.363281 C 105.253906 15.933594 89.46875 8.859375 72 8.859375 C 54.53125 8.859375 38.746094 15.933594 27.265625 27.363281 C 15.835938 38.792969 8.757812 54.625 8.757812 72.09375 C 8.757812 75.753906 9.054688 79.316406 9.648438 82.78125 C 10.242188 86.195312 11.085938 89.558594 12.222656 92.824219 Z M 72 32.757812 C 83.085938 32.757812 93.082031 37.257812 100.304688 44.53125 C 107.578125 51.757812 112.082031 61.75 112.082031 72.835938 C 112.082031 75.113281 111.882812 77.339844 111.488281 79.566406 C 111.09375 81.792969 110.546875 83.96875 109.804688 86.097656 C 107.035156 94.011719 101.839844 100.792969 95.109375 105.542969 C 88.578125 110.144531 80.609375 112.863281 72 112.863281 C 63.390625 112.863281 55.421875 110.144531 48.890625 105.542969 C 42.160156 100.792969 37.015625 94.011719 34.242188 86.097656 L 34.195312 86.144531 C 33.453125 84.019531 32.90625 81.839844 32.511719 79.566406 C 32.117188 77.339844 31.917969 75.113281 31.917969 72.835938 C 31.917969 61.75 36.421875 51.757812 43.695312 44.53125 C 50.917969 37.257812 60.914062 32.757812 72 32.757812 Z M 94.167969 50.667969 C 88.476562 45.027344 80.660156 41.515625 72 41.515625 C 63.339844 41.515625 55.523438 45.027344 49.832031 50.667969 C 44.191406 56.359375 40.675781 64.175781 40.675781 72.835938 C 40.675781 74.667969 40.824219 76.449219 41.121094 78.128906 C 41.417969 79.863281 41.863281 81.59375 42.410156 83.226562 C 44.585938 89.410156 48.644531 94.707031 53.886719 98.417969 C 58.984375 102.027344 65.21875 104.15625 72 104.15625 C 78.78125 104.15625 85.015625 102.027344 90.113281 98.417969 C 95.355469 94.707031 99.414062 89.410156 101.589844 83.226562 C 102.136719 81.59375 102.582031 79.910156 102.878906 78.128906 C 103.175781 76.449219 103.324219 74.667969 103.324219 72.835938 C 103.324219 64.175781 99.808594 56.359375 94.167969 50.667969 Z M 139.644531 96.535156 L 75.859375 215.933594 C 75.464844 216.722656 74.871094 217.367188 74.027344 217.761719 C 71.949219 218.902344 69.277344 218.109375 68.140625 215.980469 L 4.503906 96.832031 C 4.355469 96.535156 4.207031 96.289062 4.105469 95.941406 C 2.769531 92.183594 1.730469 88.222656 1.039062 84.214844 C 0.394531 80.207031 0 76.199219 0 72.09375 C 0 52.203125 8.066406 34.242188 21.128906 21.179688 C 34.144531 8.164062 52.105469 0.0976562 72 0.0976562 C 91.894531 0.0976562 109.855469 8.164062 122.871094 21.179688 C 135.933594 34.242188 144 52.203125 144 72.09375 C 144 76.199219 143.605469 80.207031 142.960938 84.214844 C 142.269531 88.222656 141.230469 92.183594 139.894531 95.941406 C 139.84375 96.140625 139.746094 96.339844 139.644531 96.535156 Z M 139.644531 96.535156 " fill-opacity="1" fill-rule="nonzero"/></svg>