<svg xmlns="http://www.w3.org/2000/svg" xmlns:xlink="http://www.w3.org/1999/xlink" zoomAndPan="magnify" viewBox="0 0 230 230" preserveAspectRatio="xMidYMid meet" version="1.0"><defs><clipPath id="6d0ffffca6"><path d="M 0 0 L 217.5 0 L 217.5 217.5 L 0 217.5 Z M 0 0 " clip-rule="nonzero"/></clipPath></defs><rect x="-144" width="1728" fill="#ffffff" y="-80.999999" height="971.999992" fill-opacity="1"/><rect x="-144" width="1728" fill="#ffffff" y="-80.999999" height="971.999992" fill-opacity="1"/><g clip-path="url(#6d0ffffca6)"><path fill="#51459e" d="M 213.976562 217.484375 C 212.082031 217.484375 210.527344 215.925781 210.527344 214.035156 L 210.527344 194.375 C 210.527344 165.476562 187.011719 141.960938 158.113281 141.960938 L 59.40625 141.960938 C 30.503906 141.960938 6.992188 165.476562 6.992188 194.375 L 6.992188 214.035156 C 6.992188 215.941406 5.445312 217.484375 3.542969 217.484375 C 1.636719 217.484375 0.09375 215.941406 0.09375 214.035156 L 0.09375 194.375 C 0.09375 161.671875 26.699219 135.0625 59.40625 135.0625 L 158.113281 135.0625 C 190.816406 135.0625 217.425781 161.671875 217.425781 194.375 L 217.425781 214.035156 C 217.425781 215.925781 215.867188 217.484375 213.976562 217.484375 Z M 171.652344 62.894531 C 171.652344 28.214844 143.4375 0 108.757812 0 C 74.078125 0 45.863281 28.214844 45.863281 62.894531 C 45.863281 97.574219 74.078125 125.789062 108.757812 125.789062 C 143.4375 125.789062 171.652344 97.574219 171.652344 62.894531 Z M 164.753906 62.894531 C 164.753906 93.769531 139.632812 118.890625 108.757812 118.890625 C 77.882812 118.890625 52.761719 93.769531 52.761719 62.894531 C 52.761719 32.019531 77.882812 6.898438 108.757812 6.898438 C 139.632812 6.898438 164.753906 32.019531 164.753906 62.894531 Z M 164.753906 62.894531 " fill-opacity="1" fill-rule="nonzero"/></g></svg>