<svg xmlns="http://www.w3.org/2000/svg" xmlns:xlink="http://www.w3.org/1999/xlink" width="35" zoomAndPan="magnify" viewBox="0 0 230 210" height="35" preserveAspectRatio="xMidYMid meet" version="1.0"><defs><clipPath id="5ddf3ee314"><path d="M 0 0 L 210.75 0 L 210.75 210.75 L 0 210.75 Z M 0 0 " clip-rule="nonzero"/></clipPath></defs><g clip-path="url(#5ddf3ee314)"><path fill="#51459e" d="M 210.75 33.507812 L 90.515625 153.847656 L 45.839844 109.167969 L 60.695312 94.3125 L 90.515625 124.132812 L 195.890625 18.757812 Z M 187.460938 86.617188 C 188.832031 92.625 189.675781 98.945312 189.675781 105.375 C 189.675781 151.949219 151.949219 189.675781 105.375 189.675781 C 58.800781 189.675781 21.074219 151.949219 21.074219 105.375 C 21.074219 58.800781 58.800781 21.074219 105.375 21.074219 C 122.023438 21.074219 137.410156 25.921875 150.476562 34.246094 L 165.648438 19.074219 C 148.578125 7.058594 127.820312 0 105.375 0 C 47.207031 0 0 47.207031 0 105.375 C 0 163.542969 47.207031 210.75 105.375 210.75 C 163.542969 210.75 210.75 163.542969 210.75 105.375 C 210.75 92.835938 208.433594 80.824219 204.425781 69.652344 Z M 187.460938 86.617188 " fill-opacity="1" fill-rule="nonzero"/></g></svg>