<svg xmlns="http://www.w3.org/2000/svg" xmlns:xlink="http://www.w3.org/1999/xlink" zoomAndPan="magnify" viewBox="0 0 512 512" preserveAspectRatio="xMidYMid meet" version="1.0"><defs><clipPath id="fad09bc791"><path d="M 139 81 L 254 81 L 254 181 L 139 181 Z M 139 81 " clip-rule="nonzero"/></clipPath><clipPath id="3954de84a9"><path d="M 108.636719 135 L 453.636719 135 L 453.636719 384 L 108.636719 384 Z M 108.636719 135 " clip-rule="nonzero"/></clipPath></defs><rect x="-144" width="1728" fill="#ffffff" y="-80.999999" height="971.999992" fill-opacity="1"/><rect x="-144" width="1728" fill="#ffffff" y="-80.999999" height="971.999992" fill-opacity="1"/><rect x="-144" width="1728" fill="#ffffff" y="-80.999999" height="971.999992" fill-opacity="1"/><g clip-path="url(#3954de84a9)"><path fill="#191919" d="M 453.488281 379.910156 C 453.488281 377.679688 451.679688 375.871094 449.449219 375.871094 L 449.34375 375.875 L 449.449219 375.875 L 449.449219 379.910156 L 445.410156 379.910156 C 445.410156 377.714844 447.160156 375.929688 449.34375 375.875 L 116.863281 375.875 L 116.863281 139.59375 C 116.863281 137.363281 115.054688 135.554688 112.824219 135.554688 C 110.59375 135.554688 108.785156 137.363281 108.785156 139.59375 L 108.785156 379.910156 C 108.785156 382.140625 110.59375 383.949219 112.824219 383.949219 L 449.449219 383.949219 C 451.679688 383.949219 453.488281 382.140625 453.488281 379.910156 Z M 453.488281 379.910156 " fill-opacity="1" fill-rule="nonzero"/></g><path fill="#191919" d="M 158.808594 289.660156 L 184.355469 289.660156 C 186.585938 289.660156 188.394531 291.46875 188.394531 293.695312 L 188.394531 356.78125 C 188.394531 359.007812 186.585938 360.816406 184.355469 360.816406 L 158.808594 360.816406 C 156.578125 360.816406 154.769531 359.007812 154.769531 356.78125 L 154.769531 293.695312 C 154.769531 291.46875 156.578125 289.660156 158.808594 289.660156 Z M 180.316406 297.734375 L 162.847656 297.734375 L 162.847656 352.742188 L 180.316406 352.742188 Z M 180.316406 297.734375 " fill-opacity="1" fill-rule="nonzero"/><path fill="#191919" d="M 220.421875 261.121094 L 245.972656 261.121094 C 248.203125 261.121094 250.011719 262.929688 250.011719 265.160156 L 250.011719 355.277344 C 250.011719 357.507812 248.203125 359.316406 245.972656 359.316406 L 220.421875 359.316406 C 218.191406 359.316406 216.382812 357.507812 216.382812 355.277344 L 216.382812 265.160156 C 216.382812 262.929688 218.191406 261.121094 220.421875 261.121094 Z M 241.929688 269.195312 L 224.460938 269.195312 L 224.460938 351.242188 L 241.929688 351.242188 Z M 241.929688 269.195312 " fill-opacity="1" fill-rule="nonzero"/><path fill="#191919" d="M 282.039062 225.074219 L 307.585938 225.074219 C 309.816406 225.074219 311.625 226.882812 311.625 229.109375 L 311.625 353.777344 C 311.625 356.003906 309.816406 357.8125 307.585938 357.8125 L 282.039062 357.8125 C 279.808594 357.8125 278 356.003906 278 353.777344 L 278 229.109375 C 278 226.882812 279.808594 225.074219 282.039062 225.074219 Z M 303.546875 233.148438 L 286.078125 233.148438 L 286.078125 349.738281 L 303.546875 349.738281 Z M 303.546875 233.148438 " fill-opacity="1" fill-rule="nonzero"/><path fill="#191919" d="M 343.652344 183.015625 L 369.199219 183.015625 C 371.429688 183.015625 373.238281 184.824219 373.238281 187.054688 L 373.238281 352.277344 C 373.238281 354.503906 371.429688 356.3125 369.199219 356.3125 L 343.652344 356.3125 C 341.421875 356.3125 339.613281 354.503906 339.613281 352.277344 L 339.613281 187.054688 C 339.613281 184.824219 341.421875 183.015625 343.652344 183.015625 Z M 365.160156 191.09375 L 347.691406 191.09375 L 347.691406 348.238281 L 365.160156 348.238281 Z M 365.160156 191.09375 " fill-opacity="1" fill-rule="nonzero"/><path fill="#191919" d="M 284.625 88.125 C 282.402344 88.191406 280.65625 90.050781 280.726562 92.269531 C 280.796875 94.492188 282.652344 96.234375 284.875 96.167969 L 369.035156 93.40625 L 343.152344 173.496094 C 342.476562 175.613281 343.640625 177.878906 345.757812 178.558594 C 347.875 179.238281 350.144531 178.074219 350.824219 175.957031 L 378.363281 90.742188 C 378.574219 90.226562 378.6875 89.65625 378.667969 89.0625 C 378.59375 86.835938 376.726562 85.089844 374.496094 85.160156 L 374.496094 85.175781 Z M 284.625 88.125 " fill-opacity="1" fill-rule="nonzero"/><path fill="#191919" d="M 377.058594 92.414062 C 378.835938 91.074219 379.191406 88.542969 377.847656 86.769531 C 376.507812 84.992188 373.976562 84.640625 372.199219 85.980469 L 150.128906 253.167969 C 148.351562 254.507812 147.996094 257.039062 149.339844 258.8125 C 150.679688 260.589844 153.210938 260.945312 154.988281 259.601562 Z M 377.058594 92.414062 " fill-opacity="1" fill-rule="nonzero"/></svg>