<svg xmlns="http://www.w3.org/2000/svg" xmlns:xlink="http://www.w3.org/1999/xlink" zoomAndPan="magnify" viewBox="0 0 512 512" preserveAspectRatio="xMidYMid meet" version="1.0">
    <defs><clipPath id="60b5f90650"><path d="M 165 122.589844 L 432.230469 122.589844 L 432.230469 389.589844 L 165 389.589844 Z M 165 122.589844 " clip-rule="nonzero"/></clipPath><clipPath id="97a393670a"><path d="M 229 156 L 432.230469 156 L 432.230469 389 L 229 389 Z M 229 156 " clip-rule="nonzero"/></clipPath><clipPath id="bdc367d340"><path d="M 114.984375 375 L 334 375 L 334 389 L 114.984375 389 Z M 114.984375 375 " clip-rule="nonzero"/></clipPath><clipPath id="38199d86a2"><path d="M 331 122.589844 L 362 122.589844 L 362 139 L 331 139 Z M 331 122.589844 " clip-rule="nonzero"/></clipPath></defs><rect x="-144" width="1728" fill="#ffffff" y="-80.999999" height="971.999992" fill-opacity="1"/><rect x="-144" width="1728" fill="#ffffff" y="-80.999999" height="971.999992" fill-opacity="1"/><path fill="#191919" d="M 351.015625 258.0625 L 411.042969 206.097656 L 358.886719 265.945312 Z M 351.015625 258.0625 " fill-opacity="1" fill-rule="nonzero"/><g clip-path="url(#60b5f90650)"><path stroke-linecap="butt" transform="matrix(0.101325, 0, 0, -0.101217, 77.998639, 525.173442)" fill="none" stroke-linejoin="miter" d="M 2419.969468 2286.718871 L 2570.011985 2436.459119 " stroke="#333333" stroke-width="110" stroke-opacity="1" stroke-miterlimit="10"/></g><path fill="#191919" d="M 347.988281 277.386719 C 344.125 278.191406 340.339844 275.726562 339.53125 271.867188 C 338.726562 268.011719 341.199219 264.230469 345.058594 263.421875 C 348.917969 262.613281 352.703125 265.085938 353.507812 268.941406 C 354.320312 272.796875 351.847656 276.578125 347.988281 277.386719 Z M 343.058594 253.890625 C 333.929688 255.804688 328.078125 264.746094 329.996094 273.863281 C 331.90625 282.984375 340.859375 288.824219 349.984375 286.914062 C 359.113281 285.003906 364.964844 276.066406 363.050781 266.945312 C 361.136719 257.828125 352.1875 251.984375 343.058594 253.890625 " fill-opacity="1" fill-rule="nonzero"/><g clip-path="url(#97a393670a)"><path fill="#191919" d="M 335.226562 156.578125 C 304.222656 159.488281 276.207031 174.285156 256.347656 198.242188 C 236.480469 222.199219 227.144531 252.449219 230.058594 283.417969 C 234.992188 335.859375 274.195312 376.984375 323.445312 386.769531 C 334.246094 388.917969 345.53125 389.554688 357.039062 388.476562 C 364.867188 387.738281 372.480469 386.261719 379.84375 384.046875 C 378.691406 382.207031 377.800781 380.179688 377.214844 378.027344 C 369.496094 379.648438 361.566406 380.425781 354.238281 380.113281 C 298.445312 377.726562 250.53125 337.523438 245.3125 281.988281 C 242.777344 255.085938 250.890625 228.8125 268.140625 208.003906 C 285.394531 187.191406 309.730469 174.34375 336.660156 171.8125 C 368.558594 168.820312 398.132812 177.972656 419.5 201.878906 L 432.261719 193.679688 C 407.664062 166.160156 371.949219 153.128906 335.226562 156.578125 " fill-opacity="1" fill-rule="nonzero"/></g><path fill="#191919" d="M 322.738281 166.222656 L 213.355469 161.667969 L 338.40625 156.460938 Z M 322.738281 166.222656 " fill-opacity="1" fill-rule="nonzero"/><path fill="#191919" d="M 241.042969 278.515625 L 146.539062 273.960938 L 241.042969 269.40625 Z M 241.042969 278.515625 " fill-opacity="1" fill-rule="nonzero"/><g clip-path="url(#bdc367d340)"><path fill="#191919" d="M 333.003906 388.640625 L 114.960938 381.757812 L 317.808594 375.351562 Z M 333.003906 388.640625 " fill-opacity="1" fill-rule="nonzero"/></g><path fill="#191919" d="M 254.089844 333.71875 L 161.503906 330.367188 L 254.089844 327.015625 Z M 254.089844 333.71875 " fill-opacity="1" fill-rule="nonzero"/><path fill="#191919" d="M 251.84375 221.039062 L 192.644531 217.691406 L 251.84375 214.339844 Z M 251.84375 221.039062 " fill-opacity="1" fill-rule="nonzero"/><path fill="#191919" d="M 242.28125 249.585938 L 183.078125 246.238281 L 242.28125 242.886719 Z M 242.28125 249.585938 " fill-opacity="1" fill-rule="nonzero"/><path fill="#191919" d="M 243.3125 305.585938 L 151.832031 302.230469 L 243.3125 298.882812 Z M 243.3125 305.585938 " fill-opacity="1" fill-rule="nonzero"/><path fill="#191919" d="M 274.386719 361.226562 L 143.90625 357.875 L 274.386719 354.523438 Z M 274.386719 361.226562 " fill-opacity="1" fill-rule="nonzero"/><path fill="#191919" d="M 274.386719 192.792969 L 215.1875 189.445312 L 274.386719 186.09375 Z M 274.386719 192.792969 " fill-opacity="1" fill-rule="nonzero"/><g clip-path="url(#38199d86a2)"><path fill="#191919" d="M 358.894531 138.859375 L 333.316406 138.859375 C 332.089844 138.859375 331.09375 137.867188 331.09375 136.648438 L 331.09375 124.882812 C 331.09375 123.660156 332.089844 122.667969 333.316406 122.667969 L 358.894531 122.667969 C 360.121094 122.667969 361.117188 123.660156 361.117188 124.882812 L 361.117188 136.648438 C 361.117188 137.867188 360.121094 138.859375 358.894531 138.859375 " fill-opacity="1" fill-rule="nonzero"/></g><path fill="#191919" d="M 353.605469 153.707031 L 338.605469 153.707031 L 338.605469 141.054688 L 353.605469 141.054688 L 353.605469 153.707031 " fill-opacity="1" fill-rule="nonzero"/><path fill="#191919" d="M 306.847656 200.507812 L 300.910156 190.226562 L 297.398438 192.253906 L 303.335938 202.535156 C 304.488281 201.832031 305.660156 201.15625 306.847656 200.507812 " fill-opacity="1" fill-rule="nonzero"/><path fill="#191919" d="M 346.121094 190.527344 C 346.800781 190.527344 347.476562 190.5625 348.152344 190.582031 L 348.15625 178.675781 L 344.105469 178.671875 L 344.101562 190.582031 C 344.773438 190.558594 345.441406 190.527344 346.121094 190.527344 " fill-opacity="1" fill-rule="nonzero"/><path fill="#191919" d="M 276.066406 229.773438 L 265.769531 223.835938 L 263.746094 227.34375 L 274.035156 233.277344 C 274.679688 232.089844 275.363281 230.925781 276.066406 229.773438 " fill-opacity="1" fill-rule="nonzero"/><path fill="#191919" d="M 388.917969 202.546875 L 394.863281 192.269531 L 391.355469 190.246094 L 385.410156 200.519531 C 386.597656 201.167969 387.765625 201.84375 388.917969 202.546875 " fill-opacity="1" fill-rule="nonzero"/><path fill="#191919" d="M 264.035156 272.527344 C 264.035156 271.847656 264.070312 271.171875 264.085938 270.496094 L 252.167969 270.488281 L 252.164062 274.539062 L 264.085938 274.542969 C 264.070312 273.871094 264.035156 273.203125 264.035156 272.527344 " fill-opacity="1" fill-rule="nonzero"/><path fill="#191919" d="M 274.023438 311.757812 L 263.734375 317.691406 L 265.757812 321.199219 L 276.054688 315.257812 C 275.351562 314.113281 274.671875 312.941406 274.023438 311.757812 " fill-opacity="1" fill-rule="nonzero"/><path fill="#191919" d="M 346.121094 354.523438 C 345.433594 354.523438 344.761719 354.488281 344.082031 354.472656 L 344.082031 366.378906 L 348.132812 366.382812 L 348.132812 354.476562 C 347.460938 354.488281 346.796875 354.523438 346.121094 354.523438 " fill-opacity="1" fill-rule="nonzero"/><path fill="#191919" d="M 303.320312 342.503906 L 297.375 352.789062 L 300.886719 354.8125 L 306.828125 344.53125 C 305.640625 343.886719 304.472656 343.207031 303.320312 342.503906 " fill-opacity="1" fill-rule="nonzero"/>
</svg>