<svg xmlns="http://www.w3.org/2000/svg" xmlns:xlink="http://www.w3.org/1999/xlink" width="35" zoomAndPan="magnify" viewBox="0 0 220 200" height="35" preserveAspectRatio="xMidYMid meet" version="1.0"><path fill="#3c3b6e" d="M 201.328125 108.640625 L 189.570312 105.699219 L 189.570312 100.507812 C 191.835938 98.925781 193.78125 97.011719 195.402344 94.773438 C 197.027344 92.53125 198.234375 90.089844 199.03125 87.441406 L 201.828125 87.441406 C 203.03125 87.441406 204.210938 87.265625 205.363281 86.917969 C 206.515625 86.570312 207.59375 86.0625 208.59375 85.394531 C 209.597656 84.730469 210.480469 83.933594 211.25 83.003906 C 212.015625 82.078125 212.632812 81.058594 213.097656 79.949219 C 213.5625 78.839844 213.859375 77.683594 213.984375 76.488281 C 214.109375 75.289062 214.058594 74.101562 213.832031 72.917969 C 213.605469 71.738281 213.214844 70.613281 212.65625 69.546875 C 212.097656 68.480469 211.398438 67.515625 210.554688 66.65625 L 210.554688 53.015625 C 210.554688 52.105469 210.492188 51.199219 210.359375 50.296875 C 210.230469 49.398438 210.035156 48.507812 209.773438 47.636719 C 209.511719 46.761719 209.191406 45.914062 208.808594 45.085938 C 208.425781 44.261719 207.984375 43.464844 207.484375 42.703125 C 206.988281 41.941406 206.4375 41.21875 205.832031 40.539062 C 205.230469 39.855469 204.578125 39.21875 203.882812 38.632812 C 203.1875 38.042969 202.453125 37.507812 201.679688 37.027344 C 200.90625 36.546875 200.101562 36.125 199.269531 35.757812 C 198.902344 34.925781 198.480469 34.121094 198 33.347656 C 197.515625 32.574219 196.980469 31.839844 196.394531 31.144531 C 195.804688 30.449219 195.171875 29.800781 194.488281 29.199219 C 193.804688 28.59375 193.082031 28.042969 192.320312 27.546875 C 191.558594 27.046875 190.761719 26.609375 189.9375 26.226562 C 189.109375 25.84375 188.261719 25.519531 187.386719 25.261719 C 186.515625 25.003906 185.628906 24.808594 184.726562 24.675781 C 183.824219 24.546875 182.917969 24.480469 182.007812 24.484375 L 168.585938 24.484375 C 167.667969 24.484375 166.753906 24.53125 165.84375 24.621094 C 164.929688 24.710938 164.027344 24.847656 163.128906 25.027344 C 162.230469 25.207031 161.339844 25.429688 160.464844 25.695312 C 159.589844 25.960938 158.726562 26.269531 157.882812 26.621094 C 157.035156 26.972656 156.207031 27.363281 155.398438 27.796875 C 154.59375 28.230469 153.808594 28.699219 153.046875 29.207031 C 152.285156 29.71875 151.550781 30.261719 150.839844 30.84375 C 150.132812 31.425781 149.457031 32.039062 148.808594 32.6875 C 148.160156 33.335938 147.546875 34.011719 146.964844 34.722656 C 146.382812 35.429688 145.835938 36.164062 145.328125 36.925781 C 144.820312 37.6875 144.347656 38.472656 143.917969 39.28125 C 143.484375 40.089844 143.09375 40.914062 142.742188 41.761719 C 142.390625 42.605469 142.082031 43.46875 141.816406 44.34375 C 141.546875 45.222656 141.324219 46.109375 141.144531 47.007812 C 140.964844 47.90625 140.832031 48.8125 140.742188 49.722656 C 140.648438 50.632812 140.605469 51.546875 140.601562 52.464844 L 140.601562 66.65625 C 138.941406 68.351562 137.863281 70.359375 137.371094 72.679688 C 133.570312 70.632812 129.574219 69.082031 125.382812 68.027344 C 121.195312 66.976562 116.941406 66.449219 112.621094 66.453125 C 111.949219 66.453125 111.289062 66.53125 110.621094 66.554688 C 111.003906 65.933594 111.332031 65.28125 111.605469 64.605469 C 111.882812 63.929688 112.105469 63.238281 112.269531 62.523438 C 112.433594 61.8125 112.542969 61.09375 112.589844 60.363281 C 112.640625 59.636719 112.632812 58.910156 112.566406 58.179688 C 112.496094 57.453125 112.375 56.738281 112.191406 56.03125 C 112.007812 55.320312 111.773438 54.632812 111.480469 53.964844 C 111.1875 53.296875 110.84375 52.652344 110.449219 52.039062 C 110.054688 51.425781 109.613281 50.847656 109.125 50.300781 L 109.125 28.546875 C 109.125 27.636719 109.0625 26.730469 108.929688 25.828125 C 108.800781 24.925781 108.605469 24.039062 108.34375 23.167969 C 108.085938 22.292969 107.761719 21.441406 107.378906 20.617188 C 106.996094 19.789062 106.554688 18.996094 106.058594 18.234375 C 105.558594 17.46875 105.007812 16.75 104.402344 16.066406 C 103.800781 15.382812 103.152344 14.746094 102.453125 14.160156 C 101.757812 13.570312 101.023438 13.035156 100.25 12.554688 C 99.476562 12.074219 98.671875 11.652344 97.839844 11.285156 C 97.472656 10.453125 97.050781 9.648438 96.570312 8.875 C 96.089844 8.101562 95.554688 7.367188 94.964844 6.671875 C 94.378906 5.972656 93.742188 5.324219 93.058594 4.722656 C 92.378906 4.117188 91.65625 3.566406 90.890625 3.066406 C 90.128906 2.570312 89.335938 2.128906 88.507812 1.746094 C 87.683594 1.363281 86.832031 1.039062 85.957031 0.78125 C 85.085938 0.519531 84.199219 0.324219 83.296875 0.195312 C 82.394531 0.0625 81.488281 0 80.578125 0 L 63.65625 0 C 62.625 0 61.597656 0.0546875 60.570312 0.15625 C 59.546875 0.257812 58.527344 0.410156 57.515625 0.609375 C 56.507812 0.8125 55.507812 1.0625 54.523438 1.363281 C 53.535156 1.664062 52.566406 2.011719 51.617188 2.40625 C 50.664062 2.800781 49.734375 3.242188 48.824219 3.726562 C 47.914062 4.214844 47.03125 4.742188 46.175781 5.316406 C 45.320312 5.886719 44.492188 6.503906 43.695312 7.15625 C 42.898438 7.808594 42.136719 8.5 41.40625 9.230469 C 40.679688 9.957031 39.988281 10.722656 39.332031 11.519531 C 38.679688 12.316406 38.066406 13.140625 37.492188 14 C 36.921875 14.855469 36.390625 15.738281 35.90625 16.648438 C 35.417969 17.554688 34.976562 18.484375 34.582031 19.4375 C 34.1875 20.390625 33.839844 21.359375 33.542969 22.34375 C 33.242188 23.332031 32.992188 24.328125 32.789062 25.339844 C 32.585938 26.351562 32.433594 27.367188 32.332031 28.394531 C 32.230469 29.417969 32.179688 30.449219 32.179688 31.476562 L 32.179688 50.300781 C 31.289062 51.308594 30.558594 52.421875 29.988281 53.636719 C 29.421875 54.855469 29.035156 56.128906 28.835938 57.457031 C 28.636719 58.785156 28.628906 60.113281 28.8125 61.445312 C 28.996094 62.777344 29.367188 64.054688 29.921875 65.277344 C 30.476562 66.5 31.195312 67.621094 32.074219 68.636719 C 32.953125 69.652344 33.957031 70.523438 35.089844 71.25 C 36.21875 71.972656 37.429688 72.523438 38.71875 72.898438 C 40.011719 73.273438 41.328125 73.457031 42.671875 73.449219 L 44.730469 73.449219 C 46.5625 77.949219 49.375 81.722656 53.164062 84.765625 L 53.164062 92.03125 L 24.679688 102.988281 C 23.238281 103.539062 21.847656 104.191406 20.5 104.945312 C 19.15625 105.699219 17.871094 106.546875 16.648438 107.484375 C 15.421875 108.421875 14.273438 109.441406 13.195312 110.546875 C 12.117188 111.648438 11.125 112.824219 10.21875 114.070312 C 9.308594 115.316406 8.492188 116.621094 7.773438 117.984375 C 7.050781 119.347656 6.433594 120.753906 5.914062 122.207031 C 5.394531 123.660156 4.984375 125.140625 4.679688 126.652344 C 4.375 128.164062 4.179688 129.691406 4.09375 131.230469 L 0.699219 185.15625 C 0.683594 185.394531 0.695312 185.632812 0.726562 185.867188 C 0.761719 186.105469 0.820312 186.335938 0.902344 186.5625 C 0.980469 186.785156 1.085938 187 1.210938 187.203125 C 1.335938 187.40625 1.480469 187.597656 1.644531 187.769531 C 1.808594 187.945312 1.988281 188.101562 2.183594 188.238281 C 2.378906 188.375 2.585938 188.492188 2.804688 188.585938 C 3.027344 188.679688 3.253906 188.75 3.488281 188.796875 C 3.722656 188.847656 3.957031 188.871094 4.195312 188.871094 L 137.105469 188.871094 C 137.34375 188.871094 137.582031 188.847656 137.816406 188.796875 C 138.050781 188.75 138.277344 188.679688 138.496094 188.585938 C 138.714844 188.492188 138.921875 188.375 139.121094 188.238281 C 139.316406 188.101562 139.496094 187.945312 139.660156 187.769531 C 139.824219 187.597656 139.96875 187.40625 140.09375 187.203125 C 140.21875 187 140.320312 186.785156 140.402344 186.5625 C 140.484375 186.335938 140.539062 186.105469 140.574219 185.867188 C 140.609375 185.632812 140.617188 185.394531 140.601562 185.15625 L 139.777344 171.996094 L 145.132812 177.351562 C 145.460938 177.679688 145.839844 177.933594 146.269531 178.113281 C 146.695312 178.289062 147.144531 178.378906 147.605469 178.378906 C 148.070312 178.378906 148.519531 178.289062 148.945312 178.113281 C 149.375 177.933594 149.753906 177.679688 150.082031 177.351562 L 151.097656 176.328125 L 187.699219 212.929688 C 188.320312 213.550781 188.996094 214.101562 189.730469 214.585938 C 190.460938 215.070312 191.230469 215.480469 192.042969 215.816406 C 192.855469 216.148438 193.691406 216.402344 194.550781 216.570312 C 195.414062 216.742188 196.28125 216.824219 197.160156 216.824219 C 198.039062 216.820312 198.90625 216.734375 199.769531 216.5625 C 200.628906 216.390625 201.464844 216.136719 202.273438 215.800781 C 203.085938 215.460938 203.855469 215.050781 204.585938 214.5625 C 205.316406 214.074219 205.988281 213.519531 206.609375 212.898438 C 207.230469 212.277344 207.785156 211.601562 208.273438 210.875 C 208.761719 210.144531 209.171875 209.375 209.507812 208.5625 C 209.84375 207.753906 210.097656 206.917969 210.269531 206.054688 C 210.441406 205.195312 210.53125 204.324219 210.53125 203.449219 C 210.53125 202.570312 210.449219 201.699219 210.277344 200.839844 C 210.109375 199.980469 209.855469 199.140625 209.523438 198.332031 C 209.1875 197.519531 208.777344 196.746094 208.292969 196.015625 C 207.804688 195.285156 207.253906 194.609375 206.632812 193.988281 L 170.035156 157.390625 L 214.054688 157.390625 C 214.515625 157.390625 214.960938 157.304688 215.390625 157.125 C 215.820312 156.949219 216.199219 156.695312 216.527344 156.367188 C 216.855469 156.039062 217.105469 155.660156 217.285156 155.234375 C 217.460938 154.804688 217.550781 154.359375 217.550781 153.894531 L 217.550781 129.410156 C 217.550781 128.226562 217.457031 127.046875 217.261719 125.878906 C 217.066406 124.707031 216.777344 123.5625 216.390625 122.441406 C 216.007812 121.316406 215.53125 120.234375 214.964844 119.191406 C 214.398438 118.152344 213.753906 117.160156 213.023438 116.226562 C 212.292969 115.292969 211.488281 114.425781 210.617188 113.625 C 209.742188 112.820312 208.804688 112.097656 207.8125 111.453125 C 206.816406 110.808594 205.773438 110.25 204.6875 109.777344 C 203.597656 109.304688 202.480469 108.925781 201.328125 108.640625 Z M 191.59375 113.414062 L 185.78125 120.667969 L 181.070312 115.960938 L 186.726562 112.191406 Z M 165.363281 120.675781 L 165.011719 120.234375 C 165.011719 119.792969 165.078125 119.363281 165.078125 118.917969 C 165.066406 116.710938 164.914062 114.511719 164.621094 112.320312 L 170.082031 115.960938 Z M 164.050781 129.179688 C 164.320312 129.289062 164.59375 129.363281 164.878906 129.402344 L 165.085938 129.410156 C 165.660156 129.398438 166.195312 129.25 166.691406 128.96875 L 168.371094 130.644531 L 166.113281 146.476562 L 160.308594 140.667969 C 162.007812 136.988281 163.261719 133.15625 164.066406 129.179688 Z M 175.113281 132.910156 L 176.042969 132.910156 L 178.542969 150.398438 L 172.617188 150.398438 Z M 177.628906 125.914062 L 173.53125 125.914062 L 171.78125 124.164062 L 175.578125 120.367188 L 179.378906 124.164062 Z M 182.574219 106.554688 L 175.578125 111.222656 L 168.585938 106.5625 L 168.585938 103.902344 C 170.863281 104.589844 173.195312 104.933594 175.578125 104.933594 C 177.960938 104.933594 180.292969 104.589844 182.574219 103.902344 Z M 193.066406 80.445312 C 193.066406 81.015625 193.039062 81.589844 192.984375 82.160156 C 192.925781 82.730469 192.84375 83.292969 192.730469 83.855469 C 192.621094 84.417969 192.480469 84.972656 192.3125 85.519531 C 192.148438 86.070312 191.957031 86.609375 191.734375 87.136719 C 191.515625 87.667969 191.273438 88.183594 191.003906 88.6875 C 190.730469 89.195312 190.4375 89.683594 190.121094 90.160156 C 189.800781 90.636719 189.460938 91.097656 189.097656 91.539062 C 188.734375 91.980469 188.351562 92.40625 187.945312 92.8125 C 187.539062 93.214844 187.117188 93.601562 186.671875 93.964844 C 186.230469 94.328125 185.769531 94.667969 185.296875 94.984375 C 184.820312 95.304688 184.328125 95.597656 183.824219 95.867188 C 183.316406 96.136719 182.800781 96.382812 182.273438 96.601562 C 181.742188 96.820312 181.203125 97.011719 180.65625 97.179688 C 180.109375 97.347656 179.554688 97.484375 178.992188 97.597656 C 178.429688 97.707031 177.863281 97.792969 177.292969 97.847656 C 176.722656 97.90625 176.152344 97.933594 175.578125 97.933594 C 175.007812 97.933594 174.433594 97.90625 173.863281 97.847656 C 173.296875 97.792969 172.730469 97.707031 172.167969 97.597656 C 171.605469 97.484375 171.050781 97.347656 170.503906 97.179688 C 169.953125 97.011719 169.417969 96.820312 168.886719 96.601562 C 168.359375 96.382812 167.839844 96.136719 167.335938 95.867188 C 166.832031 95.597656 166.339844 95.304688 165.863281 94.984375 C 165.386719 94.667969 164.929688 94.328125 164.484375 93.964844 C 164.042969 93.601562 163.617188 93.214844 163.214844 92.8125 C 162.808594 92.40625 162.425781 91.980469 162.0625 91.539062 C 161.699219 91.097656 161.355469 90.636719 161.039062 90.160156 C 160.71875 89.683594 160.425781 89.195312 160.15625 88.6875 C 159.886719 88.183594 159.640625 87.667969 159.421875 87.136719 C 159.203125 86.609375 159.011719 86.070312 158.84375 85.519531 C 158.679688 84.972656 158.539062 84.417969 158.425781 83.855469 C 158.316406 83.292969 158.230469 82.730469 158.175781 82.160156 C 158.121094 81.589844 158.089844 81.015625 158.089844 80.445312 L 158.089844 66.453125 L 164.238281 66.453125 C 166.667969 66.460938 169.082031 66.242188 171.476562 65.800781 C 173.867188 65.355469 176.199219 64.695312 178.464844 63.8125 C 180.734375 62.933594 182.902344 61.851562 184.96875 60.566406 C 187.035156 59.28125 188.964844 57.816406 190.753906 56.171875 C 191.09375 56.292969 191.40625 56.464844 191.691406 56.679688 C 191.976562 56.898438 192.222656 57.15625 192.429688 57.449219 C 192.636719 57.746094 192.796875 58.0625 192.902344 58.40625 C 193.011719 58.75 193.066406 59.097656 193.066406 59.460938 Z M 201.8125 80.445312 L 200.0625 80.445312 L 200.0625 69.953125 L 201.8125 69.953125 C 202.15625 69.953125 202.496094 69.984375 202.835938 70.054688 C 203.171875 70.121094 203.5 70.21875 203.820312 70.351562 C 204.136719 70.484375 204.441406 70.644531 204.726562 70.835938 C 205.011719 71.027344 205.277344 71.246094 205.519531 71.488281 C 205.765625 71.730469 205.980469 71.996094 206.171875 72.285156 C 206.363281 72.570312 206.527344 72.871094 206.660156 73.191406 C 206.789062 73.507812 206.890625 73.835938 206.957031 74.175781 C 207.023438 74.511719 207.058594 74.855469 207.058594 75.199219 C 207.058594 75.542969 207.023438 75.882812 206.957031 76.222656 C 206.890625 76.558594 206.789062 76.886719 206.660156 77.207031 C 206.527344 77.523438 206.363281 77.828125 206.171875 78.113281 C 205.980469 78.398438 205.765625 78.664062 205.519531 78.90625 C 205.277344 79.152344 205.011719 79.371094 204.726562 79.558594 C 204.441406 79.75 204.136719 79.914062 203.820312 80.046875 C 203.5 80.175781 203.171875 80.277344 202.835938 80.34375 C 202.496094 80.410156 202.15625 80.445312 201.8125 80.445312 Z M 168.585938 31.476562 L 182.007812 31.476562 C 182.625 31.476562 183.238281 31.523438 183.851562 31.621094 C 184.460938 31.714844 185.058594 31.859375 185.648438 32.046875 C 186.238281 32.238281 186.804688 32.472656 187.359375 32.75 C 187.910156 33.03125 188.433594 33.351562 188.9375 33.710938 C 189.4375 34.074219 189.90625 34.472656 190.347656 34.90625 C 190.785156 35.339844 191.1875 35.808594 191.554688 36.304688 C 191.917969 36.804688 192.246094 37.328125 192.527344 37.875 C 192.8125 38.425781 193.050781 38.992188 193.246094 39.578125 C 193.421875 40.101562 193.703125 40.554688 194.089844 40.945312 C 194.480469 41.335938 194.9375 41.617188 195.460938 41.789062 C 196.046875 41.984375 196.613281 42.222656 197.160156 42.507812 C 197.710938 42.792969 198.234375 43.117188 198.730469 43.484375 C 199.230469 43.847656 199.695312 44.25 200.132812 44.691406 C 200.566406 45.128906 200.964844 45.597656 201.324219 46.101562 C 201.6875 46.601562 202.007812 47.128906 202.285156 47.679688 C 202.5625 48.230469 202.796875 48.800781 202.988281 49.386719 C 203.179688 49.976562 203.320312 50.574219 203.417969 51.183594 C 203.511719 51.796875 203.558594 52.410156 203.558594 53.027344 L 203.558594 63.136719 C 202.980469 63.03125 202.398438 62.972656 201.8125 62.957031 L 200.0625 62.957031 L 200.0625 59.460938 C 200.0625 58.769531 199.996094 58.085938 199.859375 57.410156 C 199.726562 56.738281 199.527344 56.082031 199.265625 55.445312 C 199 54.808594 198.675781 54.203125 198.292969 53.628906 C 197.910156 53.058594 197.476562 52.527344 196.988281 52.039062 C 196.503906 51.550781 195.972656 51.117188 195.398438 50.734375 C 194.828125 50.351562 194.222656 50.027344 193.585938 49.765625 C 192.949219 49.5 192.292969 49.300781 191.617188 49.167969 C 190.941406 49.035156 190.257812 48.964844 189.570312 48.964844 C 188.605469 48.964844 187.78125 49.308594 187.097656 49.992188 C 185.597656 51.496094 183.96875 52.839844 182.203125 54.023438 C 180.441406 55.207031 178.578125 56.203125 176.613281 57.015625 C 174.652344 57.828125 172.628906 58.441406 170.546875 58.851562 C 168.464844 59.261719 166.359375 59.464844 164.238281 59.460938 L 154.59375 59.460938 C 154.128906 59.460938 153.683594 59.546875 153.253906 59.726562 C 152.828125 59.902344 152.449219 60.15625 152.121094 60.484375 C 151.792969 60.8125 151.539062 61.191406 151.363281 61.617188 C 151.183594 62.046875 151.097656 62.492188 151.097656 62.957031 L 149.347656 62.957031 C 148.761719 62.972656 148.175781 63.03125 147.597656 63.136719 L 147.597656 52.464844 C 147.597656 51.777344 147.632812 51.089844 147.703125 50.40625 C 147.769531 49.722656 147.871094 49.046875 148.003906 48.371094 C 148.140625 47.699219 148.308594 47.03125 148.507812 46.375 C 148.707031 45.71875 148.9375 45.070312 149.203125 44.4375 C 149.464844 43.800781 149.757812 43.179688 150.082031 42.574219 C 150.40625 41.96875 150.761719 41.382812 151.140625 40.808594 C 151.523438 40.238281 151.933594 39.6875 152.367188 39.15625 C 152.804688 38.625 153.265625 38.117188 153.75 37.632812 C 154.238281 37.144531 154.746094 36.683594 155.277344 36.25 C 155.808594 35.8125 156.359375 35.402344 156.929688 35.023438 C 157.5 34.640625 158.089844 34.285156 158.695312 33.960938 C 159.300781 33.636719 159.921875 33.34375 160.554688 33.082031 C 161.191406 32.816406 161.835938 32.585938 162.496094 32.386719 C 163.152344 32.1875 163.816406 32.019531 164.492188 31.886719 C 165.164062 31.75 165.84375 31.648438 166.527344 31.582031 C 167.210938 31.511719 167.898438 31.480469 168.585938 31.476562 Z M 144.101562 75.199219 C 144.101562 74.855469 144.132812 74.511719 144.203125 74.175781 C 144.269531 73.835938 144.367188 73.507812 144.5 73.191406 C 144.632812 72.871094 144.792969 72.570312 144.984375 72.285156 C 145.175781 71.996094 145.394531 71.730469 145.636719 71.488281 C 145.882812 71.246094 146.144531 71.027344 146.433594 70.835938 C 146.71875 70.644531 147.019531 70.484375 147.339844 70.351562 C 147.65625 70.21875 147.984375 70.121094 148.324219 70.054688 C 148.660156 69.984375 149.003906 69.953125 149.347656 69.953125 L 151.097656 69.953125 L 151.097656 80.445312 L 149.347656 80.445312 C 148.851562 80.429688 148.367188 80.34375 147.890625 80.1875 C 146.84375 79.238281 145.773438 78.324219 144.652344 77.457031 C 144.296875 76.746094 144.113281 75.992188 144.101562 75.199219 Z M 158.089844 118.917969 C 158.089844 120.40625 158.019531 121.894531 157.871094 123.375 C 157.726562 124.855469 157.507812 126.328125 157.21875 127.789062 C 156.925781 129.25 156.566406 130.691406 156.132812 132.117188 C 155.703125 133.542969 155.199219 134.941406 154.628906 136.320312 C 154.058594 137.695312 153.425781 139.039062 152.722656 140.351562 C 152.019531 141.664062 151.253906 142.941406 150.429688 144.179688 C 149.601562 145.417969 148.714844 146.613281 147.769531 147.761719 C 146.824219 148.914062 145.828125 150.015625 144.773438 151.070312 C 143.722656 152.121094 142.617188 153.121094 141.46875 154.066406 C 140.316406 155.011719 139.121094 155.898438 137.882812 156.722656 C 136.644531 157.550781 135.371094 158.316406 134.054688 159.019531 C 132.742188 159.71875 131.398438 160.355469 130.023438 160.925781 C 128.648438 161.496094 127.246094 161.996094 125.820312 162.429688 C 124.394531 162.863281 122.953125 163.222656 121.492188 163.511719 C 120.03125 163.804688 118.5625 164.023438 117.078125 164.167969 C 115.597656 164.3125 114.113281 164.386719 112.621094 164.386719 C 111.132812 164.386719 109.648438 164.3125 108.164062 164.167969 C 106.683594 164.023438 105.210938 163.804688 103.753906 163.511719 C 102.292969 163.222656 100.847656 162.863281 99.421875 162.429688 C 98 161.996094 96.597656 161.496094 95.222656 160.925781 C 93.847656 160.355469 92.503906 159.71875 91.1875 159.019531 C 89.875 158.316406 88.601562 157.550781 87.363281 156.722656 C 86.125 155.898438 84.929688 155.011719 83.777344 154.066406 C 82.625 153.121094 81.523438 152.121094 80.472656 151.070312 C 79.417969 150.015625 78.417969 148.914062 77.476562 147.761719 C 76.53125 146.613281 75.644531 145.417969 74.816406 144.179688 C 73.988281 142.941406 73.226562 141.664062 72.523438 140.351562 C 71.820312 139.039062 71.183594 137.695312 70.613281 136.320312 C 70.046875 134.941406 69.542969 133.542969 69.113281 132.117188 C 68.679688 130.691406 68.316406 129.25 68.027344 127.789062 C 67.738281 126.328125 67.519531 124.855469 67.371094 123.375 C 67.226562 121.894531 67.152344 120.40625 67.152344 118.917969 C 67.152344 117.429688 67.226562 115.945312 67.371094 114.460938 C 67.519531 112.980469 67.738281 111.507812 68.027344 110.046875 C 68.316406 108.585938 68.679688 107.144531 69.113281 105.71875 C 69.542969 104.292969 70.046875 102.894531 70.613281 101.519531 C 71.183594 100.140625 71.820312 98.796875 72.523438 97.484375 C 73.226562 96.171875 73.988281 94.894531 74.816406 93.65625 C 75.644531 92.417969 76.53125 91.222656 77.476562 90.074219 C 78.417969 88.921875 79.417969 87.820312 80.472656 86.765625 C 81.523438 85.714844 82.625 84.714844 83.777344 83.769531 C 84.929688 82.824219 86.125 81.941406 87.363281 81.113281 C 88.601562 80.285156 89.875 79.519531 91.1875 78.820312 C 92.503906 78.117188 93.847656 77.480469 95.222656 76.910156 C 96.597656 76.339844 98 75.839844 99.421875 75.40625 C 100.847656 74.976562 102.292969 74.613281 103.753906 74.324219 C 105.210938 74.03125 106.683594 73.8125 108.164062 73.667969 C 109.648438 73.523438 111.132812 73.449219 112.621094 73.449219 C 114.109375 73.449219 115.597656 73.527344 117.078125 73.671875 C 118.558594 73.820312 120.03125 74.039062 121.488281 74.332031 C 122.949219 74.621094 124.390625 74.984375 125.816406 75.417969 C 127.242188 75.851562 128.640625 76.351562 130.015625 76.921875 C 131.390625 77.496094 132.734375 78.128906 134.046875 78.832031 C 135.359375 79.535156 136.632812 80.300781 137.871094 81.128906 C 139.109375 81.953125 140.304688 82.839844 141.453125 83.785156 C 142.605469 84.730469 143.707031 85.730469 144.757812 86.78125 C 145.8125 87.835938 146.8125 88.9375 147.753906 90.085938 C 148.699219 91.238281 149.585938 92.429688 150.414062 93.667969 C 151.242188 94.90625 152.003906 96.179688 152.707031 97.496094 C 153.410156 98.808594 154.046875 100.152344 154.617188 101.527344 C 155.1875 102.902344 155.6875 104.300781 156.121094 105.726562 C 156.554688 107.148438 156.917969 108.589844 157.210938 110.050781 C 157.5 111.511719 157.71875 112.980469 157.867188 114.464844 C 158.015625 115.945312 158.089844 117.429688 158.089844 118.917969 Z M 68.355469 146.957031 C 70.078125 149.65625 72.027344 152.179688 74.203125 154.527344 L 77.398438 173.679688 L 70.652344 180.425781 L 63.90625 173.679688 Z M 84.59375 174.304688 L 82.496094 161.8125 C 86.414062 164.574219 90.636719 166.753906 95.160156 168.347656 C 99.683594 169.941406 104.339844 170.894531 109.125 171.203125 L 109.125 181.875 L 79.09375 181.875 L 83.617188 177.351562 C 84.015625 176.953125 84.300781 176.484375 84.472656 175.949219 C 84.644531 175.410156 84.6875 174.863281 84.59375 174.304688 Z M 98.632812 62.957031 L 98.632812 52.464844 C 99.089844 52.464844 99.546875 52.507812 99.996094 52.597656 C 100.449219 52.6875 100.886719 52.820312 101.308594 52.996094 C 101.734375 53.171875 102.136719 53.386719 102.519531 53.644531 C 102.902344 53.898438 103.253906 54.1875 103.578125 54.511719 C 103.902344 54.835938 104.191406 55.191406 104.449219 55.574219 C 104.703125 55.953125 104.917969 56.359375 105.09375 56.78125 C 105.269531 57.207031 105.402344 57.644531 105.492188 58.09375 C 105.582031 58.546875 105.628906 59 105.628906 59.460938 C 105.628906 59.917969 105.582031 60.375 105.492188 60.824219 C 105.402344 61.273438 105.269531 61.710938 105.09375 62.136719 C 104.917969 62.558594 104.703125 62.964844 104.449219 63.34375 C 104.191406 63.726562 103.902344 64.082031 103.578125 64.40625 C 103.253906 64.730469 102.902344 65.019531 102.519531 65.277344 C 102.136719 65.53125 101.734375 65.746094 101.308594 65.921875 C 100.886719 66.097656 100.449219 66.230469 99.996094 66.320312 C 99.546875 66.410156 99.089844 66.453125 98.632812 66.453125 L 98.40625 66.453125 C 98.554688 65.292969 98.628906 64.128906 98.632812 62.957031 Z M 63.65625 6.996094 L 80.578125 6.996094 C 81.195312 6.996094 81.808594 7.042969 82.421875 7.136719 C 83.03125 7.234375 83.628906 7.375 84.21875 7.566406 C 84.804688 7.753906 85.375 7.988281 85.925781 8.269531 C 86.480469 8.546875 87.003906 8.867188 87.507812 9.226562 C 88.007812 9.589844 88.476562 9.988281 88.917969 10.421875 C 89.355469 10.859375 89.757812 11.324219 90.125 11.820312 C 90.488281 12.320312 90.8125 12.84375 91.097656 13.394531 C 91.382812 13.941406 91.621094 14.507812 91.816406 15.09375 C 91.988281 15.617188 92.273438 16.074219 92.660156 16.460938 C 93.050781 16.851562 93.507812 17.132812 94.03125 17.304688 C 94.617188 17.5 95.183594 17.742188 95.730469 18.023438 C 96.28125 18.308594 96.804688 18.632812 97.300781 19 C 97.800781 19.367188 98.265625 19.769531 98.703125 20.207031 C 99.136719 20.644531 99.535156 21.117188 99.894531 21.617188 C 100.257812 22.121094 100.578125 22.644531 100.855469 23.199219 C 101.136719 23.75 101.367188 24.320312 101.558594 24.90625 C 101.75 25.496094 101.890625 26.09375 101.988281 26.703125 C 102.082031 27.316406 102.128906 27.929688 102.128906 28.546875 L 102.128906 45.964844 C 100.984375 45.648438 99.820312 45.484375 98.632812 45.46875 L 98.632812 38.472656 C 98.632812 37.785156 98.566406 37.101562 98.429688 36.425781 C 98.296875 35.75 98.097656 35.09375 97.832031 34.457031 C 97.570312 33.820312 97.246094 33.21875 96.863281 32.644531 C 96.480469 32.070312 96.046875 31.542969 95.558594 31.054688 C 95.070312 30.566406 94.542969 30.132812 93.96875 29.75 C 93.394531 29.367188 92.792969 29.042969 92.15625 28.78125 C 91.519531 28.515625 90.863281 28.316406 90.1875 28.183594 C 89.511719 28.046875 88.828125 27.980469 88.140625 27.980469 C 87.171875 27.980469 86.347656 28.324219 85.667969 29.003906 C 83.617188 31.066406 81.382812 32.910156 78.96875 34.527344 C 76.550781 36.144531 74 37.511719 71.3125 38.625 C 68.628906 39.738281 65.859375 40.574219 63.003906 41.140625 C 60.152344 41.703125 57.269531 41.980469 54.363281 41.972656 L 46.167969 41.972656 C 45.703125 41.972656 45.257812 42.058594 44.828125 42.238281 C 44.402344 42.414062 44.023438 42.667969 43.695312 42.996094 C 43.367188 43.324219 43.113281 43.703125 42.9375 44.128906 C 42.757812 44.558594 42.671875 45.003906 42.671875 45.46875 C 41.484375 45.484375 40.316406 45.648438 39.171875 45.964844 L 39.171875 31.476562 C 39.175781 30.675781 39.214844 29.878906 39.292969 29.078125 C 39.371094 28.28125 39.492188 27.488281 39.648438 26.703125 C 39.804688 25.917969 40 25.140625 40.234375 24.375 C 40.46875 23.609375 40.738281 22.855469 41.042969 22.113281 C 41.351562 21.371094 41.695312 20.648438 42.070312 19.941406 C 42.449219 19.234375 42.863281 18.550781 43.308594 17.882812 C 43.753906 17.214844 44.230469 16.574219 44.738281 15.953125 C 45.246094 15.335938 45.785156 14.742188 46.351562 14.175781 C 46.917969 13.609375 47.511719 13.070312 48.132812 12.5625 C 48.75 12.050781 49.394531 11.574219 50.0625 11.128906 C 50.726562 10.683594 51.414062 10.273438 52.121094 9.894531 C 52.828125 9.515625 53.550781 9.171875 54.292969 8.867188 C 55.03125 8.558594 55.785156 8.289062 56.550781 8.054688 C 57.320312 7.824219 58.09375 7.628906 58.882812 7.46875 C 59.667969 7.3125 60.460938 7.195312 61.257812 7.117188 C 62.054688 7.035156 62.855469 6.996094 63.65625 6.996094 Z M 42.671875 66.453125 C 42.210938 66.453125 41.757812 66.410156 41.304688 66.320312 C 40.855469 66.230469 40.417969 66.097656 39.992188 65.921875 C 39.570312 65.746094 39.167969 65.53125 38.785156 65.277344 C 38.402344 65.019531 38.050781 64.730469 37.722656 64.40625 C 37.398438 64.082031 37.109375 63.726562 36.855469 63.34375 C 36.597656 62.964844 36.382812 62.558594 36.207031 62.136719 C 36.03125 61.710938 35.898438 61.273438 35.808594 60.824219 C 35.71875 60.375 35.675781 59.917969 35.675781 59.460938 C 35.675781 59 35.71875 58.546875 35.808594 58.09375 C 35.898438 57.644531 36.03125 57.207031 36.207031 56.78125 C 36.382812 56.359375 36.597656 55.953125 36.855469 55.574219 C 37.109375 55.191406 37.398438 54.835938 37.722656 54.511719 C 38.050781 54.1875 38.402344 53.898438 38.785156 53.644531 C 39.167969 53.386719 39.570312 53.171875 39.992188 52.996094 C 40.417969 52.820312 40.855469 52.6875 41.304688 52.597656 C 41.757812 52.507812 42.210938 52.464844 42.671875 52.464844 L 42.671875 62.957031 C 42.679688 64.128906 42.757812 65.292969 42.910156 66.453125 Z M 49.664062 62.957031 L 49.664062 48.964844 L 54.363281 48.964844 C 57.582031 48.976562 60.773438 48.683594 63.933594 48.085938 C 67.097656 47.492188 70.175781 46.601562 73.167969 45.421875 C 76.164062 44.246094 79.019531 42.792969 81.738281 41.074219 C 84.457031 39.351562 86.992188 37.390625 89.339844 35.1875 C 89.675781 35.3125 89.984375 35.484375 90.269531 35.703125 C 90.554688 35.917969 90.800781 36.175781 91.003906 36.46875 C 91.210938 36.761719 91.367188 37.082031 91.476562 37.421875 C 91.582031 37.765625 91.636719 38.113281 91.636719 38.472656 L 91.636719 62.957031 C 91.636719 66.066406 90.96875 69.023438 89.636719 71.832031 C 83.632812 74.777344 78.378906 78.722656 73.878906 83.667969 C 73.132812 83.792969 72.382812 83.871094 71.628906 83.914062 C 70.871094 83.953125 70.117188 83.953125 69.363281 83.910156 C 68.605469 83.871094 67.855469 83.785156 67.109375 83.664062 C 66.363281 83.539062 65.625 83.375 64.898438 83.171875 C 64.167969 82.96875 63.453125 82.726562 62.753906 82.445312 C 62.050781 82.164062 61.367188 81.84375 60.699219 81.488281 C 60.03125 81.132812 59.386719 80.742188 58.761719 80.3125 C 58.136719 79.886719 57.535156 79.429688 56.960938 78.9375 C 56.386719 78.445312 55.839844 77.925781 55.324219 77.375 C 54.804688 76.820312 54.320312 76.246094 53.863281 75.640625 C 53.40625 75.035156 52.988281 74.410156 52.601562 73.757812 C 52.214844 73.109375 51.863281 72.441406 51.546875 71.753906 C 51.234375 71.066406 50.957031 70.363281 50.722656 69.644531 C 50.484375 68.925781 50.285156 68.195312 50.128906 67.457031 C 49.96875 66.71875 49.851562 65.972656 49.773438 65.21875 C 49.695312 64.46875 49.660156 63.714844 49.664062 62.957031 Z M 68.390625 90.820312 C 66.832031 93.246094 65.476562 95.78125 64.335938 98.425781 L 60.160156 93.207031 L 60.160156 88.878906 C 62.804688 89.949219 65.546875 90.597656 68.390625 90.820312 Z M 55.527344 98.632812 L 61.738281 106.394531 C 60.984375 109.457031 60.511719 112.566406 60.324219 115.71875 L 54.660156 120.265625 L 47.28125 101.78125 Z M 11.074219 131.640625 C 11.140625 130.4375 11.292969 129.242188 11.53125 128.058594 C 11.769531 126.875 12.09375 125.714844 12.5 124.574219 C 12.90625 123.4375 13.390625 122.335938 13.953125 121.265625 C 14.519531 120.199219 15.15625 119.175781 15.867188 118.203125 C 16.578125 117.226562 17.355469 116.304688 18.199219 115.441406 C 19.042969 114.574219 19.941406 113.777344 20.902344 113.039062 C 21.859375 112.304688 22.867188 111.644531 23.917969 111.054688 C 24.972656 110.460938 26.0625 109.949219 27.191406 109.515625 L 40.75 104.300781 L 49.914062 127.210938 C 50.015625 127.464844 50.144531 127.703125 50.300781 127.925781 C 50.460938 128.152344 50.640625 128.351562 50.84375 128.535156 C 51.050781 128.714844 51.273438 128.871094 51.511719 129 C 51.753906 129.128906 52.007812 129.226562 52.269531 129.296875 C 52.535156 129.367188 52.804688 129.40625 53.078125 129.410156 C 53.351562 129.417969 53.621094 129.394531 53.886719 129.335938 C 54.15625 129.28125 54.410156 129.195312 54.660156 129.078125 C 54.90625 128.960938 55.136719 128.816406 55.347656 128.644531 L 57.644531 126.808594 L 61.871094 131.976562 C 62.222656 133.351562 62.625 134.710938 63.085938 136.039062 L 56.710938 174.304688 C 56.617188 174.863281 56.65625 175.410156 56.828125 175.949219 C 57 176.484375 57.285156 176.953125 57.6875 177.351562 L 62.207031 181.875 L 32.179688 181.875 L 32.179688 143.402344 L 25.183594 143.402344 L 25.183594 181.875 L 7.921875 181.875 Z M 116.121094 181.875 L 116.121094 171.203125 C 121.777344 170.84375 127.226562 169.59375 132.476562 167.453125 L 133.378906 181.875 Z M 140.78125 163.113281 C 147.304688 158.941406 152.648438 153.597656 156.816406 147.074219 L 163.636719 153.894531 L 147.597656 169.933594 Z M 203.558594 203.460938 C 203.558594 204.09375 203.46875 204.710938 203.285156 205.316406 C 203.097656 205.921875 202.832031 206.488281 202.480469 207.011719 C 202.128906 207.539062 201.710938 208 201.21875 208.402344 C 200.730469 208.804688 200.195312 209.125 199.613281 209.367188 C 199.027344 209.609375 198.421875 209.761719 197.792969 209.824219 C 197.164062 209.886719 196.539062 209.855469 195.917969 209.730469 C 195.296875 209.609375 194.710938 209.398438 194.152344 209.101562 C 193.59375 208.804688 193.089844 208.429688 192.644531 207.984375 L 156.046875 171.382812 L 165.085938 162.335938 L 201.683594 198.933594 C 202.289062 199.53125 202.75 200.222656 203.078125 201.007812 C 203.402344 201.792969 203.5625 202.613281 203.558594 203.460938 Z M 210.554688 150.398438 L 203.558594 150.398438 L 203.558594 139.902344 L 196.566406 139.902344 L 196.566406 150.398438 L 185.605469 150.398438 L 182.789062 130.648438 L 184.464844 128.96875 C 184.964844 129.25 185.5 129.394531 186.070312 129.410156 L 186.265625 129.410156 C 187.304688 129.355469 188.152344 128.917969 188.804688 128.105469 L 199.058594 115.289062 L 199.632812 115.429688 C 200.40625 115.625 201.160156 115.878906 201.894531 116.195312 C 202.625 116.515625 203.328125 116.890625 203.996094 117.324219 C 204.664062 117.757812 205.296875 118.246094 205.882812 118.785156 C 206.472656 119.324219 207.011719 119.910156 207.503906 120.539062 C 207.996094 121.167969 208.429688 121.832031 208.8125 122.535156 C 209.191406 123.234375 209.511719 123.964844 209.773438 124.71875 C 210.03125 125.472656 210.226562 126.246094 210.359375 127.03125 C 210.492188 127.820312 210.554688 128.613281 210.554688 129.410156 Z M 210.554688 150.398438 " fill-opacity="1" fill-rule="nonzero"/><path fill="#3c3b6e" d="M 98.429688 125.5625 C 99.605469 127.128906 100.507812 128.839844 101.140625 130.691406 C 101.773438 132.542969 102.101562 134.449219 102.128906 136.40625 L 102.128906 143.402344 C 102.128906 144.089844 102.195312 144.773438 102.332031 145.449219 C 102.464844 146.125 102.664062 146.78125 102.929688 147.417969 C 103.191406 148.054688 103.515625 148.65625 103.898438 149.230469 C 104.28125 149.804688 104.714844 150.332031 105.203125 150.820312 C 105.691406 151.308594 106.21875 151.742188 106.792969 152.125 C 107.367188 152.507812 107.96875 152.832031 108.605469 153.09375 C 109.242188 153.359375 109.898438 153.558594 110.574219 153.691406 C 111.25 153.828125 111.933594 153.894531 112.621094 153.894531 C 113.3125 153.894531 113.992188 153.828125 114.667969 153.691406 C 115.34375 153.558594 116 153.359375 116.636719 153.09375 C 117.273438 152.832031 117.878906 152.507812 118.453125 152.125 C 119.023438 151.742188 119.554688 151.308594 120.042969 150.820312 C 120.527344 150.332031 120.964844 149.804688 121.347656 149.230469 C 121.730469 148.65625 122.054688 148.054688 122.316406 147.417969 C 122.582031 146.78125 122.78125 146.125 122.914062 145.449219 C 123.046875 144.773438 123.117188 144.089844 123.117188 143.402344 L 123.117188 136.40625 C 123.140625 134.449219 123.472656 132.542969 124.105469 130.691406 C 124.738281 128.839844 125.640625 127.128906 126.816406 125.5625 C 127.886719 124.089844 128.707031 122.488281 129.269531 120.753906 C 129.832031 119.019531 130.113281 117.242188 130.109375 115.421875 C 130.109375 114.847656 130.082031 114.277344 130.027344 113.707031 C 129.96875 113.136719 129.886719 112.570312 129.773438 112.007812 C 129.664062 111.445312 129.523438 110.890625 129.359375 110.34375 C 129.191406 109.796875 129 109.257812 128.78125 108.726562 C 128.558594 108.199219 128.316406 107.683594 128.046875 107.175781 C 127.777344 106.671875 127.480469 106.179688 127.164062 105.703125 C 126.84375 105.230469 126.503906 104.769531 126.140625 104.328125 C 125.777344 103.882812 125.394531 103.460938 124.988281 103.054688 C 124.582031 102.648438 124.160156 102.265625 123.71875 101.902344 C 123.273438 101.539062 122.816406 101.199219 122.339844 100.878906 C 121.863281 100.5625 121.371094 100.269531 120.867188 99.996094 C 120.359375 99.726562 119.84375 99.484375 119.316406 99.265625 C 118.785156 99.042969 118.246094 98.851562 117.699219 98.6875 C 117.152344 98.519531 116.597656 98.378906 116.035156 98.269531 C 115.472656 98.15625 114.90625 98.074219 114.335938 98.015625 C 113.765625 97.960938 113.195312 97.933594 112.621094 97.933594 C 112.050781 97.933594 111.476562 97.960938 110.910156 98.015625 C 110.339844 98.074219 109.773438 98.15625 109.210938 98.269531 C 108.648438 98.378906 108.09375 98.519531 107.546875 98.6875 C 106.996094 98.851562 106.460938 99.042969 105.929688 99.265625 C 105.402344 99.484375 104.882812 99.726562 104.378906 99.996094 C 103.875 100.269531 103.382812 100.5625 102.90625 100.878906 C 102.429688 101.199219 101.972656 101.539062 101.527344 101.902344 C 101.085938 102.265625 100.660156 102.648438 100.257812 103.054688 C 99.851562 103.460938 99.46875 103.882812 99.105469 104.328125 C 98.742188 104.769531 98.398438 105.230469 98.082031 105.703125 C 97.765625 106.179688 97.46875 106.671875 97.199219 107.175781 C 96.929688 107.683594 96.683594 108.199219 96.464844 108.726562 C 96.246094 109.257812 96.054688 109.796875 95.886719 110.34375 C 95.722656 110.890625 95.582031 111.445312 95.46875 112.007812 C 95.359375 112.570312 95.273438 113.136719 95.21875 113.707031 C 95.164062 114.277344 95.132812 114.847656 95.132812 115.421875 C 95.132812 117.242188 95.414062 119.019531 95.976562 120.753906 C 96.539062 122.488281 97.355469 124.089844 98.429688 125.5625 Z M 112.621094 146.898438 C 112.160156 146.898438 111.710938 146.808594 111.285156 146.632812 C 110.855469 146.457031 110.476562 146.203125 110.148438 145.875 C 109.820312 145.546875 109.570312 145.167969 109.390625 144.738281 C 109.214844 144.3125 109.125 143.867188 109.125 143.402344 L 109.125 139.902344 L 116.121094 139.902344 L 116.121094 143.402344 C 116.121094 143.867188 116.03125 144.3125 115.855469 144.738281 C 115.675781 145.167969 115.421875 145.546875 115.097656 145.875 C 114.769531 146.203125 114.390625 146.457031 113.960938 146.632812 C 113.53125 146.808594 113.085938 146.898438 112.621094 146.898438 Z M 112.621094 104.929688 C 113.3125 104.929688 113.992188 104.996094 114.667969 105.128906 C 115.34375 105.265625 116 105.464844 116.636719 105.726562 C 117.273438 105.992188 117.878906 106.3125 118.453125 106.695312 C 119.023438 107.078125 119.554688 107.515625 120.042969 108 C 120.527344 108.488281 120.964844 109.019531 121.347656 109.589844 C 121.730469 110.164062 122.054688 110.769531 122.316406 111.40625 C 122.582031 112.042969 122.78125 112.699219 122.914062 113.375 C 123.046875 114.050781 123.117188 114.730469 123.117188 115.421875 C 123.121094 117.652344 122.464844 119.667969 121.148438 121.472656 C 118.636719 124.898438 117.058594 128.710938 116.410156 132.910156 L 108.835938 132.910156 C 108.1875 128.710938 106.609375 124.898438 104.09375 121.472656 C 102.78125 119.667969 102.125 117.652344 102.128906 115.421875 C 102.128906 114.730469 102.195312 114.050781 102.332031 113.375 C 102.464844 112.699219 102.664062 112.042969 102.929688 111.40625 C 103.191406 110.769531 103.515625 110.164062 103.898438 109.589844 C 104.28125 109.019531 104.714844 108.488281 105.203125 108 C 105.691406 107.515625 106.21875 107.078125 106.792969 106.695312 C 107.367188 106.3125 107.96875 105.992188 108.605469 105.726562 C 109.242188 105.464844 109.898438 105.265625 110.574219 105.128906 C 111.25 104.996094 111.933594 104.929688 112.621094 104.929688 Z M 112.621094 104.929688 " fill-opacity="1" fill-rule="nonzero"/><path fill="#3c3b6e" d="M 109.125 83.941406 L 116.121094 83.941406 L 116.121094 94.433594 L 109.125 94.433594 Z M 109.125 83.941406 " fill-opacity="1" fill-rule="nonzero"/><path fill="#3c3b6e" d="M 133.609375 111.921875 L 144.101562 111.921875 L 144.101562 118.917969 L 133.609375 118.917969 Z M 133.609375 111.921875 " fill-opacity="1" fill-rule="nonzero"/><path fill="#3c3b6e" d="M 81.144531 111.921875 L 91.636719 111.921875 L 91.636719 118.917969 L 81.144531 118.917969 Z M 81.144531 111.921875 " fill-opacity="1" fill-rule="nonzero"/><path fill="#3c3b6e" d="M 124.988281 98.113281 L 132.40625 90.691406 L 137.355469 95.640625 L 129.933594 103.058594 Z M 124.988281 98.113281 " fill-opacity="1" fill-rule="nonzero"/><path fill="#3c3b6e" d="M 87.890625 135.203125 L 95.3125 127.785156 L 100.257812 132.730469 L 92.839844 140.152344 Z M 87.890625 135.203125 " fill-opacity="1" fill-rule="nonzero"/><path fill="#3c3b6e" d="M 124.988281 132.726562 L 129.933594 127.78125 L 137.351562 135.203125 L 132.40625 140.148438 Z M 124.988281 132.726562 " fill-opacity="1" fill-rule="nonzero"/><path fill="#3c3b6e" d="M 87.894531 95.632812 L 92.839844 90.6875 L 100.257812 98.105469 L 95.3125 103.050781 Z M 87.894531 95.632812 " fill-opacity="1" fill-rule="nonzero"/></svg>