<svg xmlns="http://www.w3.org/2000/svg" xmlns:xlink="http://www.w3.org/1999/xlink" zoomAndPan="magnify" viewBox="0 0 230 165" preserveAspectRatio="xMidYMid meet" version="1.0"><defs><clipPath id="287620c464"><path d="M 0 0 L 218.25 0 L 218.25 167.25 L 0 167.25 Z M 0 0 " clip-rule="nonzero"/></clipPath></defs><g clip-path="url(#287620c464)"><path fill="#51459e" d="M 194.230469 20.636719 L 153.21875 44.628906 C 153.902344 46.21875 154.28125 47.972656 154.28125 49.8125 C 154.28125 57.074219 148.382812 62.960938 141.109375 62.960938 C 138.851562 62.960938 136.722656 62.394531 134.863281 61.390625 L 98.261719 117.132812 C 100.890625 119.535156 102.539062 122.992188 102.539062 126.832031 C 102.539062 134.09375 96.644531 139.980469 89.371094 139.980469 C 84.496094 139.980469 80.242188 137.339844 77.964844 133.410156 L 26.15625 151.875 C 26.277344 152.589844 26.339844 153.320312 26.339844 154.070312 C 26.339844 161.332031 20.445312 167.21875 13.171875 167.21875 C 5.898438 167.21875 0 161.332031 0 154.070312 C 0 146.808594 5.898438 140.921875 13.171875 140.921875 C 18.703125 140.921875 23.441406 144.328125 25.390625 149.15625 L 76.816406 130.824219 C 76.417969 129.566406 76.199219 128.222656 76.199219 126.832031 C 76.199219 119.570312 82.097656 113.679688 89.371094 113.679688 C 91.78125 113.679688 94.042969 114.328125 95.984375 115.457031 L 132.539062 59.796875 C 129.722656 57.382812 127.941406 53.804688 127.941406 49.8125 C 127.941406 42.550781 133.835938 36.660156 141.109375 36.660156 C 145.53125 36.660156 149.445312 38.835938 151.832031 42.175781 L 192.886719 18.160156 C 192.257812 16.625 191.910156 14.941406 191.910156 13.179688 C 191.910156 5.917969 197.804688 0.03125 205.078125 0.03125 C 212.355469 0.03125 218.25 5.917969 218.25 13.179688 C 218.25 20.441406 212.355469 26.332031 205.078125 26.332031 C 200.578125 26.332031 196.605469 24.078125 194.230469 20.636719 Z M 196.863281 19.097656 C 198.703125 21.640625 201.699219 23.296875 205.078125 23.296875 C 210.675781 23.296875 215.210938 18.765625 215.210938 13.179688 C 215.210938 7.59375 210.675781 3.066406 205.078125 3.066406 C 199.484375 3.066406 194.949219 7.59375 194.949219 13.179688 C 194.949219 14.625 195.253906 16 195.800781 17.242188 L 196.882812 19.085938 Z M 145.945312 45.441406 L 139.484375 52.375 C 139.132812 52.757812 138.535156 52.777344 138.15625 52.425781 C 138.132812 52.402344 138.109375 52.378906 138.089844 52.355469 L 135.703125 49.652344 C 135.351562 49.25 134.738281 49.203125 134.324219 49.546875 C 133.929688 49.875 133.875 50.464844 134.203125 50.859375 C 134.207031 50.867188 134.214844 50.875 134.222656 50.882812 L 138.050781 55.21875 C 138.390625 55.609375 138.988281 55.648438 139.375 55.304688 C 139.398438 55.285156 139.421875 55.261719 139.445312 55.238281 L 147.433594 46.664062 C 147.773438 46.296875 147.753906 45.726562 147.386719 45.382812 C 147.375 45.371094 147.359375 45.359375 147.347656 45.347656 C 146.925781 45.003906 146.3125 45.046875 145.945312 45.441406 Z M 18.003906 149.699219 L 11.546875 156.632812 C 11.191406 157.015625 10.597656 157.035156 10.214844 156.683594 C 10.191406 156.660156 10.171875 156.636719 10.152344 156.613281 L 7.765625 153.910156 C 7.410156 153.507812 6.800781 153.460938 6.386719 153.804688 C 5.988281 154.132812 5.933594 154.722656 6.261719 155.117188 C 6.269531 155.125 6.277344 155.132812 6.28125 155.140625 L 10.109375 159.476562 C 10.453125 159.867188 11.046875 159.90625 11.4375 159.5625 C 11.460938 159.542969 11.484375 159.519531 11.503906 159.496094 L 19.496094 150.921875 C 19.835938 150.554688 19.816406 149.984375 19.449219 149.640625 C 19.433594 149.628906 19.421875 149.617188 19.40625 149.605469 C 18.988281 149.261719 18.375 149.304688 18.003906 149.699219 Z M 94.207031 122.460938 L 87.746094 129.394531 C 87.390625 129.773438 86.796875 129.796875 86.414062 129.445312 C 86.390625 129.421875 86.371094 129.398438 86.351562 129.375 L 83.964844 126.671875 C 83.609375 126.269531 83 126.222656 82.585938 126.566406 C 82.1875 126.894531 82.132812 127.484375 82.460938 127.878906 C 82.46875 127.886719 82.476562 127.894531 82.480469 127.902344 L 86.308594 132.238281 C 86.652344 132.628906 87.246094 132.667969 87.636719 132.324219 C 87.660156 132.304688 87.683594 132.28125 87.703125 132.257812 L 95.695312 123.683594 C 96.035156 123.316406 96.015625 122.746094 95.648438 122.402344 C 95.632812 122.390625 95.621094 122.378906 95.605469 122.367188 C 95.1875 122.023438 94.574219 122.066406 94.207031 122.460938 Z M 94.207031 122.460938 " fill-opacity="1" fill-rule="nonzero"/></g></svg>