<svg xmlns="http://www.w3.org/2000/svg" xmlns:xlink="http://www.w3.org/1999/xlink" zoomAndPan="magnify" viewBox="0 0 230 230"  preserveAspectRatio="xMidYMid meet" version="1.0"><path fill="#4d429a" d="M 99.722656 218.9375 L 13.773438 218.9375 C 13.011719 218.9375 12.292969 218.589844 11.820312 217.988281 C 11.351562 217.386719 11.179688 216.609375 11.359375 215.867188 C 11.511719 215.230469 26.609375 151.992188 12.546875 129.863281 C 4.257812 116.9375 0.0195312 101.535156 0.292969 85.335938 C 0.550781 70.175781 4.664062 54.996094 12.195312 41.445312 C 26.65625 15.398438 50.902344 0.0585938 77.078125 0.414062 C 103.566406 0.773438 149.640625 11.074219 160.613281 76.066406 C 161.90625 83.726562 158.984375 89.480469 156.636719 94.097656 C 153.886719 99.503906 153.21875 101.46875 155.765625 104.046875 L 156.695312 104.984375 C 164.464844 112.804688 173.269531 121.667969 170.96875 130.011719 C 169.59375 135.011719 164.527344 138.722656 155.511719 141.320312 L 155.511719 176.417969 C 155.511719 177.789062 154.398438 178.902344 153.027344 178.902344 L 102.207031 178.902344 L 102.207031 216.464844 C 102.207031 217.824219 101.09375 218.9375 99.722656 218.9375 Z M 16.894531 213.96875 L 97.238281 213.96875 L 97.238281 176.40625 C 97.238281 175.035156 98.351562 173.925781 99.722656 173.925781 L 150.550781 173.925781 L 150.550781 139.410156 C 150.550781 138.277344 151.320312 137.285156 152.417969 137.007812 C 160.5 134.929688 165.261719 132.054688 166.1875 128.6875 C 167.722656 123.117188 159.65625 115 153.179688 108.476562 L 152.246094 107.539062 C 146.949219 102.195312 149.746094 96.699219 152.210938 91.84375 C 154.332031 87.667969 156.738281 82.929688 155.722656 76.886719 C 145.34375 15.449219 101.953125 5.710938 77.007812 5.371094 C 52.707031 5.050781 30.09375 19.425781 16.53125 43.847656 C 1.519531 70.875 1.597656 103.589844 16.730469 127.1875 C 30.214844 148.402344 19.851562 200.601562 16.894531 213.96875 Z M 16.894531 213.96875 " fill-opacity="1" fill-rule="nonzero"/><path fill="#4d429a" d="M 82.332031 110.210938 C 81.671875 110.210938 81.042969 109.945312 80.574219 109.484375 C 63.703125 92.609375 46.257812 75.160156 46.257812 57.335938 C 46.257812 46.707031 54.90625 38.054688 65.535156 38.054688 C 73.820312 38.054688 78.558594 41.902344 82.328125 47.996094 C 86.097656 41.902344 90.835938 38.054688 99.121094 38.054688 C 109.75 38.054688 118.398438 46.707031 118.398438 57.335938 C 118.398438 75.160156 100.953125 92.609375 84.085938 109.484375 C 83.621094 109.945312 82.988281 110.210938 82.332031 110.210938 Z M 65.535156 43.023438 C 57.640625 43.023438 51.226562 49.441406 51.226562 57.335938 C 51.226562 72.535156 66.742188 88.605469 82.328125 104.214844 C 97.914062 88.605469 113.433594 72.535156 113.433594 57.335938 C 113.433594 49.441406 107.015625 43.023438 99.121094 43.023438 C 92.421875 43.023438 88.746094 45.855469 84.546875 54.246094 C 84.125 55.085938 83.265625 55.617188 82.328125 55.617188 C 81.390625 55.617188 80.527344 55.085938 80.109375 54.246094 C 75.917969 45.855469 72.234375 43.023438 65.535156 43.023438 Z M 65.535156 43.023438 " fill-opacity="1" fill-rule="nonzero"/><path fill="#4d429a" d="M 134.21875 101.542969 C 130.105469 101.542969 126.757812 98.191406 126.757812 94.078125 C 126.757812 89.964844 130.105469 86.617188 134.21875 86.617188 C 138.332031 86.617188 141.679688 89.964844 141.679688 94.078125 C 141.679688 98.199219 138.332031 101.542969 134.21875 101.542969 Z M 134.21875 91.585938 C 132.84375 91.585938 131.726562 92.703125 131.726562 94.078125 C 131.726562 95.457031 132.84375 96.574219 134.21875 96.574219 C 135.59375 96.574219 136.710938 95.457031 136.710938 94.078125 C 136.710938 92.703125 135.589844 91.585938 134.21875 91.585938 Z M 134.21875 91.585938 " fill-opacity="1" fill-rule="nonzero"/><path fill="#4d429a" d="M 129.238281 96.5625 L 95.636719 96.5625 C 94.265625 96.5625 93.152344 95.449219 93.152344 94.078125 C 93.152344 92.707031 94.265625 91.59375 95.636719 91.59375 L 129.238281 91.59375 C 130.609375 91.59375 131.71875 92.707031 131.71875 94.078125 C 131.71875 95.449219 130.613281 96.5625 129.238281 96.5625 Z M 129.238281 96.5625 " fill-opacity="1" fill-rule="nonzero"/><path fill="#4d429a" d="M 129.238281 79.597656 L 109.171875 79.597656 C 107.800781 79.597656 106.6875 78.484375 106.6875 77.113281 C 106.6875 75.742188 107.800781 74.628906 109.171875 74.628906 L 129.238281 74.628906 C 130.609375 74.628906 131.71875 75.742188 131.71875 77.113281 C 131.71875 78.484375 130.613281 79.597656 129.238281 79.597656 Z M 129.238281 79.597656 " fill-opacity="1" fill-rule="nonzero"/><path fill="#4d429a" d="M 134.21875 84.582031 C 130.105469 84.582031 126.757812 81.234375 126.757812 77.117188 C 126.757812 73.003906 130.105469 69.65625 134.21875 69.65625 C 138.332031 69.65625 141.679688 73.003906 141.679688 77.117188 C 141.679688 81.234375 138.332031 84.582031 134.21875 84.582031 Z M 134.21875 74.621094 C 132.84375 74.621094 131.726562 75.738281 131.726562 77.113281 C 131.726562 78.492188 132.84375 79.609375 134.21875 79.609375 C 135.59375 79.609375 136.710938 78.492188 136.710938 77.113281 C 136.710938 75.738281 135.589844 74.621094 134.21875 74.621094 Z M 134.21875 74.621094 " fill-opacity="1" fill-rule="nonzero"/><path fill="#4d429a" d="M 30.441406 101.542969 C 26.332031 101.542969 22.984375 98.191406 22.984375 94.078125 C 22.984375 89.964844 26.332031 86.617188 30.441406 86.617188 C 34.554688 86.617188 37.902344 89.964844 37.902344 94.078125 C 37.910156 98.199219 34.5625 101.542969 30.441406 101.542969 Z M 30.441406 91.585938 C 29.066406 91.585938 27.949219 92.703125 27.949219 94.078125 C 27.949219 95.457031 29.066406 96.574219 30.441406 96.574219 C 31.820312 96.574219 32.9375 95.457031 32.9375 94.078125 C 32.9375 92.703125 31.820312 91.585938 30.441406 91.585938 Z M 30.441406 91.585938 " fill-opacity="1" fill-rule="nonzero"/><path fill="#4d429a" d="M 69.023438 96.5625 L 35.417969 96.5625 C 34.050781 96.5625 32.9375 95.449219 32.9375 94.078125 C 32.9375 92.707031 34.050781 91.59375 35.417969 91.59375 L 69.023438 91.59375 C 70.394531 91.59375 71.503906 92.707031 71.503906 94.078125 C 71.503906 95.449219 70.394531 96.5625 69.023438 96.5625 Z M 69.023438 96.5625 " fill-opacity="1" fill-rule="nonzero"/><path fill="#4d429a" d="M 55.492188 79.597656 L 35.425781 79.597656 C 34.054688 79.597656 32.941406 78.484375 32.941406 77.113281 C 32.941406 75.742188 34.054688 74.628906 35.425781 74.628906 L 55.492188 74.628906 C 56.863281 74.628906 57.976562 75.742188 57.976562 77.113281 C 57.976562 78.484375 56.863281 79.597656 55.492188 79.597656 Z M 55.492188 79.597656 " fill-opacity="1" fill-rule="nonzero"/><path fill="#4d429a" d="M 30.441406 84.582031 C 26.332031 84.582031 22.984375 81.234375 22.984375 77.117188 C 22.984375 73.003906 26.332031 69.65625 30.441406 69.65625 C 34.554688 69.65625 37.902344 73.003906 37.902344 77.117188 C 37.910156 81.234375 34.5625 84.582031 30.441406 84.582031 Z M 30.441406 74.621094 C 29.066406 74.621094 27.949219 75.738281 27.949219 77.113281 C 27.949219 78.492188 29.066406 79.609375 30.441406 79.609375 C 31.820312 79.609375 32.9375 78.492188 32.9375 77.113281 C 32.9375 75.738281 31.820312 74.621094 30.441406 74.621094 Z M 30.441406 74.621094 " fill-opacity="1" fill-rule="nonzero"/><path fill="#4d429a" d="M 102.515625 129.328125 C 98.402344 129.328125 95.054688 125.980469 95.054688 121.863281 C 95.054688 117.75 98.402344 114.402344 102.515625 114.402344 C 106.628906 114.402344 109.976562 117.75 109.976562 121.863281 C 109.976562 125.980469 106.632812 129.328125 102.515625 129.328125 Z M 102.515625 119.367188 C 101.140625 119.367188 100.019531 120.484375 100.019531 121.859375 C 100.019531 123.234375 101.140625 124.355469 102.515625 124.355469 C 103.890625 124.355469 105.007812 123.234375 105.007812 121.859375 C 105.007812 120.484375 103.890625 119.367188 102.515625 119.367188 Z M 102.515625 119.367188 " fill-opacity="1" fill-rule="nonzero"/><path fill="#4d429a" d="M 102.515625 119.367188 C 101.144531 119.367188 100.03125 118.253906 100.03125 116.882812 L 100.03125 95.164062 C 100.03125 93.792969 101.144531 92.679688 102.515625 92.679688 C 103.886719 92.679688 105 93.792969 105 95.164062 L 105 116.882812 C 105 118.257812 103.886719 119.367188 102.515625 119.367188 Z M 102.515625 119.367188 " fill-opacity="1" fill-rule="nonzero"/><path fill="#4d429a" d="M 122.050781 129.328125 C 117.9375 129.328125 114.589844 125.980469 114.589844 121.863281 C 114.589844 117.75 117.9375 114.402344 122.050781 114.402344 C 126.164062 114.402344 129.511719 117.75 129.511719 121.863281 C 129.511719 125.980469 126.164062 129.328125 122.050781 129.328125 Z M 122.050781 119.367188 C 120.675781 119.367188 119.554688 120.484375 119.554688 121.859375 C 119.554688 123.234375 120.675781 124.355469 122.050781 124.355469 C 123.425781 124.355469 124.542969 123.234375 124.542969 121.859375 C 124.542969 120.484375 123.425781 119.367188 122.050781 119.367188 Z M 122.050781 119.367188 " fill-opacity="1" fill-rule="nonzero"/><path fill="#4d429a" d="M 122.050781 119.367188 C 120.679688 119.367188 119.566406 118.253906 119.566406 116.882812 L 119.566406 95.164062 C 119.566406 93.792969 120.679688 92.679688 122.050781 92.679688 C 123.421875 92.679688 124.535156 93.792969 124.535156 95.164062 L 124.535156 116.882812 C 124.535156 118.257812 123.421875 119.367188 122.050781 119.367188 Z M 122.050781 119.367188 " fill-opacity="1" fill-rule="nonzero"/><path fill="#4d429a" d="M 42.613281 129.328125 C 38.5 129.328125 35.152344 125.980469 35.152344 121.863281 C 35.152344 117.75 38.5 114.402344 42.613281 114.402344 C 46.726562 114.402344 50.074219 117.75 50.074219 121.863281 C 50.074219 125.980469 46.730469 129.328125 42.613281 129.328125 Z M 42.613281 119.367188 C 41.234375 119.367188 40.117188 120.484375 40.117188 121.859375 C 40.117188 123.234375 41.234375 124.355469 42.613281 124.355469 C 43.988281 124.355469 45.105469 123.234375 45.105469 121.859375 C 45.105469 120.484375 43.988281 119.367188 42.613281 119.367188 Z M 42.613281 119.367188 " fill-opacity="1" fill-rule="nonzero"/><path fill="#4d429a" d="M 42.613281 119.367188 C 41.242188 119.367188 40.128906 118.253906 40.128906 116.882812 L 40.128906 95.164062 C 40.128906 93.792969 41.242188 92.679688 42.613281 92.679688 C 43.984375 92.679688 45.09375 93.792969 45.09375 95.164062 L 45.09375 116.882812 C 45.09375 118.257812 43.984375 119.367188 42.613281 119.367188 Z M 42.613281 119.367188 " fill-opacity="1" fill-rule="nonzero"/><path fill="#4d429a" d="M 62.148438 129.328125 C 58.035156 129.328125 54.6875 125.980469 54.6875 121.863281 C 54.6875 117.75 58.035156 114.402344 62.148438 114.402344 C 66.261719 114.402344 69.609375 117.75 69.609375 121.863281 C 69.609375 125.980469 66.261719 129.328125 62.148438 129.328125 Z M 62.148438 119.367188 C 60.773438 119.367188 59.652344 120.484375 59.652344 121.859375 C 59.652344 123.234375 60.773438 124.355469 62.148438 124.355469 C 63.523438 124.355469 64.640625 123.234375 64.640625 121.859375 C 64.640625 120.484375 63.523438 119.367188 62.148438 119.367188 Z M 62.148438 119.367188 " fill-opacity="1" fill-rule="nonzero"/><path fill="#4d429a" d="M 62.148438 119.367188 C 60.777344 119.367188 59.664062 118.253906 59.664062 116.882812 L 59.664062 95.164062 C 59.664062 93.792969 60.777344 92.679688 62.148438 92.679688 C 63.519531 92.679688 64.632812 93.792969 64.632812 95.164062 L 64.632812 116.882812 C 64.632812 118.257812 63.519531 119.367188 62.148438 119.367188 Z M 62.148438 119.367188 " fill-opacity="1" fill-rule="nonzero"/></svg>