<svg xmlns="http://www.w3.org/2000/svg" xmlns:xlink="http://www.w3.org/1999/xlink" zoomAndPan="magnify" viewBox="0 0 230 230" preserveAspectRatio="xMidYMid meet" version="1.0"><defs><clipPath id="77b550b344"><path d="M 0 17 L 173.25 17 L 173.25 218.25 L 0 218.25 Z M 0 17 " clip-rule="nonzero"/></clipPath></defs><rect x="-144" width="1728" fill="#ffffff" y="-80.999999" height="971.999992" fill-opacity="1"/><rect x="-144" width="1728" fill="#ffffff" y="-80.999999" height="971.999992" fill-opacity="1"/><g clip-path="url(#77b550b344)"><path fill="#4d429a" d="M 157.269531 17.828125 L 129.773438 17.828125 C 129.800781 17.9375 129.800781 18.070312 129.800781 18.199219 L 129.800781 28.738281 L 157.269531 28.738281 C 159.121094 28.738281 160.628906 30.046875 160.628906 31.660156 L 160.628906 204.34375 C 160.628906 205.960938 159.121094 207.265625 157.269531 207.265625 L 15.957031 207.265625 C 14.128906 207.265625 12.621094 205.960938 12.621094 204.34375 L 12.621094 31.660156 C 12.621094 30.046875 14.128906 28.738281 15.957031 28.738281 L 43.449219 28.738281 L 43.449219 18.199219 C 43.449219 18.070312 43.449219 17.9375 43.480469 17.828125 L 15.957031 17.828125 C 7.203125 17.828125 0.078125 24.027344 0.078125 31.660156 L 0.078125 204.34375 C 0.078125 211.976562 7.203125 218.171875 15.957031 218.171875 L 157.269531 218.171875 C 166.046875 218.171875 173.167969 211.976562 173.167969 204.34375 L 173.167969 31.660156 C 173.167969 24.027344 166.046875 17.828125 157.269531 17.828125 " fill-opacity="1" fill-rule="nonzero"/></g><path fill="#4d429a" d="M 51.59375 32.769531 L 121.65625 32.769531 C 123.375 32.769531 124.765625 31.4375 124.765625 29.796875 L 124.765625 16.792969 C 124.765625 16.644531 124.765625 16.488281 124.738281 16.355469 C 124.5 14.925781 123.210938 13.820312 121.65625 13.820312 L 104.558594 13.820312 L 104.558594 3.484375 C 104.558594 1.535156 102.890625 -0.0507812 100.847656 -0.0507812 L 72.402344 -0.0507812 C 70.359375 -0.0507812 68.691406 1.535156 68.691406 3.484375 L 68.691406 13.820312 L 51.59375 13.820312 C 50.039062 13.820312 48.75 14.925781 48.511719 16.355469 C 48.484375 16.488281 48.484375 16.644531 48.484375 16.792969 L 48.484375 29.796875 C 48.484375 31.4375 49.875 32.769531 51.59375 32.769531 " fill-opacity="1" fill-rule="nonzero"/><path fill="#4d429a" d="M 145.933594 97.90625 C 145.625 95.898438 143.8125 94.386719 141.625 94.382812 C 131.082031 94.371094 120.535156 94.382812 109.988281 94.382812 C 99.480469 94.382812 88.988281 94.375 78.480469 94.382812 C 75.78125 94.382812 73.914062 96.109375 73.910156 98.589844 C 73.898438 101.074219 75.773438 102.851562 78.441406 102.851562 C 99.441406 102.855469 120.449219 102.855469 141.449219 102.851562 C 141.929688 102.851562 142.429688 102.828125 142.882812 102.695312 C 144.976562 102.101562 146.265625 100.058594 145.933594 97.90625 " fill-opacity="1" fill-rule="nonzero"/><path fill="#4d429a" d="M 141.351562 132.523438 C 120.394531 132.523438 99.4375 132.523438 78.476562 132.527344 C 77.949219 132.527344 77.429688 132.511719 76.90625 132.683594 C 74.867188 133.355469 73.648438 135.269531 73.929688 137.40625 C 74.195312 139.414062 76.023438 140.992188 78.183594 140.992188 C 88.777344 141.007812 99.363281 141.003906 109.953125 141.003906 C 120.410156 141.003906 130.871094 141.003906 141.324219 140.996094 C 144.097656 140.996094 145.984375 139.242188 145.964844 136.707031 C 145.941406 134.25 144.046875 132.523438 141.351562 132.523438 " fill-opacity="1" fill-rule="nonzero"/><path fill="#4d429a" d="M 141.730469 170.671875 C 131.1875 170.65625 120.644531 170.667969 110.097656 170.667969 C 99.550781 170.667969 89.007812 170.664062 78.460938 170.667969 C 75.761719 170.667969 73.910156 172.410156 73.910156 174.902344 C 73.910156 177.378906 75.78125 179.144531 78.464844 179.144531 C 99.46875 179.144531 120.46875 179.144531 141.472656 179.136719 C 141.953125 179.136719 142.449219 179.109375 142.90625 178.976562 C 144.953125 178.382812 146.199219 176.433594 145.941406 174.308594 C 145.703125 172.285156 143.882812 170.675781 141.730469 170.671875 " fill-opacity="1" fill-rule="nonzero"/><path fill="#4d429a" d="M 38.097656 110.136719 C 40.085938 111.867188 42.429688 111.773438 44.238281 109.859375 C 49.515625 104.28125 54.761719 98.667969 60.015625 93.066406 C 60.800781 92.226562 61.265625 91.257812 61.230469 90.039062 C 61.273438 89.167969 61 88.347656 60.46875 87.605469 C 58.859375 85.34375 55.785156 85.222656 53.71875 87.402344 C 49.652344 91.699219 45.601562 96.007812 41.585938 100.355469 C 40.964844 101.027344 40.582031 101.0625 39.914062 100.441406 C 38.132812 98.78125 36.316406 97.179688 34.480469 95.585938 C 32.507812 93.878906 29.953125 94 28.335938 95.828125 C 26.765625 97.605469 26.921875 100.144531 28.804688 101.851562 C 31.875 104.644531 34.972656 107.402344 38.097656 110.136719 " fill-opacity="1" fill-rule="nonzero"/><path fill="#4d429a" d="M 57.027344 123.996094 C 55.578125 123.980469 54.523438 124.664062 53.578125 125.675781 C 49.574219 129.964844 45.539062 134.230469 41.546875 138.53125 C 40.980469 139.144531 40.625 139.25 39.96875 138.628906 C 38.199219 136.972656 36.367188 135.375 34.539062 133.78125 C 32.542969 132.050781 30.035156 132.121094 28.390625 133.914062 C 26.75 135.707031 26.90625 138.277344 28.84375 140.039062 C 31.917969 142.824219 35.015625 145.589844 38.140625 148.316406 C 40.070312 149.996094 42.429688 149.910156 44.183594 148.054688 C 49.496094 142.449219 54.765625 136.800781 60.050781 131.164062 C 60.839844 130.328125 61.277344 129.339844 61.230469 128.171875 C 61.226562 125.808594 59.398438 124.015625 57.027344 123.996094 " fill-opacity="1" fill-rule="nonzero"/><path fill="#4d429a" d="M 141.351562 61.214844 C 120.394531 61.210938 99.4375 61.210938 78.476562 61.214844 C 77.949219 61.214844 77.429688 61.199219 76.90625 61.375 C 74.867188 62.042969 73.648438 63.957031 73.929688 66.09375 C 74.195312 68.101562 76.023438 69.679688 78.183594 69.683594 C 88.777344 69.695312 99.363281 69.6875 109.953125 69.6875 C 120.410156 69.6875 130.871094 69.6875 141.324219 69.683594 C 144.097656 69.683594 145.984375 67.929688 145.964844 65.394531 C 145.941406 62.941406 144.046875 61.214844 141.351562 61.214844 " fill-opacity="1" fill-rule="nonzero"/><path fill="#4d429a" d="M 57.027344 52.683594 C 55.578125 52.667969 54.523438 53.351562 53.578125 54.363281 C 49.574219 58.652344 45.539062 62.917969 41.546875 67.222656 C 40.980469 67.832031 40.625 67.941406 39.96875 67.324219 C 38.199219 65.660156 36.367188 64.0625 34.539062 62.46875 C 32.542969 60.738281 30.035156 60.808594 28.390625 62.601562 C 26.75 64.398438 26.90625 66.964844 28.84375 68.726562 C 31.917969 71.511719 35.015625 74.277344 38.140625 77.003906 C 40.070312 78.683594 42.429688 78.597656 44.183594 76.746094 C 49.496094 71.136719 54.765625 65.488281 60.050781 59.859375 C 60.839844 59.019531 61.277344 58.027344 61.230469 56.859375 C 61.226562 54.496094 59.398438 52.703125 57.027344 52.683594 " fill-opacity="1" fill-rule="nonzero"/><path fill="#4d429a" d="M 58.503906 162.609375 C 56.832031 161.921875 55.082031 162.257812 53.777344 163.640625 C 49.742188 167.898438 45.714844 172.167969 41.742188 176.488281 C 41.015625 177.277344 40.570312 177.375 39.773438 176.609375 C 38.113281 175.027344 36.371094 173.53125 34.648438 172.023438 C 32.53125 170.171875 29.96875 170.230469 28.3125 172.144531 C 26.699219 174 26.964844 176.5 29.027344 178.347656 C 31.976562 181.007812 34.945312 183.644531 37.921875 186.273438 C 40.089844 188.175781 42.390625 188.109375 44.351562 186.035156 C 49.53125 180.550781 54.679688 175.035156 59.851562 169.539062 C 60.644531 168.691406 61.035156 167.703125 61.121094 166.5625 C 61.144531 164.871094 60.078125 163.253906 58.503906 162.609375 " fill-opacity="1" fill-rule="nonzero"/></svg>