<svg xmlns="http://www.w3.org/2000/svg" xmlns:xlink="http://www.w3.org/1999/xlink" zoomAndPan="magnify" viewBox="0 0 230 230" preserveAspectRatio="xMidYMid meet" version="1.0"><rect x="-144" width="1728" fill="#ffffff" y="-80.999999" height="971.999992" fill-opacity="1"/><rect x="-144" width="1728" fill="#ffffff" y="-80.999999" height="971.999992" fill-opacity="1"/><path fill="#51459e" d="M 109.5 0 C 49.121094 0 0 49.121094 0 109.5 C 0 169.878906 49.121094 219 109.5 219 C 169.878906 219 219 169.878906 219 109.5 C 219 49.121094 169.878906 0 109.5 0 Z M 109.5 204.398438 C 57.171875 204.398438 14.601562 161.828125 14.601562 109.5 C 14.601562 57.171875 57.171875 14.601562 109.5 14.601562 C 161.828125 14.601562 204.398438 57.171875 204.398438 109.5 C 204.398438 161.828125 161.828125 204.398438 109.5 204.398438 Z M 109.5 204.398438 " fill-opacity="1" fill-rule="nonzero"/><path fill="#51459e" d="M 147.691406 102.199219 L 116.800781 102.199219 L 116.800781 71.308594 C 116.800781 67.277344 113.53125 64.007812 109.5 64.007812 C 105.46875 64.007812 102.199219 67.277344 102.199219 71.308594 L 102.199219 102.199219 L 71.308594 102.199219 C 67.277344 102.199219 64.007812 105.46875 64.007812 109.5 C 64.007812 113.53125 67.277344 116.800781 71.308594 116.800781 L 102.199219 116.800781 L 102.199219 147.691406 C 102.199219 151.722656 105.46875 154.992188 109.5 154.992188 C 113.53125 154.992188 116.800781 151.722656 116.800781 147.691406 L 116.800781 116.800781 L 147.691406 116.800781 C 151.722656 116.800781 154.992188 113.53125 154.992188 109.5 C 154.992188 105.46875 151.722656 102.199219 147.691406 102.199219 Z M 147.691406 102.199219 " fill-opacity="1" fill-rule="nonzero"/></svg>