<svg xmlns="http://www.w3.org/2000/svg" xmlns:xlink="http://www.w3.org/1999/xlink" zoomAndPan="magnify" viewBox="50 0 70 200" preserveAspectRatio="xMidYMid meet" version="1.0"><rect x="-144" width="1728" fill="transparent" y="-80.999999" height="971.999992" fill-opacity="1"/><rect x="-144" width="1728" fill="transparent" y="-80.999999" height="971.999992" fill-opacity="1"/><path fill="#eeeeee" d="M 15.707031 95.019531 C 16.039062 80.945312 19.78125 62.023438 37.859375 49.308594 C 42.105469 46.324219 46.78125 44.003906 51.597656 42.082031 C 68.128906 35.488281 87.886719 33.398438 103.050781 42.726562 C 108.027344 45.789062 112.261719 49.9375 116.023438 54.421875 C 124.023438 63.960938 130.09375 75.367188 132.011719 87.671875 C 133.929688 99.976562 131.398438 113.199219 123.851562 123.101562 C 115.648438 133.859375 102.054688 140.390625 96.554688 152.753906 C 91.300781 164.566406 94.90625 178.554688 91.359375 190.988281 C 91.042969 192.078125 90.644531 193.199219 89.796875 193.949219 C 88.75 194.859375 87.273438 195.011719 85.890625 195.121094 C 81.160156 195.496094 76.441406 195.871094 71.710938 196.246094 C 42.0625 198.582031 48.929688 173.800781 43.097656 153.570312 C 36.441406 130.457031 15.113281 120.054688 15.707031 95.019531 Z M 15.707031 95.019531 " fill-opacity="1" fill-rule="nonzero"/><path fill="#51459e" d="M 95.492188 159.140625 C 96.300781 159.082031 97.25 159.074219 97.769531 159.703125 C 98.117188 160.128906 98.160156 160.722656 98.175781 161.273438 C 98.507812 169.480469 98.832031 177.679688 99.160156 185.886719 C 99.273438 188.566406 99.363281 191.328125 98.429688 193.847656 C 95.882812 200.734375 86.722656 203.398438 84.234375 210.300781 C 83.351562 212.769531 84.015625 211.808594 82.699219 214.070312 C 80.761719 217.410156 76.527344 218.507812 72.714844 219.113281 C 68.605469 219.757812 64.28125 220.183594 60.386719 218.730469 C 58.855469 218.160156 57.320312 217.183594 56.800781 215.625 C 56.308594 214.128906 56.894531 212.496094 56.835938 210.921875 C 56.742188 208.191406 54.167969 209.65625 52.003906 207.996094 C 49.839844 206.339844 47.378906 205.03125 45.558594 202.996094 C 41.332031 198.261719 41.765625 191.160156 41.121094 184.839844 C 40.304688 176.929688 37.25 163.121094 47.691406 159.753906 C 50.765625 158.757812 54.296875 159.863281 57.40625 160.144531 C 62.992188 160.644531 68.707031 160.324219 74.300781 160.179688 C 81.375 159.992188 88.4375 159.640625 95.492188 159.140625 Z M 95.492188 159.140625 " fill-opacity="1" fill-rule="nonzero"/><path stroke-linecap="round" transform="matrix(0.849057, 0, 0, 0.85042, -104.094327, -69.571287)" fill="none" stroke-linejoin="round" d="M 197.131225 267.529812 C 197.618899 251.820661 190.860479 236.919935 184.488518 222.552034 C 183.140514 219.50207 182.178969 215.138418 185.091209 213.498603 C 186.738257 212.570752 188.909785 213.19085 190.322198 214.458606 C 191.720809 215.730956 192.530531 217.50857 193.308049 219.231065 C 194.039559 220.847913 195.231139 222.749547 196.997805 222.579594 C 197.82133 222.501508 198.520635 221.968683 199.160132 221.431264 C 201.768725 219.231065 204.11968 216.732299 206.139385 213.980901 C 207.791034 216.061675 209.497891 218.202161 211.839645 219.460731 C 214.181398 220.7193 217.319072 220.889253 219.311172 219.130012 C 220.360131 218.211348 221.050235 216.810386 222.361433 216.318901 C 224.381137 215.561003 226.571068 217.61881 226.791901 219.782263 C 227.008134 221.941123 225.908568 223.980556 224.850408 225.859224 C 217.659523 238.619463 210.100582 252.629086 212.460739 267.079666 " stroke="#144778" stroke-width="5" stroke-opacity="1" stroke-miterlimit="10"/><path stroke-linecap="round" transform="matrix(0.849057, 0, 0, 0.85042, -104.094327, -69.571287)" fill="none" stroke-linejoin="round" d="M 144.908745 139.867703 C 143.809179 137.290851 141.909093 135.141178 140.018207 133.060404 C 135.210482 127.768901 130.278538 122.578451 125.240778 117.51202 C 125.880274 117.420154 126.561177 117.58092 127.090257 117.948386 " stroke="#144778" stroke-width="5" stroke-opacity="1" stroke-miterlimit="10"/><path stroke-linecap="round" transform="matrix(0.849057, 0, 0, 0.85042, -104.094327, -69.571287)" fill="none" stroke-linejoin="round" d="M 178.328188 116.41881 C 178.751452 116.170771 178.66864 115.550673 178.530619 115.082155 C 175.788605 106.07925 170.511609 97.728596 169.761696 88.349039 " stroke="#144778" stroke-width="5" stroke-opacity="1" stroke-miterlimit="10"/><path stroke-linecap="round" transform="matrix(0.849057, 0, 0, 0.85042, -104.094327, -69.571287)" fill="none" stroke-linejoin="round" d="M 214.429836 109.928451 C 213.978968 101.439998 215.510999 92.850492 218.860304 85.04185 " stroke="#144778" stroke-width="5" stroke-opacity="1" stroke-miterlimit="10"/><path stroke-linecap="round" transform="matrix(0.849057, 0, 0, 0.85042, -104.094327, -69.571287)" fill="none" stroke-linejoin="round" d="M 253.949799 122.77137 C 258.030615 114.939762 262.378271 107.259733 266.988166 99.731283 C 267.567854 100.438654 267.751882 101.458371 267.448236 102.321915 " stroke="#144778" stroke-width="5" stroke-opacity="1" stroke-miterlimit="10"/><path stroke-linecap="round" transform="matrix(0.849057, 0, 0, 0.85042, -104.094327, -69.571287)" fill="none" stroke-linejoin="round" d="M 279.101794 144.732027 C 278.959173 145.08112 279.607871 145.108679 279.920718 144.90198 C 286.849363 140.290288 293.538773 135.320317 299.961342 130.028814 " stroke="#144778" stroke-width="5" stroke-opacity="1" stroke-miterlimit="10"/><path stroke-linecap="round" transform="matrix(0.849057, 0, 0, 0.85042, -104.094327, -69.571287)" fill="none" stroke-linejoin="round" d="M 174.69824 310.780501 C 181.327841 312.172277 188.219681 313.550273 194.807875 311.988544 " stroke="#144778" stroke-width="5" stroke-opacity="1" stroke-miterlimit="10"/><path stroke-linecap="round" transform="matrix(0.849057, 0, 0, 0.85042, -104.094327, -69.571287)" fill="none" stroke-linejoin="round" d="M 175.107702 298.259114 C 178.572025 298.690886 182.040948 299.108878 185.50067 299.54065 " stroke="#144778" stroke-width="5" stroke-opacity="1" stroke-miterlimit="10"/><path stroke-linecap="round" transform="matrix(0.849057, 0, 0, 0.85042, -104.094327, -69.571287)" fill="none" stroke-linejoin="round" d="M 215.920461 299.65089 C 218.450842 299.490124 220.990426 299.320171 223.520807 299.159405 C 227.491207 298.902179 231.608828 298.59902 235.06855 296.642266 " stroke="#144778" stroke-width="5" stroke-opacity="1" stroke-miterlimit="10"/><path stroke-linecap="round" transform="matrix(0.849057, 0, 0, 0.85042, -104.094327, -69.571287)" fill="none" stroke-linejoin="round" d="M 218.211606 314.569989 C 221.597717 312.819935 225.319679 311.699165 229.110651 311.281173 " stroke="#144778" stroke-width="5" stroke-opacity="1" stroke-miterlimit="10"/></svg>